<svg width="180" height="77" viewBox="0 0 180 77" fill="none" xmlns="http://www.w3.org/2000/svg">
<path d="M34.3369 23.6356L35.7227 20.71C37.6474 22.4808 41.0349 23.7896 44.4225 23.7896C48.9648 23.7896 50.9665 22.0188 50.9665 19.7092C50.9665 13.2421 34.9528 17.3225 34.9528 7.54491C34.9528 3.4645 38.1094 0 45.0384 0C48.1179 0 51.3515 0.846878 53.5072 2.30967L52.3523 5.31223C50.0426 3.84944 47.425 3.15654 45.1154 3.15654C40.65 3.15654 38.7253 5.08127 38.7253 7.31394C38.6483 13.781 54.662 9.7006 54.662 19.4012C54.662 23.4046 51.4284 26.9461 44.4225 26.9461C40.419 26.9461 36.4156 25.5603 34.3369 23.6356Z" fill="#21357C"/>
<path d="M82.9169 0.230988V26.6382H79.1444V14.8589H63.9006V26.6382H60.1282V0.230988H63.9006V11.5484H79.1444V0.230988H82.9169Z" fill="#21357C"/>
<path d="M94.5425 0.230988H90.77V26.6382H94.5425V0.230988Z" fill="#21357C"/>
<path d="M106.245 3.54151V12.7032H119.487V15.9367H106.245V26.6382H102.472V0.230988H121.18V3.54151H106.245Z" fill="#21357C"/>
<path d="M131.882 3.54151H122.874V0.230988H144.662V3.54151H135.654V26.6382H131.882V3.54151Z" fill="#21357C"/>
<path d="M0 51.0436C0 40.5731 7.92986 33.0282 18.6313 33.0282C24.0975 33.0282 28.7938 34.876 32.0274 38.4944L28.7938 41.651C26.0992 38.8024 22.7887 37.4936 18.8623 37.4936C10.9324 37.4936 5.00428 43.2678 5.00428 51.0436C5.00428 58.8195 10.8554 64.5937 18.8623 64.5937C22.7117 64.5937 26.0222 63.2079 28.7938 60.3593L32.0274 63.5158C28.7938 67.1343 24.0975 69.059 18.5543 69.059C7.92986 68.982 0 61.4371 0 51.0436Z" fill="#21357C"/>
<path d="M39.2644 33.4132H44.2687V64.2087H63.3619V68.5971H39.2644V33.4132Z" fill="#21357C"/>
<path d="M109.863 51.0436C109.863 40.6501 117.793 33.0282 128.494 33.0282C133.961 33.0282 138.657 34.876 141.89 38.4944L138.657 41.651C135.962 38.8024 132.652 37.4936 128.725 37.4936C120.795 37.4936 114.867 43.2678 114.867 51.0436C114.867 58.8195 120.718 64.5937 128.725 64.5937C132.575 64.5937 135.885 63.2079 138.657 60.3593L141.89 63.5158C138.657 67.1343 133.961 69.059 128.494 69.059C117.87 68.982 109.863 61.4371 109.863 51.0436Z" fill="#21357C"/>
<path d="M160.599 52.9684L154.132 59.5124V68.5971H149.127V33.4132H154.132V53.0453L173.302 33.4132H178.999L163.986 49.2729L180 68.5971H174.072L160.599 52.9684Z" fill="#21357C"/>
<path d="M101.856 53.7383C101.856 62.746 94.5424 70.1369 85.4577 70.1369C76.45 70.1369 69.0591 62.8229 69.0591 53.7383C69.0591 44.7306 76.373 37.3396 85.4577 37.3396C94.5424 37.3396 101.856 44.6536 101.856 53.7383Z" fill="#2ADEF5"/>
<path d="M85.4576 76.9119C72.6774 76.9119 62.2839 66.5184 62.2839 53.7382C62.2839 40.9581 72.6774 30.5646 85.4576 30.5646V34.799C74.9871 34.799 66.5183 43.3447 66.5183 53.7382C66.5183 64.2087 75.0641 72.6775 85.4576 72.6775C95.9281 72.6775 104.397 64.1317 104.397 53.7382H108.631C108.708 66.5184 98.2377 76.9119 85.4576 76.9119Z" fill="#21357C"/>
<path d="M104.089 49.3499C103.858 48.349 103.55 47.4251 103.165 46.5013L106.784 45.0385C107.246 46.1933 107.631 47.3482 107.862 48.503L104.089 49.3499ZM101.856 43.7297C101.317 42.8828 100.702 42.0359 100.086 41.266L103.011 38.7254C103.781 39.6493 104.551 40.6501 105.167 41.651L101.856 43.7297ZM97.9299 39.1873C97.16 38.5714 96.3132 37.9555 95.4663 37.4166L97.468 34.1061C98.4689 34.722 99.4697 35.4919 100.394 36.2618L97.9299 39.1873ZM92.7717 36.0308C91.8478 35.6459 90.847 35.3379 89.9231 35.1069L90.847 31.3345C92.0018 31.6424 93.1566 31.9504 94.3115 32.4123L92.7717 36.0308Z" fill="#2ADEF5"/>
<path d="M105.552 34.2601L85.6117 55.663L74.6023 42.0359L85.6117 49.9658L105.552 34.2601Z" fill="#21357C"/>
</svg>
