<svg width="7" height="12" viewBox="0 0 7 12" fill="none" xmlns="http://www.w3.org/2000/svg">
<path d="M4.88951 6.00152L0.255486 10.5371C0.0915613 10.6982 -0.000339508 10.9164 9.53674e-07 11.1438C0.000341415 11.3712 0.0928946 11.5892 0.2573 11.7497C0.421706 11.9103 0.644497 12.0003 0.876661 12C1.10883 11.9997 1.33135 11.909 1.49527 11.748L6.7453 6.61101C6.90392 6.45503 6.99507 6.24517 6.99981 6.02505C7.00454 5.80493 6.92249 5.5915 6.77071 5.42911L1.4989 0.252032C1.33497 0.0909929 1.11246 0.000333786 0.880291 9.53674e-07C0.648127 -0.000332832 0.425335 0.0896864 0.26093 0.250255C0.0965242 0.410823 0.0039711 0.628788 0.00363064 0.856199C0.00329018 1.08361 0.095191 1.30184 0.259115 1.46288L4.88951 6.00152Z" fill="#21357C"/>
</svg>
