<svg width="234" height="156" viewBox="0 0 234 156" fill="none" xmlns="http://www.w3.org/2000/svg">
<path opacity="0.2" d="M41 150H192C192.796 150 193.559 150.316 194.121 150.879C194.684 151.441 195 152.204 195 153C195 153.796 194.684 154.559 194.121 155.121C193.559 155.684 192.796 156 192 156H41C40.2044 156 39.4413 155.684 38.8787 155.121C38.3161 154.559 38 153.796 38 153C38 152.204 38.3161 151.441 38.8787 150.879C39.4413 150.316 40.2044 150 41 150Z" fill="white"/>
<path d="M41 150H79C79.7957 150 80.5587 150.316 81.1213 150.879C81.6839 151.441 82 152.204 82 153C82 153.796 81.6839 154.559 81.1213 155.121C80.5587 155.684 79.7957 156 79 156H41C40.2044 156 39.4413 155.684 38.8787 155.121C38.3161 154.559 38 153.796 38 153C38 152.204 38.3161 151.441 38.8787 150.879C39.4413 150.316 40.2044 150 41 150Z" fill="#2ADEF5"/>
<path d="M44.6001 30.7L46.4001 26.9C48.9001 29.2 53.3001 30.9 57.7001 30.9C63.6001 30.9 66.2001 28.6 66.2001 25.6C66.2001 17.2 45.4001 22.5 45.4001 9.8C45.4001 4.5 49.5001 0 58.5001 0C62.5001 0 66.7001 1.1 69.5001 3L68.0001 6.9C65.0001 5 61.6001 4.1 58.6001 4.1C52.8001 4.1 50.3001 6.6 50.3001 9.5C50.2001 17.9 71.0001 12.6 71.0001 25.2C71.0001 30.4 66.8001 35 57.7001 35C52.5001 35 47.3001 33.2 44.6001 30.7Z" fill="white"/>
<path d="M107.7 0.3V34.6H102.8V19.3H83.0001V34.6H78.1001V0.3H83.0001V15H102.8V0.3H107.7Z" fill="white"/>
<path d="M122.8 0.3H117.9V34.6H122.8V0.3Z" fill="white"/>
<path d="M138 4.6V16.5H155.2V20.7H138V34.6H133.1V0.3H157.4V4.6H138Z" fill="white"/>
<path d="M171.3 4.6H159.6V0.3H187.9V4.6H176.2V34.6H171.3V4.6Z" fill="white"/>
<path d="M0 66.3C0 52.7 10.3 42.9 24.2 42.9C31.3 42.9 37.4 45.3 41.6 50L37.4 54.1C33.9 50.4 29.6 48.7 24.5 48.7C14.2 48.7 6.5 56.2 6.5 66.3C6.5 76.4 14.1 83.9 24.5 83.9C29.5 83.9 33.8 82.1 37.4 78.4L41.6 82.5C37.4 87.2 31.3 89.7 24.1 89.7C10.3 89.6 0 79.8 0 66.3Z" fill="white"/>
<path d="M51 43.4H57.5V83.4H82.3V89.1H51V43.4Z" fill="white"/>
<path d="M142.7 66.3C142.7 52.8 153 42.9 166.9 42.9C174 42.9 180.1 45.3 184.3 50L180.1 54.1C176.6 50.4 172.3 48.7 167.2 48.7C156.9 48.7 149.2 56.2 149.2 66.3C149.2 76.4 156.8 83.9 167.2 83.9C172.2 83.9 176.5 82.1 180.1 78.4L184.3 82.5C180.1 87.2 174 89.7 166.9 89.7C153.1 89.6 142.7 79.8 142.7 66.3Z" fill="white"/>
<path d="M208.6 68.8L200.2 77.3V89.1H193.7V43.4H200.2V68.9L225.1 43.4H232.5L213 64L233.8 89.1H226.1L208.6 68.8Z" fill="white"/>
<path d="M132.3 69.8C132.3 81.5 122.8 91.1 111 91.1C99.3002 91.1 89.7002 81.6 89.7002 69.8C89.7002 58.1 99.2002 48.5 111 48.5C122.8 48.5 132.3 58 132.3 69.8Z" fill="#2ADEF5"/>
<path d="M111 99.9C94.3999 99.9 80.8999 86.4 80.8999 69.8C80.8999 53.2 94.3999 39.7 111 39.7V45.2C97.3999 45.2 86.3999 56.3 86.3999 69.8C86.3999 83.4 97.4999 94.4 111 94.4C124.6 94.4 135.6 83.3 135.6 69.8H141.1C141.2 86.4 127.6 99.9 111 99.9Z" fill="white"/>
<path d="M135.2 64.1C134.9 62.8 134.5 61.6 134 60.4L138.7 58.5C139.3 60 139.8 61.5 140.1 63L135.2 64.1ZM132.3 56.8C131.6 55.7 130.8 54.6 130 53.6L133.8 50.3C134.8 51.5 135.8 52.8 136.6 54.1L132.3 56.8ZM127.2 50.9C126.2 50.1 125.1 49.3 124 48.6L126.6 44.3C127.9 45.1 129.2 46.1 130.4 47.1L127.2 50.9ZM120.5 46.8C119.3 46.3 118 45.9 116.8 45.6L118 40.7C119.5 41.1 121 41.5 122.5 42.1L120.5 46.8Z" fill="#2ADEF5"/>
<path d="M137.1 44.5L111.2 72.3L96.8999 54.6L111.2 64.9L137.1 44.5Z" fill="white"/>
</svg>
