<svg width="18" height="13" viewBox="0 0 18 13" fill="none" xmlns="http://www.w3.org/2000/svg">
<path d="M11.2594 7.35907C11.2594 7.87229 11.1072 8.37398 10.8221 8.8007C10.537 9.22742 10.1317 9.56002 9.65758 9.75641C9.18343 9.95281 8.66169 10.0042 8.15834 9.90408C7.65498 9.80395 7.19262 9.55682 6.82972 9.19392C6.46682 8.83102 6.21969 8.36866 6.11956 7.8653C6.01944 7.36195 6.07083 6.84021 6.26723 6.36606C6.46362 5.89191 6.79622 5.48665 7.22294 5.20152C7.64966 4.91639 8.15135 4.76421 8.66457 4.76421C9.35277 4.76421 10.0128 5.03759 10.4994 5.52422C10.986 6.01086 11.2594 6.67087 11.2594 7.35907Z" fill="white"/>
<path d="M15.9524 2.16934H13.4929C13.3906 2.16879 13.2895 2.1468 13.1962 2.10479C13.1029 2.06278 13.0195 2.00169 12.9512 1.92545C11.6676 0.490348 11.1869 0 10.6631 0H6.80326C6.27504 0 5.75645 0.487139 4.47025 1.92545C4.40268 2.001 4.31987 2.0614 4.22728 2.10266C4.13469 2.14392 4.03442 2.16511 3.93305 2.16485H3.74821V1.80415C3.74787 1.70848 3.70967 1.61683 3.64196 1.54924C3.57425 1.48165 3.48254 1.44362 3.38687 1.44345H2.21555C2.11988 1.44379 2.02824 1.48198 1.96065 1.54969C1.89306 1.6174 1.85502 1.70912 1.85485 1.80479V2.16613H1.51597C1.13142 2.15181 0.756709 2.28953 0.472972 2.54949C0.189234 2.80944 0.0193116 3.17069 0 3.55502V11.4975C0.014914 11.8928 0.179213 12.2677 0.45974 12.5465C0.740266 12.8254 1.11613 12.9874 1.51148 13H15.9524C16.3336 12.9818 16.6923 12.8137 16.9502 12.5323C17.208 12.2509 17.3442 11.8789 17.3291 11.4975V3.55502C17.3342 3.37241 17.3022 3.19065 17.235 3.02078C17.1678 2.85091 17.0667 2.69649 16.9379 2.56689C16.8092 2.43729 16.6554 2.33522 16.486 2.26688C16.3166 2.19854 16.135 2.16535 15.9524 2.16934ZM8.84488 11.2132C8.06725 11.2502 7.29663 11.051 6.63428 10.6419C5.97194 10.2328 5.44886 9.63286 5.13378 8.92096C4.81871 8.20907 4.72638 7.4185 4.86893 6.65316C5.01147 5.88781 5.38223 5.1835 5.93248 4.63278C6.48273 4.08205 7.18671 3.71068 7.95193 3.56746C8.71715 3.42424 9.5078 3.51588 10.22 3.83033C10.9321 4.14479 11.5325 4.66734 11.9422 5.32933C12.3519 5.99132 12.5517 6.76176 12.5154 7.53942C12.4698 8.4985 12.0685 9.40618 11.3899 10.0854C10.7112 10.7646 9.80391 11.1667 8.84488 11.2132ZM12.9968 4.78667C12.8808 4.78667 12.7674 4.75227 12.6709 4.68781C12.5744 4.62335 12.4992 4.53173 12.4548 4.42454C12.4104 4.31735 12.3988 4.1994 12.4214 4.08561C12.4441 3.97181 12.4999 3.86729 12.582 3.78525C12.664 3.70321 12.7686 3.64734 12.8823 3.6247C12.9961 3.60207 13.1141 3.61368 13.2213 3.65808C13.3285 3.70248 13.4201 3.77767 13.4845 3.87414C13.549 3.97061 13.5834 4.08403 13.5834 4.20005C13.5836 4.27713 13.5685 4.35349 13.5391 4.42474C13.5097 4.49599 13.4665 4.56072 13.412 4.61523C13.3575 4.66974 13.2927 4.71294 13.2215 4.74236C13.1502 4.77178 13.0739 4.78684 12.9968 4.78667Z" fill="white"/>
</svg>
