<svg width="25" height="25" viewBox="0 0 25 25" fill="none" xmlns="http://www.w3.org/2000/svg">
<path d="M24.1992 8.05117C23.7952 6.77109 23.1207 5.59285 22.2214 4.59633C22.1451 4.51959 22.0544 4.45882 21.9544 4.41758C21.8544 4.37635 21.7472 4.35547 21.639 4.35618C21.5309 4.35547 21.4236 4.37635 21.3237 4.41758C21.2237 4.45882 21.1329 4.51959 21.0567 4.59633C20.9037 4.75174 20.8179 4.96108 20.8179 5.17918C20.8179 5.39728 20.9037 5.60662 21.0567 5.76203C21.7892 6.60084 22.3377 7.58397 22.6666 8.64793C23.0972 9.86652 23.3287 11.1465 23.352 12.4388C23.352 12.6191 23.3458 12.8954 23.3396 13.0458C23.3337 13.1535 23.3498 13.2613 23.387 13.3625C23.4242 13.4637 23.4818 13.5562 23.5561 13.6344C23.6284 13.7147 23.7164 13.7795 23.8145 13.8249C23.9127 13.8702 24.019 13.8952 24.1271 13.8982H24.1632C24.3756 13.8984 24.5798 13.8167 24.7335 13.67C24.8871 13.5233 24.9781 13.323 24.9877 13.1108C24.9939 12.9242 25.0001 12.6243 25.0001 12.4316C24.9745 10.9375 24.704 9.45767 24.1992 8.05117Z" fill="black"/>
<path d="M5.7078 3.76149C5.88034 3.76081 6.04833 3.70602 6.18809 3.60483C8.03244 2.30432 10.2392 1.61705 12.4958 1.64035C15.0041 1.66313 17.4231 2.57426 19.3231 4.2119C19.4724 4.33415 19.6588 4.4021 19.8518 4.40463C19.9721 4.40448 20.0909 4.37801 20.1998 4.32709C20.3088 4.27617 20.4053 4.20203 20.4826 4.10986C20.6205 3.94152 20.687 3.72584 20.6677 3.50907C20.6484 3.2923 20.545 3.09171 20.3795 2.95035C18.1805 1.06674 15.386 0.0218261 12.4907 0.000543296C9.88987 -0.0237831 7.34708 0.769371 5.22131 2.26804C5.07953 2.37022 4.97388 2.51482 4.91962 2.68095C4.86535 2.84708 4.86528 3.02616 4.91941 3.19234C4.97354 3.35852 5.07908 3.5032 5.22078 3.60549C5.36248 3.70779 5.53303 3.76242 5.7078 3.76149Z" fill="black"/>
<path d="M1.64599 12.4367C1.64538 9.81451 2.59524 7.28095 4.31957 5.30545C4.4615 5.14021 4.53228 4.92551 4.51645 4.70826C4.50061 4.49101 4.39945 4.28885 4.23506 4.14593C4.08584 4.01358 3.89342 3.94027 3.69395 3.9398C3.5766 3.93946 3.46057 3.96453 3.35382 4.01328C3.24708 4.06203 3.15214 4.1333 3.07555 4.2222C1.09195 6.49909 -0.000520155 9.41697 1.85792e-07 12.4367C0.0229806 14.2806 0.336014 16.1094 0.927611 17.856C0.978514 18.025 1.08269 18.173 1.2246 18.278C1.36651 18.3829 1.53855 18.4392 1.71505 18.4384C1.79643 18.4381 1.87734 18.426 1.9552 18.4023C2.16334 18.3393 2.33819 18.1967 2.44168 18.0055C2.49278 17.9106 2.5244 17.8065 2.53467 17.6992C2.54493 17.592 2.53364 17.4837 2.50146 17.3809C1.95884 15.7879 1.67016 14.1194 1.64599 12.4367Z" fill="black"/>
<path d="M18.4811 4.91481C16.8755 3.50395 14.8086 2.73028 12.6712 2.74008C11.3133 2.70924 9.96389 2.96073 8.7083 3.47861C7.45271 3.9965 6.31836 4.76949 5.37708 5.74863C4.52128 6.67249 3.86724 7.76445 3.45662 8.95496C3.046 10.1455 2.8878 11.4084 2.99209 12.6635C3.076 14.0094 3.26275 15.347 3.55072 16.6646C3.91798 18.3214 4.02232 20.0256 3.85993 21.7149C3.84607 21.9075 3.89795 22.0991 4.00709 22.2584C4.11624 22.4178 4.27619 22.5353 4.46081 22.592C4.53076 22.6141 4.60394 22.6242 4.67725 22.6219C4.88712 22.6205 5.08873 22.5399 5.24165 22.3962C5.39457 22.2524 5.4875 22.0562 5.5018 21.8468C5.68204 20.0004 5.57039 18.1371 5.17095 16.3255C4.90035 15.0768 4.72361 13.8097 4.64221 12.5346C4.55552 11.5051 4.68383 10.4688 5.019 9.49149C5.35417 8.5142 5.88887 7.61727 6.58916 6.85764C7.37694 6.04363 8.32529 5.40222 9.37406 4.97409C10.4228 4.54596 11.5491 4.34046 12.6815 4.37062C14.4212 4.36338 16.1032 4.99409 17.4092 6.14338C18.8376 7.45131 19.8594 9.1426 20.3528 11.0154C21.0691 13.8507 21.2543 16.7941 20.8991 19.6968C20.8795 19.9139 20.946 20.13 21.0842 20.2985C21.2224 20.467 21.4214 20.5744 21.6381 20.5976C21.6618 20.5976 21.6917 20.6038 21.7164 20.6038C21.9213 20.6046 22.1189 20.5285 22.2703 20.3905C22.4217 20.2525 22.5157 20.0627 22.5338 19.8586C22.9119 16.7479 22.706 13.594 21.9267 10.5588C21.3468 8.38442 20.1502 6.42427 18.4811 4.91481Z" fill="black"/>
<path d="M19.5508 13.187C19.3045 11.1684 18.4542 9.27116 17.1112 7.74403C16.5245 7.10348 15.8104 6.59256 15.0147 6.24398C14.219 5.8954 13.3594 5.71685 12.4907 5.71977C11.3668 5.71446 10.256 5.96098 9.23992 6.44125C9.1304 6.49422 9.03384 6.5706 8.95708 6.66499C8.88032 6.75938 8.82523 6.86948 8.7957 6.98751C8.76698 7.10835 8.76593 7.23412 8.79262 7.35542C8.81932 7.47673 8.87308 7.59043 8.94988 7.68805C9.02669 7.78566 9.12455 7.86466 9.23617 7.91915C9.34779 7.97364 9.47027 8.00221 9.59448 8.00273C9.71677 8.0011 9.83744 7.97444 9.94903 7.92439C10.7431 7.55537 11.6089 7.3667 12.4845 7.37195C13.149 7.37181 13.8058 7.51447 14.4104 7.79027C15.015 8.06608 15.5533 8.46858 15.9888 8.97053C17.0506 10.247 17.7203 11.8033 17.9172 13.4519C18.1685 14.9032 18.3111 16.3712 18.3439 17.8436C18.3469 19.3124 18.2505 20.7797 18.0553 22.2354C18.0377 22.3425 18.042 22.452 18.0678 22.5574C18.0937 22.6628 18.1406 22.7619 18.2058 22.8486C18.3334 23.0253 18.5257 23.1442 18.7407 23.1795C18.7823 23.1865 18.8243 23.1907 18.8665 23.1918C19.0629 23.1929 19.2532 23.123 19.4022 22.995C19.5513 22.867 19.649 22.6895 19.6776 22.4951C19.8918 20.9526 19.9951 19.3968 19.9868 17.8395C19.9619 16.2798 19.8161 14.7243 19.5508 13.187Z" fill="black"/>
<path d="M8.24843 9.34261C8.33291 9.21884 8.38207 9.07439 8.39061 8.92478C8.39915 8.77517 8.36676 8.62606 8.29692 8.49348C8.22708 8.3609 8.12243 8.24986 7.99421 8.17229C7.866 8.09472 7.71907 8.05356 7.56921 8.05323C7.43576 8.05295 7.30423 8.08507 7.18592 8.14683C7.06762 8.20858 6.96607 8.29813 6.89 8.40779C5.97936 9.83043 5.6678 11.5553 6.0232 13.2066C6.70595 16.4642 6.89634 19.8057 6.58801 23.1197C6.57237 23.2331 6.57973 23.3485 6.60965 23.459C6.63958 23.5695 6.69146 23.6728 6.76219 23.7628C6.82924 23.8513 6.91421 23.9245 7.01155 23.9778C7.10889 24.0311 7.21639 24.0632 7.32701 24.072C7.35071 24.072 7.37545 24.0782 7.39915 24.0782C7.59693 24.077 7.78766 24.0046 7.93656 23.8745C8.08546 23.7443 8.18261 23.565 8.2103 23.3691C8.55202 19.8797 8.35947 16.3586 7.6393 12.9273C7.49893 12.3192 7.48049 11.6893 7.58504 11.074C7.68959 10.4587 7.91507 9.87023 8.24843 9.34261Z" fill="black"/>
<path d="M16.1909 20.4265H16.1652C15.947 20.4349 15.741 20.5294 15.5924 20.6894C15.4438 20.8494 15.3648 21.0617 15.3726 21.2799C15.3877 21.9784 15.3353 22.6767 15.2159 23.365C15.1764 23.5626 15.21 23.7678 15.3105 23.9424C15.4109 24.117 15.5715 24.2492 15.7622 24.3143C15.846 24.3405 15.9331 24.3547 16.0209 24.3565C16.2117 24.3567 16.3967 24.2901 16.5437 24.1684C16.6907 24.0466 16.7905 23.8773 16.8258 23.6897C16.9684 22.8732 17.0309 22.0447 17.0124 21.216C17.0072 21.0027 16.918 20.8001 16.7642 20.6522C16.6103 20.5043 16.4043 20.4232 16.1909 20.4265Z" fill="black"/>
<path d="M14.8161 9.48692C14.1603 8.86233 13.2882 8.51586 12.3826 8.52014C11.8442 8.49877 11.3078 8.59831 10.8128 8.81145C10.3179 9.02459 9.87698 9.34591 9.52251 9.7518C9.14552 10.2634 8.89055 10.8544 8.77711 11.4796C8.66367 12.1049 8.69477 12.7478 8.86803 13.3592C9.59306 16.8259 9.75696 20.3864 9.35348 23.9051C9.32656 24.1209 9.38597 24.3385 9.51878 24.5107C9.65159 24.6829 9.84704 24.7957 10.0626 24.8244C10.0967 24.8294 10.1312 24.8314 10.1657 24.8306C10.3664 24.8304 10.5601 24.7571 10.7106 24.6242C10.861 24.4914 10.9579 24.3083 10.983 24.1092C11.4108 20.4138 11.2434 16.6738 10.4872 13.0314C10.3746 12.6577 10.344 12.264 10.3974 11.8773C10.4507 11.4907 10.5868 11.12 10.7964 10.7907C10.9977 10.5748 11.2444 10.4062 11.5187 10.2972C11.793 10.1881 12.0881 10.1412 12.3826 10.1599C13.8843 10.1599 14.4914 11.8183 14.6841 12.5305C15.1649 14.6532 15.3967 16.8247 15.3747 19.0011C15.3782 19.2175 15.4666 19.4238 15.6209 19.5755C15.7751 19.7273 15.9829 19.8123 16.1992 19.8123H16.2116C16.428 19.8087 16.6343 19.7203 16.786 19.5661C16.9378 19.4118 17.0228 19.2041 17.0228 18.9877C17.0407 16.6754 16.7885 14.3689 16.2714 12.1151C16.0419 11.1201 15.5377 10.2095 14.8161 9.48692Z" fill="black"/>
<path d="M13.0495 11.8905C12.988 11.7385 12.8826 11.6082 12.7467 11.5165C12.6109 11.4247 12.4507 11.3754 12.2868 11.3751C12.181 11.3768 12.0763 11.397 11.9775 11.4349C11.7765 11.519 11.6168 11.6793 11.5336 11.8807C11.4503 12.0822 11.4502 12.3084 11.5333 12.5099C12.0494 14.1195 12.3346 15.7942 12.3805 17.484C12.5261 19.6784 12.4857 21.8813 12.26 24.069C12.2477 24.1766 12.2567 24.2857 12.2866 24.3898C12.3165 24.494 12.3666 24.5912 12.4341 24.676C12.5012 24.7608 12.5847 24.8311 12.6796 24.8826C12.7746 24.9342 12.879 24.9659 12.9866 24.976C13.0162 24.981 13.0462 24.983 13.0763 24.9821C13.2787 24.9816 13.4739 24.9067 13.6246 24.7715C13.7753 24.6364 13.8711 24.4505 13.8936 24.2493C14.1309 21.9379 14.1713 19.6105 14.0142 17.2922C13.9616 15.4538 13.6365 13.6334 13.0495 11.8905Z" fill="black"/>
</svg>
