<svg width="20" height="20" viewBox="0 0 20 20" fill="none" xmlns="http://www.w3.org/2000/svg">
<path d="M13.4166 11.0833L12.2083 9.875C12.3333 9.22222 12.1458 8.61111 11.6458 8.04167C11.1458 7.47222 10.4999 7.25 9.70825 7.375L8.49992 6.16667C8.73603 6.05556 8.97561 5.97222 9.21867 5.91667C9.46172 5.86111 9.72214 5.83333 9.99992 5.83333C11.0416 5.83333 11.927 6.19792 12.6562 6.92708C13.3853 7.65625 13.7499 8.54167 13.7499 9.58333C13.7499 9.86111 13.7221 10.1215 13.6666 10.3646C13.611 10.6076 13.5277 10.8472 13.4166 11.0833ZM16.0833 13.7083L14.8749 12.5417C15.4027 12.1389 15.8714 11.6979 16.2812 11.2188C16.6909 10.7396 17.0416 10.1944 17.3333 9.58333C16.6388 8.18056 15.6423 7.06597 14.3437 6.23958C13.0451 5.4132 11.5971 5 9.99992 5C9.59714 5 9.20131 5.02778 8.81242 5.08333C8.42353 5.13889 8.04159 5.22222 7.66659 5.33333L6.37492 4.04167C6.94436 3.80556 7.5277 3.62847 8.12492 3.51042C8.72214 3.39236 9.34714 3.33333 9.99992 3.33333C12.0971 3.33333 13.9652 3.9132 15.6041 5.07292C17.243 6.23264 18.4305 7.73611 19.1666 9.58333C18.8471 10.4028 18.427 11.1632 17.9062 11.8646C17.3853 12.566 16.7777 13.1806 16.0833 13.7083ZM16.4999 18.8333L12.9999 15.375C12.5138 15.5278 12.0242 15.6424 11.5312 15.7188C11.0381 15.7951 10.5277 15.8333 9.99992 15.8333C7.9027 15.8333 6.03464 15.2535 4.39575 14.0938C2.75686 12.934 1.56936 11.4306 0.833252 9.58333C1.12492 8.84722 1.49297 8.1632 1.93742 7.53125C2.38186 6.89931 2.88881 6.33333 3.45825 5.83333L1.16659 3.5L2.33325 2.33333L17.6666 17.6667L16.4999 18.8333ZM4.62492 7C4.22214 7.36111 3.85409 7.75695 3.52075 8.1875C3.18742 8.61806 2.9027 9.08333 2.66659 9.58333C3.36103 10.9861 4.35756 12.1007 5.65617 12.9271C6.95478 13.7535 8.4027 14.1667 9.99992 14.1667C10.2777 14.1667 10.5485 14.1493 10.8124 14.1146C11.0763 14.0799 11.3471 14.0417 11.6249 14L10.8749 13.2083C10.7221 13.25 10.5763 13.2813 10.4374 13.3021C10.2985 13.3229 10.1527 13.3333 9.99992 13.3333C8.95825 13.3333 8.07284 12.9688 7.34367 12.2396C6.6145 11.5104 6.24992 10.625 6.24992 9.58333C6.24992 9.43056 6.26034 9.28472 6.28117 9.14583C6.302 9.00695 6.33325 8.86111 6.37492 8.70833L4.62492 7Z" fill="#CCCCCC"/>
</svg>
