<svg width="20" height="21" viewBox="0 0 20 21" fill="none" xmlns="http://www.w3.org/2000/svg">
<path d="M15.2524 6.70108C15.2524 5.1891 14.6518 3.73905 13.5827 2.66993C12.5136 1.6008 11.0635 1.00017 9.55153 1.00017C8.03956 1.00017 6.58951 1.6008 5.52038 2.66993C4.45125 3.73905 3.85062 5.1891 3.85062 6.70108C3.85062 13.3521 1.00017 15.2524 1.00017 15.2524H18.1029C18.1029 15.2524 15.2524 13.3521 15.2524 6.70108Z" stroke="white" stroke-width="2" stroke-linecap="round" stroke-linejoin="round"/>
<path d="M11.1949 19.053C11.0278 19.341 10.788 19.58 10.4996 19.7462C10.2111 19.9124 9.88401 19.9998 9.5511 19.9998C9.21819 19.9998 8.89112 19.9124 8.60263 19.7462C8.31415 19.58 8.07439 19.341 7.90734 19.053" stroke="white" stroke-width="2" stroke-linecap="round" stroke-linejoin="round"/>
</svg>
