<svg width="49" height="41" viewBox="0 0 49 41" fill="none" xmlns="http://www.w3.org/2000/svg">
<path d="M30.7521 34.0107C30.3201 34.012 29.9063 34.1842 29.6008 34.4896C29.2954 34.795 29.1233 35.2089 29.1219 35.6408C29.1206 36.1966 28.8992 36.7293 28.5062 37.1224C28.1132 37.5154 27.5805 37.7368 27.0246 37.7381H5.35755C4.80172 37.7368 4.26902 37.5154 3.87599 37.1224C3.48295 36.7293 3.26157 36.1966 3.26025 35.6408V5.35589C3.262 4.80035 3.48358 4.26808 3.87657 3.8754C4.26956 3.48272 4.802 3.26156 5.35755 3.26025H27.0246C27.5805 3.26157 28.1132 3.48295 28.5062 3.87599C28.8992 4.26902 29.1206 4.80172 29.1219 5.35755C29.1219 5.79011 29.2938 6.20495 29.5996 6.51081C29.9055 6.81667 30.3203 6.98851 30.7529 6.98851C31.1855 6.98851 31.6003 6.81667 31.9062 6.51081C32.212 6.20495 32.3839 5.79011 32.3839 5.35755C32.3834 3.93677 31.8188 2.57432 30.8142 1.56968C29.8095 0.565035 28.4471 0.000439121 27.0263 0H5.35755C3.93706 0.000438829 2.57485 0.564807 1.57026 1.56909C0.565667 2.57337 0.000878133 3.93541 0 5.35589V35.6425C0.000439121 37.0632 0.565035 38.4257 1.56968 39.4303C2.57432 40.435 3.93677 40.9996 5.35755 41H27.0246C28.4454 40.9996 29.8079 40.435 30.8125 39.4303C31.8172 38.4257 32.3818 37.0632 32.3822 35.6425C32.3813 35.2102 32.2094 34.7959 31.9039 34.4902C31.5984 34.1844 31.1843 34.012 30.7521 34.0107Z" fill="#2ADEF5"/>
<path d="M37.8459 9.09492C37.694 8.94233 37.5132 8.82154 37.3141 8.73962C37.115 8.6577 36.9015 8.61629 36.6862 8.61781C36.4707 8.61469 36.2568 8.65537 36.0575 8.73738C35.8581 8.81939 35.6775 8.94103 35.5266 9.09492C35.3743 9.24585 35.2535 9.42546 35.171 9.62336C35.0885 9.82125 35.046 10.0335 35.046 10.2479C35.046 10.4623 35.0885 10.6746 35.171 10.8725C35.2535 11.0704 35.3743 11.25 35.5266 11.4009L43.1206 18.879H13.2797C12.8471 18.879 12.4323 19.0508 12.1264 19.3567C11.8205 19.6625 11.6487 20.0774 11.6487 20.5099C11.6487 20.9425 11.8205 21.3573 12.1264 21.6632C12.4323 21.9691 12.8471 22.1409 13.2797 22.1409H43.1686L35.7602 29.6107C35.4579 29.9183 35.2885 30.3324 35.2885 30.7637C35.2885 31.195 35.4579 31.6091 35.7602 31.9167L35.7718 31.9283C36.0816 32.2178 36.4891 32.3799 36.9132 32.3822C37.1289 32.3864 37.3431 32.3462 37.5426 32.2641C37.7421 32.1821 37.9226 32.0598 38.0728 31.9051L47.6946 22.3066C47.9329 22.092 48.1235 21.8298 48.254 21.5368C48.3845 21.2439 48.4519 20.9267 48.4519 20.606C48.4519 20.2853 48.3845 19.9682 48.254 19.6752C48.1235 19.3823 47.9329 19.12 47.6946 18.9055L37.8459 9.09492Z" fill="#2ADEF5"/>
</svg>
