<svg width="14" height="16" viewBox="0 0 14 16" fill="none" xmlns="http://www.w3.org/2000/svg">
<path d="M6.66675 8C8.87589 8 10.6667 6.20914 10.6667 4C10.6667 1.79086 8.87589 0 6.66675 0C4.45761 0 2.66675 1.79086 2.66675 4C2.66675 6.20914 4.45761 8 6.66675 8Z" fill="#21357C"/>
<path fill-rule="evenodd" clip-rule="evenodd" d="M9.394 8.58333C10.1267 8.912 10.8013 9.37333 11.3807 9.95267C12.6307 11.2027 13.3333 12.8987 13.3333 14.6667V15.3333C13.3333 15.7013 13.0347 16 12.6667 16H0.666667C0.298667 16 0 15.7013 0 15.3333C0 15.3333 0 15.078 0 14.6667C0 12.8987 0.702667 11.2027 1.95267 9.95267C2.532 9.37333 3.20667 8.912 3.93933 8.58333C4.738 9.06 5.67067 9.33333 6.66667 9.33333C7.66267 9.33333 8.59534 9.06 9.394 8.58333Z" fill="#21357C"/>
</svg>
