<svg width="304" height="300" viewBox="0 0 304 300" fill="none" xmlns="http://www.w3.org/2000/svg">
<g clip-path="url(#clip0_8_2684)">
<path d="M83.622 7.1832H23.7954V106.46H83.622V7.1832Z" fill="#E0E0E0"/>
<path d="M81.6615 7.1832H21.835V106.46H81.6615V7.1832Z" fill="#EBEBEB"/>
<path d="M79.1603 9.14841H24.4038V104.427H79.1603V9.14841Z" fill="#FAFAFA"/>
<path d="M68.4791 21.5496H34.814V92.0262H68.4791V21.5496Z" fill="#EBEBEB"/>
<path d="M34.8141 67.0883C34.7465 60.515 40.6277 54.0773 47.1174 53.1285C50.227 52.7219 53.5394 53.3318 56.4463 52.1121C61.6515 50.0113 63.2739 43.0992 68.4792 41.0662L68.7496 92.0262H34.8141V67.0883Z" fill="#E0E0E0"/>
<path d="M304 10.9103H246.607V70.8832H304V10.9103Z" fill="#E0E0E0"/>
<path d="M300.079 10.9101H242.686V70.883H300.079V10.9101Z" fill="#FAFAFA"/>
<path d="M300.079 70.8832H242.686V10.8426H300.079V70.8832ZM242.754 70.8155H300.079V10.9103H242.754V70.8155Z" fill="#E0E0E0"/>
<path d="M292.373 18.9745H250.393V62.8191H292.373V18.9745Z" fill="#FAFAFA"/>
<path d="M250.392 63.0901C250.392 63.1579 250.054 63.5645 249.378 64.3099C248.702 64.9876 247.756 66.0041 246.742 67.0206C245.66 68.037 244.714 68.9858 243.97 69.6634C243.227 70.3411 242.821 70.6799 242.753 70.6799C242.686 70.6122 243.091 70.2056 243.767 69.4601C244.443 68.7825 245.39 67.766 246.471 66.7495C247.553 65.733 248.499 64.7843 249.243 64.1066C249.919 63.429 250.392 63.0224 250.392 63.0901Z" fill="#E0E0E0"/>
<path d="M292.373 62.9546C292.44 62.9546 292.846 63.2934 293.589 63.9711C294.265 64.6487 295.279 65.5975 296.293 66.614C297.307 67.6982 298.254 68.6469 298.93 69.3924C299.606 70.1378 299.944 70.5444 299.944 70.6121C299.876 70.6799 299.471 70.2733 298.727 69.5957C298.051 68.918 297.037 67.9693 296.023 66.885C295.009 65.8008 294.063 64.852 293.387 64.1066C292.711 63.4967 292.305 63.0224 292.373 62.9546Z" fill="#E0E0E0"/>
<path d="M292.237 19.0422C292.237 18.9745 292.575 18.5679 293.251 17.8225C293.927 17.1448 294.874 16.1283 295.888 15.1118C296.969 14.0953 297.916 13.1466 298.659 12.4689C299.403 11.7913 299.809 11.4525 299.876 11.4525C299.944 11.5202 299.538 11.9268 298.862 12.6722C298.186 13.3499 297.24 14.3664 296.158 15.3829C295.077 16.3994 294.13 17.3481 293.387 18.0258C292.778 18.7034 292.305 19.11 292.237 19.0422Z" fill="#E0E0E0"/>
<path d="M250.325 19.1778C250.257 19.1778 249.851 18.8389 249.108 18.1613C248.432 17.4836 247.418 16.5349 246.404 15.5184C245.39 14.4342 244.443 13.4854 243.767 12.74C243.091 11.9946 242.753 11.588 242.753 11.5202C242.821 11.4524 243.227 11.859 243.97 12.5367C244.646 13.2144 245.66 14.1631 246.674 15.2473C247.688 16.3316 248.635 17.2803 249.311 18.0257C249.987 18.7034 250.325 19.11 250.325 19.1778Z" fill="#E0E0E0"/>
<path d="M292.237 62.8191C292.237 62.8191 292.237 62.7513 292.237 62.6158C292.237 62.4802 292.237 62.2769 292.237 62.0059C292.237 61.4637 292.237 60.6506 292.237 59.6341C292.237 57.5333 292.237 54.5516 292.17 50.689C292.17 43.0314 292.102 32.0533 292.102 18.9745L292.237 19.11C280.002 19.11 265.67 19.11 250.393 19.11L250.595 18.9067C250.595 34.9672 250.595 50.0791 250.595 62.7513L250.46 62.6158C262.966 62.6158 273.444 62.6835 280.745 62.6835C284.396 62.6835 287.302 62.6835 289.263 62.7513C290.209 62.7513 291.021 62.7513 291.494 62.7513C291.764 62.7513 291.899 62.7513 292.102 62.7513C292.17 62.8191 292.237 62.8191 292.237 62.8191C292.237 62.8191 292.17 62.8191 292.035 62.8191C291.899 62.8191 291.697 62.8191 291.494 62.8191C290.953 62.8191 290.209 62.8191 289.263 62.8191C287.302 62.8191 284.463 62.8191 280.813 62.8868C273.444 62.8868 262.966 62.9546 250.393 62.9546H250.257V62.8191C250.257 50.1468 250.257 35.035 250.257 18.9745V18.7712H250.46C265.738 18.7712 280.069 18.7712 292.305 18.7712H292.44V18.9067C292.373 32.0533 292.373 43.0314 292.373 50.7567C292.373 54.5516 292.373 57.6011 292.305 59.6341C292.305 60.6506 292.305 61.396 292.305 61.9381C292.305 62.2092 292.305 62.4125 292.305 62.548C292.237 62.7513 292.237 62.8191 292.237 62.8191Z" fill="#E0E0E0"/>
<path d="M278.379 33.883H264.386V47.9106H278.379V33.883Z" fill="#EBEBEB"/>
<path d="M217.336 291.868C216.119 290.852 213.483 287.599 215.511 283.804C216.255 282.449 217.877 281.703 219.297 281.093C220.716 280.483 222.271 279.941 223.488 278.925C225.719 277.027 226.395 273.775 227.882 271.267C229.572 268.353 232.817 266.117 236.197 266.253C240.05 266.456 243.295 269.641 244.782 273.232C246.269 276.824 246.269 280.89 246.337 284.82C246.337 286.989 246.269 289.428 244.647 290.919C243.16 292.275 240.996 292.275 239.036 292.207C231.938 292.004 224.907 291.8 217.809 291.529" fill="#F5F5F5"/>
<path d="M257.896 233.386H202.126L212.198 293.494C212.672 296.137 214.564 298.17 216.931 298.848C216.998 298.848 217.066 298.916 217.133 298.916C217.269 298.984 217.471 298.984 217.607 299.051C217.945 299.119 218.35 299.187 218.756 299.187V299.255L219.026 299.187H243.903C244.376 299.187 244.85 299.119 245.255 299.051C248.162 298.577 250.528 296.205 250.934 293.156L255.801 251.751L256.004 250.124L257.896 233.725V233.386ZM247.351 271.742H241.605L242.213 254.326H248.838L247.351 271.742ZM249.446 254.258H254.922L252.894 271.674H247.959L249.446 254.258ZM233.087 291.055L232.749 275.875H240.996L240.523 291.055H233.087ZM224.164 275.943H232.208L232.546 291.123H225.381L224.164 275.943ZM224.772 291.055H218.08C217.471 286.989 216.593 281.635 215.714 275.875H223.623L224.772 291.055ZM223.826 271.742L222.474 254.326H231.667L232.073 271.742H223.826ZM232.614 271.742L232.208 254.326H241.672L241.064 271.742H232.614ZM232.141 250.124L231.803 233.996H242.416L241.875 250.124H232.141ZM231.532 250.124H222.136L220.851 233.996H231.194L231.532 250.124ZM221.595 250.124H211.59C211.252 247.888 210.914 245.787 210.576 243.89C209.562 237.384 209.156 234.877 208.954 233.996H220.311L221.595 250.124ZM221.933 254.258L223.285 271.674H215.038C214.767 269.912 214.497 268.082 214.226 266.32C213.55 262.187 212.942 258.121 212.334 254.258H221.933ZM214.429 271.742H209.021L206.114 254.326H211.658C212.536 259.679 213.483 265.643 214.429 271.742ZM215.105 275.943C215.917 281.161 216.728 286.379 217.471 291.123H212.266L209.697 275.943H215.105ZM240.996 291.055L241.47 275.875H247.013L245.728 291.055H240.996ZM242.348 250.124L242.889 233.996H250.596L249.244 250.124H242.348ZM208.48 233.928C208.683 235.08 209.697 241.45 211.117 250.056H205.506L202.802 233.928H208.48ZM250.596 291.055H246.269L247.554 275.875H252.353L250.596 291.055ZM255.395 250.124H249.784L251.136 233.996H257.288L255.395 250.124Z" fill="#E0E0E0"/>
<path d="M289.669 299.797C289.669 299.864 224.84 300 144.868 300C64.829 300 0 299.864 0 299.797C0 299.729 64.829 299.593 144.868 299.593C224.84 299.593 289.669 299.729 289.669 299.797Z" fill="#263238"/>
<path d="M212.131 226.406L135.404 226.338C126.143 226.338 118.707 218.816 118.707 209.6L118.774 16.7382C118.774 7.45426 126.278 0 135.471 0L212.198 0.067766C221.459 0.067766 228.896 7.58979 228.896 16.806L228.828 209.668C228.828 218.884 221.324 226.406 212.131 226.406Z" fill="#455A64"/>
<path d="M212.063 6.84436H197.191C195.163 6.84436 193.608 8.53851 193.608 10.6393V13.3499C193.608 15.4506 191.986 17.1448 190.025 17.1448H161.025C158.997 17.1448 157.442 15.4506 157.442 13.3499V10.6393C157.442 8.53851 155.819 6.84436 153.859 6.84436H148.654H135.607C129.117 6.84436 123.912 12.0623 123.912 18.5679L123.844 206.754C123.844 213.26 129.049 218.478 135.539 218.478L212.131 218.545C218.62 218.545 223.826 213.327 223.826 206.822L223.758 18.6356C223.758 12.1301 218.553 6.84436 212.063 6.84436Z" fill="#FAFAFA"/>
<path d="M198.813 12.9433H197.935V14.1631H198.813V12.9433Z" fill="#263238"/>
<path d="M200.165 12.4689H199.287V14.1631H200.165V12.4689Z" fill="#263238"/>
<path d="M201.585 12.0623H200.706V14.1631H201.585V12.0623Z" fill="#263238"/>
<path d="M202.937 11.2492H202.058V14.1631H202.937V11.2492Z" fill="#263238"/>
<path d="M215.511 14.2309H211.252C211.117 14.2309 210.914 14.0953 210.914 13.892V11.7913C210.914 11.6558 211.049 11.4525 211.184 11.4525H215.443H215.511V11.5202V12.1979H215.984C216.052 12.1979 216.052 12.2656 216.052 12.2656V13.2821C216.052 13.3499 215.984 13.3499 215.984 13.3499H215.511V14.0276C215.578 14.1631 215.511 14.2309 215.511 14.2309ZM215.443 11.6558H211.252C211.184 11.6558 211.117 11.7235 211.117 11.7913V13.892C211.117 13.9598 211.184 14.0276 211.252 14.0276H215.443V13.3499C215.443 13.2821 215.511 13.2821 215.511 13.2821H215.984V12.4012H215.511C215.443 12.4012 215.443 12.3334 215.443 12.3334V11.6558Z" fill="#263238"/>
<path d="M211.455 13.6887V11.9946H215.038V12.74V12.9433V13.6887H211.455Z" fill="#263238"/>
<path d="M206.722 14.4342C206.909 14.4342 207.06 14.2825 207.06 14.0953C207.06 13.9082 206.909 13.7565 206.722 13.7565C206.536 13.7565 206.384 13.9082 206.384 14.0953C206.384 14.2825 206.536 14.4342 206.722 14.4342Z" fill="#263238"/>
<path d="M205.641 13.2821L206.047 13.6887C206.25 13.4854 206.452 13.4177 206.723 13.4177C206.993 13.4177 207.196 13.5532 207.399 13.6887L207.804 13.2821C207.534 13.0111 207.128 12.8078 206.723 12.8078C206.25 12.8755 205.912 13.0111 205.641 13.2821Z" fill="#263238"/>
<path d="M206.722 11.9946C206.046 11.9946 205.438 12.2656 205.032 12.6722L205.438 13.0788C205.776 12.74 206.249 12.5367 206.722 12.5367C207.195 12.5367 207.669 12.74 208.007 13.0788L208.412 12.6722C207.939 12.2656 207.331 11.9946 206.722 11.9946Z" fill="#263238"/>
<path d="M204.356 12.0623L204.762 12.4689C205.235 11.9946 205.979 11.6558 206.722 11.6558C207.466 11.6558 208.142 11.9946 208.683 12.4689L209.088 12.0623C208.48 11.4525 207.669 11.1136 206.722 11.1136C205.776 11.0459 204.965 11.4525 204.356 12.0623Z" fill="#263238"/>
<path d="M178.871 35.1028H173.733C173.395 35.1028 173.125 34.8317 173.125 34.4929V30.9691C173.125 30.6302 173.395 30.3592 173.733 30.3592H178.871C179.209 30.3592 179.479 30.6302 179.479 30.9691V34.4929C179.547 34.764 179.277 35.1028 178.871 35.1028Z" fill="#263238"/>
<path d="M174.545 30.5625H173.869V29.817C173.869 28.3939 174.95 27.3097 176.37 27.3097C177.789 27.3097 178.871 28.3939 178.871 29.817V30.3592H178.195V29.817C178.195 28.7328 177.451 27.9874 176.37 27.9874C175.356 27.9874 174.545 28.7328 174.545 29.817V30.5625Z" fill="#263238"/>
<path d="M124.588 149.017C124.588 136.887 131.618 124.96 142.299 119.2C149.735 115.134 158.388 114.05 166.703 112.153C175.018 110.255 183.536 107.138 188.673 100.294C195.569 91.1452 194.284 78.0664 199.219 67.766C203.748 58.4143 213.618 51.9087 224.028 51.5699V209.126C224.028 214.412 219.77 218.681 214.497 218.681H134.12C128.847 218.681 124.588 214.412 124.588 209.126V149.017Z" fill="#EBEBEB"/>
<path d="M141.488 66.9526C141.488 61.1247 144.53 57.6009 148.789 57.6009C153.048 57.6009 156.09 61.0569 156.09 66.9526C156.09 72.7804 152.98 76.3043 148.789 76.3043C144.53 76.2365 141.488 72.7804 141.488 66.9526ZM154.129 66.9526C154.129 62.0734 151.966 59.3628 148.721 59.3628C145.544 59.3628 143.313 62.0734 143.313 66.9526C143.313 71.8317 145.476 74.5424 148.721 74.5424C151.966 74.5424 154.129 71.8317 154.129 66.9526Z" fill="#263238"/>
<path d="M171.976 66.7495C171.976 72.984 168.596 76.2367 163.593 76.2367C161.971 76.2367 160.416 75.9657 159.267 75.2202L160.011 73.7294C160.957 74.3393 162.174 74.6103 163.593 74.6103C167.514 74.6103 170.083 72.0352 170.083 67.0883C170.083 66.6817 170.083 66.1396 170.015 65.5975C169.069 67.6305 166.973 68.7147 164.405 68.7147C160.754 68.7147 158.253 66.5462 158.253 63.2257C158.253 59.7696 160.957 57.6011 164.472 57.6011C169.339 57.6011 171.976 60.9894 171.976 66.7495ZM169.407 63.1579C169.407 61.1249 167.717 59.2275 164.54 59.2275C161.903 59.2275 160.078 60.7861 160.078 63.2257C160.078 65.6652 161.836 67.1561 164.675 67.1561C167.514 67.1561 169.407 65.3942 169.407 63.1579Z" fill="#263238"/>
<path d="M174.747 63.6323C174.747 62.8191 175.355 62.2092 176.099 62.2092C176.843 62.2092 177.519 62.8191 177.519 63.6323C177.519 64.4455 176.843 65.0554 176.099 65.0554C175.355 65.0554 174.747 64.4455 174.747 63.6323ZM174.747 74.8137C174.747 74.0005 175.355 73.3906 176.099 73.3906C176.843 73.3906 177.519 74.0005 177.519 74.8137C177.519 75.6268 176.843 76.2367 176.099 76.2367C175.355 76.2367 174.747 75.6268 174.747 74.8137Z" fill="#263238"/>
<path d="M192.729 74.4071V76.1012H179.885V74.7459L187.524 67.2916C189.62 65.2586 189.958 64.0389 189.958 62.7513C189.958 60.6506 188.47 59.2952 185.699 59.2952C183.535 59.2952 181.913 59.9729 180.696 61.3282L179.344 60.1762C180.764 58.482 183.062 57.5333 185.834 57.5333C189.552 57.5333 191.918 59.4308 191.918 62.4802C191.918 64.2422 191.377 65.8008 188.944 68.2403L182.724 74.3393H192.729V74.4071Z" fill="#263238"/>
<path d="M194.96 66.9528C194.96 61.1249 198.002 57.6011 202.261 57.6011C206.52 57.6011 209.562 61.0572 209.562 66.9528C209.562 72.7807 206.452 76.3045 202.261 76.3045C198.002 76.2367 194.96 72.7807 194.96 66.9528ZM207.669 66.9528C207.669 62.0736 205.506 59.363 202.261 59.363C199.084 59.363 196.853 62.0736 196.853 66.9528C196.853 71.8319 199.016 74.5426 202.261 74.5426C205.438 74.5426 207.669 71.8319 207.669 66.9528Z" fill="#263238"/>
<path d="M142.569 54.0773C149.85 54.0773 155.751 48.161 155.751 40.8629C155.751 33.5648 149.85 27.6485 142.569 27.6485C135.289 27.6485 129.387 33.5648 129.387 40.8629C129.387 48.161 135.289 54.0773 142.569 54.0773Z" fill="#E0E0E0"/>
<path d="M70.9128 146.239C69.9664 145.561 68.7496 145.29 67.7356 144.748C66.6539 144.274 65.6399 143.393 65.5723 142.173C65.4371 140.411 67.33 139.124 67.4652 137.429C67.6004 134.99 64.3555 133.635 63.8147 131.263C63.4091 129.297 65.0991 127.4 65.0315 125.367C64.9639 123.334 63.2063 121.843 62.3951 119.946C60.5023 115.609 63.9499 110.052 61.3811 106.122C60.7051 105.037 59.6235 104.292 58.7447 103.411C57.8659 102.53 57.0547 101.378 57.1899 100.09L52.3226 97.8541C50.7002 95.3467 46.9822 95.279 44.2105 96.2955C41.4389 97.3797 39.0053 99.2772 36.0985 100.023C34.6789 100.361 34.8817 98.2607 33.462 98.5995C31.5692 99.0061 29.2708 101.175 28.7976 103.004C28.2568 104.97 27.8512 107.138 27.1076 109.035C26.364 111.136 24.0656 112.627 23.8628 114.863C23.5924 117.438 26.2964 119.607 26.2964 122.182C26.2964 125.028 23.1868 127.536 24.2008 130.178C24.7416 131.669 26.4992 132.482 27.1076 133.973C27.9188 136.006 26.2964 138.31 26.4316 140.479C26.5668 142.647 28.392 144.342 30.1496 145.629C36.7745 150.712 44.1429 154.981 52.0522 157.691C55.4998 158.843 59.0827 159.792 62.6655 159.453C66.2483 159.115 69.8988 157.42 71.7916 154.303C73.3464 151.728 73.3464 147.933 70.9128 146.239Z" fill="#263238"/>
<path d="M56.987 98.8706C56.1082 95.3467 53.2014 92.365 49.6862 91.4163C46.1709 90.4676 42.1825 91.5518 39.6137 94.1269C38.5997 95.2112 37.7209 96.4988 36.5041 97.312C35.0844 98.2607 34.8816 97.9896 33.3268 98.5995C31.772 99.2094 28.9328 103.546 28.9328 105.241L28.1216 112.627C28.1892 114.321 30.42 115.338 32.0424 114.728C33.6648 114.186 34.7464 112.627 35.6253 111.136C36.5041 109.645 37.3153 108.019 38.6673 107.07C41.0333 105.444 44.1429 105.986 46.9822 106.596C49.7538 107.138 52.9986 107.612 55.1618 105.715C57.1222 104.089 57.5955 101.242 56.987 98.8706Z" fill="#263238"/>
<path d="M58.4742 109.374C58.1361 104.563 54.9589 98.735 50.2269 99.2094L35.3547 103.004C33.9351 103.14 32.8535 104.427 32.8535 105.85L34.5435 141.766C34.4759 141.766 34.4759 141.766 34.4083 141.766C34.4083 141.766 40.4248 154.642 50.2945 151.525C52.2549 150.915 50.4973 146.036 50.8353 143.867H50.9029C50.9029 143.596 50.9029 143.393 50.9029 143.122C51.2409 140.614 50.9705 138.175 50.9705 138.175C50.9705 135.261 50.9705 134.109 50.9705 134.109C50.9705 134.109 57.0545 133.092 58.339 125.096C59.0826 121.166 58.8122 114.66 58.4742 109.374Z" fill="#FFBE9D"/>
<path d="M57.2572 115.541C57.2572 116.083 56.8516 116.557 56.2432 116.557C55.7024 116.557 55.2292 116.151 55.1616 115.609C55.1616 115.067 55.5672 114.592 56.1756 114.592C56.784 114.592 57.2572 114.999 57.2572 115.541Z" fill="#263238"/>
<path d="M57.1223 112.763C56.9871 112.898 56.2434 112.356 55.0942 112.356C54.0126 112.356 53.2014 112.898 53.0662 112.763C52.9986 112.695 53.1338 112.492 53.4718 112.22C53.8098 111.949 54.4182 111.746 55.0942 111.746C55.7702 111.746 56.3786 112.017 56.7167 112.288C57.0547 112.424 57.1899 112.695 57.1223 112.763Z" fill="#263238"/>
<path d="M46.9145 115.88C46.9145 116.422 46.5089 116.896 45.9005 116.896C45.3597 116.896 44.8864 116.49 44.8188 115.948C44.8188 115.405 45.2245 114.931 45.8329 114.931C46.3737 114.931 46.8469 115.338 46.9145 115.88Z" fill="#263238"/>
<path d="M46.3058 112.966C46.1706 113.101 45.427 112.559 44.2778 112.559C43.1962 112.559 42.385 113.101 42.2498 112.966C42.1822 112.898 42.3174 112.695 42.6554 112.424C42.9934 112.153 43.6018 111.949 44.2778 111.949C44.9538 111.949 45.5622 112.22 45.9002 112.492C46.2382 112.695 46.3734 112.898 46.3058 112.966Z" fill="#263238"/>
<path d="M50.2943 121.166C50.2943 121.098 50.9703 120.962 52.0519 120.827C52.3223 120.827 52.5927 120.759 52.6603 120.556C52.7279 120.352 52.5927 120.081 52.4575 119.742C52.1871 119.065 51.9167 118.319 51.6463 117.574C50.4971 114.525 49.6183 112.017 49.7535 111.949C49.8887 111.882 50.9027 114.321 52.0519 117.371C52.3223 118.116 52.5927 118.862 52.8631 119.539C52.9983 119.878 53.1335 120.217 52.9983 120.623C52.9307 120.827 52.7279 120.962 52.5251 121.03C52.3223 121.098 52.1871 121.098 52.0519 121.098C50.9703 121.166 50.2943 121.233 50.2943 121.166Z" fill="#263238"/>
<path d="M51.1057 134.177C51.1057 134.177 45.7653 134.515 40.4248 131.33C40.4248 131.33 42.9936 136.82 50.9705 136.074L51.1057 134.177Z" fill="#EB996E"/>
<path d="M49.8211 123.808C49.4155 123.266 48.7395 122.995 48.0635 123.063C47.5903 123.131 47.1171 123.334 46.8467 123.741C46.5763 124.147 46.5087 124.689 46.7791 125.028C47.0495 125.435 47.7255 125.57 48.1987 125.367C48.7395 125.232 49.1451 124.893 49.6183 124.554C49.7535 124.486 49.8887 124.351 49.9563 124.215C49.9563 124.08 49.9563 123.944 49.8211 123.808Z" fill="#EB996E"/>
<path d="M47.0496 121.911C47.2524 121.911 47.2524 123.063 48.2664 123.944C49.2804 124.825 50.5649 124.689 50.5649 124.825C50.5649 124.893 50.2944 125.028 49.7536 125.096C49.2128 125.096 48.4692 124.96 47.8608 124.418C47.2524 123.876 46.982 123.199 46.9144 122.724C46.8468 122.182 46.982 121.911 47.0496 121.911Z" fill="#263238"/>
<path d="M46.7794 111.068C46.6442 111.34 45.5626 111.204 44.2782 111.407C42.9938 111.543 41.9798 111.949 41.777 111.678C41.7094 111.543 41.9122 111.272 42.3178 111.001C42.7234 110.73 43.3994 110.459 44.143 110.323C44.8866 110.255 45.6302 110.391 46.1034 110.526C46.5766 110.662 46.847 110.933 46.7794 111.068Z" fill="#263238"/>
<path d="M56.7166 109.578C56.5138 109.849 55.7702 109.578 54.8238 109.578C53.945 109.51 53.1338 109.781 52.931 109.51C52.8634 109.374 52.9986 109.103 53.3366 108.9C53.6746 108.697 54.2154 108.493 54.8238 108.493C55.4322 108.493 55.973 108.764 56.311 108.968C56.649 109.171 56.7842 109.442 56.7166 109.578Z" fill="#263238"/>
<path d="M49.9566 97.1764L49.2806 96.2955C44.6838 96.8376 40.1545 97.9896 35.8957 99.7515C34.2057 100.429 32.4481 101.31 31.2989 102.733C29.6764 104.698 29.406 107.409 29.2708 109.984C28.5948 119.675 27.9864 129.636 31.0285 138.852C31.7721 137.7 33.1917 137.158 34.5437 136.887C35.8957 136.616 37.3153 136.548 38.5321 135.871C39.8841 135.193 40.8982 133.838 41.2362 132.347C41.6418 130.856 41.3714 129.297 40.7629 127.874C40.0193 126.316 38.7349 124.825 39.0053 123.199C39.3433 121.437 41.3714 120.42 41.8446 118.726C42.6558 115.744 38.4645 113.101 39.3433 110.12C39.6813 109.035 40.6277 108.222 41.6418 107.748C42.6558 107.274 43.805 106.935 44.819 106.46C48.199 104.902 50.4298 100.971 49.9566 97.1764Z" fill="#263238"/>
<path d="M90.179 158.03L80.8501 172.532C80.8501 172.532 81.8641 174.226 84.0949 174.159C86.3257 174.091 89.4354 168.466 89.7734 167.314C90.1114 166.162 89.6382 165.078 89.9762 164.333C90.3142 163.587 90.179 161.486 90.179 161.486C90.179 161.69 92.2746 158.911 90.179 158.03Z" fill="#FFBE9D"/>
<path d="M78.2812 172.532L83.1485 153.287C83.2837 152.677 83.6893 152.202 84.1625 151.931L91.193 147.933C91.5986 147.662 92.1394 147.798 92.4774 148.204C92.6126 148.407 92.6802 148.746 92.6126 149.017L87.4749 169.279L78.2812 172.532Z" fill="#263238"/>
<path d="M75.8479 187.441L87.1372 166.637L82.8783 161.08L66.9922 173.142L71.1834 184.662L75.8479 187.441Z" fill="#21357C"/>
<path d="M87.2725 171.109C87.2725 171.109 87.4077 170.838 87.4753 170.228C87.5429 169.686 87.4754 168.805 87.2725 167.789V167.721V167.653C87.4754 167.314 87.5429 166.975 87.4077 166.569C87.2725 166.162 87.0021 165.823 86.5965 165.62L86.4613 165.552L86.5289 165.417C86.9345 164.807 87.3401 164.197 87.8133 163.519C87.9485 163.384 88.0838 163.18 88.0838 163.045C88.1514 162.909 88.1514 162.706 88.0161 162.571C87.8809 162.232 87.5429 161.893 87.2049 161.69L87.0697 161.554L87.2049 161.419C87.5429 161.012 87.9485 160.605 88.3542 160.199C89.0302 159.453 89.6386 158.776 90.1794 158.03C90.4498 157.691 90.7202 157.285 90.8554 156.946C90.923 156.743 90.9906 156.539 91.0582 156.404C91.0582 156.201 90.9906 156.133 90.8554 156.133H90.7878C90.6526 156.065 90.3822 156.133 90.1794 156.201C89.9766 156.268 89.7738 156.404 89.5034 156.472C89.0978 156.675 88.6922 156.946 88.3542 157.149C87.6105 157.624 87.0697 158.03 86.5289 158.369C86.0557 158.708 85.7177 158.979 85.3797 159.182C85.1093 159.386 84.9741 159.453 84.9741 159.453C84.9741 159.453 85.1093 159.318 85.3121 159.115C85.5825 158.911 85.9205 158.572 86.3937 158.166C86.8669 157.759 87.4753 157.353 88.1513 156.878C88.4894 156.607 88.895 156.404 89.3006 156.133C89.5034 155.997 89.7062 155.93 89.9766 155.794C90.247 155.726 90.4498 155.591 90.8554 155.658H90.7878C91.1258 155.658 91.3286 156.065 91.261 156.268C91.261 156.539 91.1934 156.743 91.0582 156.946C90.8554 157.353 90.585 157.759 90.3146 158.098C89.7738 158.843 89.0978 159.589 88.4218 160.267C88.0162 160.673 87.6782 161.08 87.2725 161.419V161.148C87.6782 161.419 88.0161 161.757 88.1513 162.232C88.2189 162.435 88.2866 162.706 88.219 162.977C88.1514 163.248 88.0162 163.384 87.8809 163.519C87.4077 164.197 87.0021 164.807 86.5965 165.417L86.5289 165.213C86.9345 165.552 87.2725 165.891 87.4077 166.365C87.5429 166.84 87.4077 167.314 87.2049 167.653V167.585C87.4753 168.602 87.4753 169.483 87.3401 170.093C87.2725 170.364 87.2049 170.567 87.1373 170.77C87.3401 171.041 87.2725 171.109 87.2725 171.109Z" fill="#EB996E"/>
<path d="M92.4774 148.204C92.4774 148.204 92.2746 148.34 91.869 148.611C91.4634 148.882 90.9226 149.221 90.2466 149.627C89.503 150.034 88.6918 150.576 87.7453 151.05C87.2721 151.321 86.7989 151.592 86.2581 151.864C85.7173 152.135 85.1765 152.406 84.7709 152.812C84.3653 153.219 84.1625 153.761 84.0273 154.371C83.8921 154.913 83.7569 155.455 83.6217 155.997C83.3513 157.014 83.0809 157.962 82.8781 158.776C82.6753 159.589 82.4725 160.199 82.3373 160.605C82.2021 161.012 82.1345 161.283 82.0669 161.283C82.0669 161.283 82.0669 161.012 82.2021 160.605C82.2697 160.131 82.4049 159.521 82.6077 158.708C82.8105 157.895 83.0133 156.946 83.2837 155.93C83.4189 155.387 83.5541 154.845 83.6893 154.303C83.8245 153.761 84.0273 153.083 84.5005 152.609C84.9737 152.135 85.5145 151.864 86.0553 151.592C86.5961 151.321 87.0693 151.05 87.5425 150.779C88.489 150.237 89.3002 149.831 90.0438 149.424C90.7874 149.017 91.3282 148.746 91.7338 148.543C92.2746 148.272 92.4774 148.204 92.4774 148.204Z" fill="#455A64"/>
<path d="M88.4394 154.153C88.3017 154.096 88.0496 154.384 87.8764 154.799C87.7032 155.213 87.6744 155.595 87.8122 155.653C87.9499 155.711 88.2019 155.422 88.3751 155.008C88.5483 154.594 88.5771 154.211 88.4394 154.153Z" fill="white"/>
<path d="M52.7285 143.122C57.5958 144.884 61.5842 148.543 63.815 153.287L78.9576 185.543L92.0045 190.829L80.5124 194.15L70.3047 186.628L52.7285 143.122Z" fill="#21357C"/>
<path d="M80.5123 194.15L75.0367 198.419L47.6584 170.16L31.9751 141.834L33.8003 136.548L45.9008 141.631L50.2273 148.069L51.1737 139.937L51.9173 141.021L53.2017 144.477C53.2017 144.477 65.0994 154.371 67.6682 162.232C69.8314 168.805 69.1554 182.358 70.4398 186.018L80.5123 194.15Z" fill="#FAFAFA"/>
<path d="M29.0681 141.428C28.8653 141.97 17.3732 146.646 16.8324 150.644C16.2916 154.71 25.1473 185.95 25.1473 185.95L39.1406 198.351H75.0365L63.612 176.937C61.1784 172.329 58.0688 168.06 54.3507 164.333C50.9707 160.876 46.9147 156.675 44.819 154.1C42.5206 151.389 32.8537 138.514 32.8537 138.514L29.0681 141.428Z" fill="#21357C"/>
<path d="M36.2339 142.715C36.2339 142.647 37.0451 143.054 38.2619 143.664C39.4787 144.274 41.1687 145.155 43.0616 146.103C43.8052 146.51 44.5488 146.849 45.1572 147.188L44.8868 147.323C44.8192 145.765 44.9544 144.477 45.0896 143.528C45.2924 142.58 45.4276 142.105 45.4952 142.105C45.5628 142.105 45.4276 142.647 45.2924 143.596C45.1572 144.477 45.0896 145.832 45.2248 147.323V147.594L44.9544 147.459C44.2784 147.12 43.6024 146.781 42.8588 146.375C40.9659 145.426 39.3435 144.545 38.1267 143.867C36.9775 143.19 36.2339 142.715 36.2339 142.715Z" fill="#263238"/>
<path d="M63.9498 171.245C63.9498 171.245 63.747 170.906 63.3414 170.296C62.9358 169.618 62.4626 168.805 61.8542 167.721C60.6374 165.552 58.8798 162.571 56.987 159.318C55.0265 156.065 53.2689 153.151 51.9169 151.05C51.3085 150.034 50.7677 149.221 50.3621 148.543C50.0241 147.933 49.8213 147.594 49.8213 147.594C49.8213 147.594 50.0917 147.865 50.4973 148.475C50.9029 149.017 51.4437 149.898 52.1197 150.915C53.4717 153.016 55.2969 155.93 57.2574 159.182C59.2178 162.435 60.9078 165.417 62.057 167.653C62.6654 168.737 63.1386 169.618 63.409 170.228C63.8146 170.838 64.0174 171.177 63.9498 171.245Z" fill="#263238"/>
<g opacity="0.3">
<path d="M58.4746 192.998C60.5702 193.336 62.7334 193.675 64.7614 193.336C66.857 192.93 68.8851 191.642 69.5611 189.609C69.7639 188.999 69.8315 188.254 70.3723 187.78C71.1835 187.034 72.4679 187.508 73.5495 187.373C74.7663 187.237 75.7803 186.356 76.4563 185.34C77.0647 184.323 77.4027 183.104 77.6731 181.884C77.8083 181.274 77.9435 180.664 77.8759 180.122C77.8083 179.512 77.4703 178.902 76.9295 178.631C76.1183 178.292 75.1719 178.767 74.4283 179.309C68.4795 183.578 63.0714 188.525 57.731 193.472" fill="black"/>
</g>
<path d="M71.8592 169.144C71.8592 169.144 73.8872 164.4 75.0364 163.723C76.118 163.045 81.5937 159.86 81.5937 159.86L80.9177 162.435L86.2581 158.708C86.9341 158.234 90.7197 154.777 91.3957 156.133C91.869 157.082 88.7593 159.657 88.3537 160.267C87.3397 161.69 87.6777 161.554 87.6777 161.554C87.6777 161.554 88.8269 162.232 88.2185 163.248C87.6777 164.265 86.6637 165.485 86.6637 165.485C86.6637 165.485 88.1509 166.027 87.2721 167.924C87.2721 167.924 87.6777 168.941 87.4073 170.431C87.1369 171.855 84.5681 174.633 84.5681 174.633L71.5888 180.867L66.3159 171.922L71.8592 169.144Z" fill="#FFBE9D"/>
<path d="M41.5742 160.199L49.889 178.021L68.4116 169.957C68.4116 169.957 76.1181 174.43 75.0365 179.377L58.3391 193.133C55.1619 195.708 51.1059 196.928 47.0498 196.454C42.7234 195.911 38.8025 193.472 36.3689 189.813L24.336 171.38L17.5759 160.334C15.4127 156.81 15.4127 152.27 17.8463 148.882C18.5224 148.001 19.3336 147.188 20.2124 146.646C23.322 144.816 32.2453 144.003 41.5742 160.199Z" fill="#21357C"/>
<path d="M79.8927 163.071C81.4494 162.108 82.6795 161.276 82.6402 161.212C82.601 161.148 81.3073 161.877 79.7507 162.841C78.194 163.804 76.9639 164.637 77.0031 164.7C77.0424 164.764 78.3361 164.035 79.8927 163.071Z" fill="#EB996E"/>
<path d="M85.335 163.712C86.7452 162.321 87.846 161.149 87.7936 161.096C87.7412 161.043 86.5555 162.128 85.1453 163.519C83.735 164.911 82.6343 166.082 82.6866 166.135C82.739 166.188 83.9247 165.104 85.335 163.712Z" fill="#EB996E"/>
<path d="M85.977 166.72C86.679 165.893 87.202 165.184 87.1452 165.136C87.0883 165.087 86.4732 165.717 85.7711 166.544C85.0691 167.37 84.5461 168.079 84.6029 168.128C84.6598 168.176 85.275 167.546 85.977 166.72Z" fill="#EB996E"/>
<path d="M87.3396 167.856C87.4072 167.924 87.1368 168.331 86.7312 168.873C86.3932 169.415 86.0552 169.822 85.9876 169.754C85.92 169.686 86.1228 169.212 86.4608 168.67C86.8664 168.127 87.272 167.789 87.3396 167.856Z" fill="#EB996E"/>
<path d="M55.4997 194.895C55.4997 194.895 55.4997 194.895 55.5673 194.827C55.6349 194.759 55.7025 194.692 55.8377 194.624C56.1081 194.421 56.4461 194.15 56.9193 193.743C57.8657 192.998 59.2177 191.913 60.9078 190.558C64.3554 187.847 69.2902 183.985 75.1715 179.377L75.1039 179.512C75.1039 178.631 74.9687 177.682 74.5631 176.801C74.1575 175.92 73.6843 175.107 73.0083 174.294C71.7239 172.735 70.1014 171.38 68.2762 170.228H68.4114C65.3694 171.583 62.1246 172.939 58.8121 174.43C55.7701 175.785 52.7957 177.073 49.8889 178.292L49.7537 178.36L49.6861 178.225C47.2524 173.413 44.954 168.805 42.6556 164.875C41.5064 162.909 40.3572 161.08 39.3432 159.318C38.2616 157.624 37.3151 155.997 36.3011 154.642C34.3407 151.864 32.1775 150.169 30.5551 149.288C30.1495 149.017 29.8115 148.882 29.4735 148.746C29.1355 148.611 28.8651 148.475 28.6623 148.34C28.4595 148.272 28.2567 148.204 28.1891 148.136C28.0539 148.069 27.9863 148.069 28.0539 148.069C28.0539 148.069 29.0679 148.34 30.6903 149.221C31.5015 149.627 32.5155 150.305 33.5295 151.186C34.5435 152.067 35.5575 153.219 36.5715 154.574C37.5856 155.93 38.5996 157.556 39.6812 159.25C40.7628 160.944 41.912 162.774 43.0612 164.807C45.3596 168.737 47.658 173.345 50.1593 178.157L49.9565 178.089C52.8633 176.801 55.8377 175.514 58.8797 174.226C62.1922 172.803 65.3694 171.38 68.479 170.093L68.5466 170.025L68.6142 170.093C70.5071 171.245 72.1295 172.668 73.4139 174.226C74.0223 175.04 74.5631 175.92 74.9687 176.801C75.3743 177.75 75.5095 178.699 75.5095 179.648V179.715L75.4419 179.783C69.5606 184.323 64.6258 188.186 61.1106 190.897C59.353 192.252 58.0009 193.269 57.0545 194.014C56.5813 194.353 56.2433 194.624 55.9729 194.827C55.8377 194.895 55.7701 194.963 55.7025 195.03C55.5673 194.895 55.4997 194.895 55.4997 194.895Z" fill="#263238"/>
<path d="M48.8073 183.714C48.7397 183.646 49.2129 182.426 49.4833 180.732C49.7537 179.105 49.7537 177.682 49.8889 177.682C49.9565 177.682 50.1593 179.105 49.8889 180.8C49.5509 182.494 48.8749 183.714 48.8073 183.714Z" fill="#263238"/>
<path d="M150.547 236.097L160.214 248.227C160.214 248.227 175.829 242.467 177.79 244.5L154.941 264.152L139.055 245.787L150.547 236.097Z" fill="#21357C"/>
<g opacity="0.6">
<path d="M152.304 253.377C151.966 253.851 152.102 254.665 152.575 255.003C153.048 255.342 153.859 255.274 154.197 254.732C154.535 254.258 154.4 253.309 153.927 253.038C153.386 252.767 152.507 252.903 152.304 253.513" fill="white"/>
</g>
<g opacity="0.6">
<path d="M155.008 264.22L153.454 262.322L175.965 244.161C175.965 244.161 177.384 243.754 177.857 244.567L155.008 264.22Z" fill="white"/>
</g>
<path d="M160.551 247.82C160.619 247.956 160.146 248.498 159.875 249.311C159.605 250.124 159.74 250.87 159.605 250.937C159.47 251.005 159.064 250.192 159.402 249.176C159.673 248.159 160.484 247.752 160.551 247.82Z" fill="#263238"/>
<path d="M163.796 246.804C163.932 246.871 163.594 247.481 163.594 248.295C163.594 249.108 163.932 249.718 163.796 249.785C163.729 249.921 163.053 249.311 163.053 248.295C163.053 247.278 163.661 246.668 163.796 246.804Z" fill="#263238"/>
<path d="M167.582 248.498C167.514 248.633 166.838 248.159 166.636 247.346C166.365 246.465 166.703 245.787 166.838 245.855C166.974 245.923 166.906 246.533 167.109 247.21C167.312 247.888 167.717 248.362 167.582 248.498Z" fill="#263238"/>
<path d="M157.983 245.313C158.05 245.448 157.374 245.719 156.766 246.329C156.158 246.871 155.82 247.549 155.684 247.481C155.549 247.481 155.684 246.6 156.36 245.923C157.172 245.313 157.983 245.177 157.983 245.313Z" fill="#263238"/>
<g opacity="0.3">
<path d="M152.507 238.536L154.197 240.705L142.908 250.26L141.218 248.362L152.507 238.536Z" fill="black"/>
</g>
<path d="M156.023 242.941C156.09 243.009 155.685 243.415 154.873 243.89C154.468 244.161 153.927 244.364 153.386 244.567C153.116 244.635 152.778 244.703 152.44 244.771C152.305 244.771 152.102 244.838 151.831 244.771C151.629 244.771 151.291 244.5 151.291 244.229C151.291 243.958 151.426 243.686 151.561 243.551C151.696 243.415 151.899 243.348 152.034 243.212C152.372 243.077 152.643 242.941 152.981 242.873C153.589 242.67 154.13 242.67 154.603 242.67C155.549 242.738 156.09 242.941 156.09 243.009C156.09 243.077 155.482 242.941 154.603 243.009C154.13 243.009 153.657 243.144 153.116 243.28C152.845 243.348 152.575 243.483 152.305 243.619C152.034 243.754 151.831 243.958 151.831 244.093C151.831 244.161 151.831 244.161 151.967 244.229C152.102 244.229 152.237 244.229 152.372 244.229C152.71 244.161 152.981 244.093 153.251 244.025C153.792 243.89 154.333 243.686 154.738 243.483C155.482 243.212 155.955 242.873 156.023 242.941Z" fill="#263238"/>
<path d="M156.022 243.212C156.022 243.28 155.414 243.077 154.738 242.331C154.4 241.992 154.062 241.518 153.792 240.908C153.656 240.637 153.589 240.298 153.454 239.959C153.386 239.621 153.318 239.146 153.656 238.74C153.859 238.536 154.197 238.536 154.4 238.672C154.603 238.74 154.738 238.875 154.873 239.011C155.144 239.214 155.346 239.485 155.549 239.756C155.887 240.298 156.022 240.908 156.09 241.382C156.158 242.331 155.82 242.873 155.752 242.873C155.684 242.873 155.887 242.331 155.752 241.45C155.684 241.044 155.482 240.501 155.211 240.027C155.076 239.824 154.873 239.553 154.603 239.349C154.332 239.146 154.13 239.011 154.062 239.146C153.927 239.214 153.927 239.621 153.994 239.892C154.062 240.23 154.13 240.501 154.265 240.773C154.468 241.315 154.738 241.789 155.008 242.128C155.549 242.805 156.022 243.144 156.022 243.212Z" fill="#263238"/>
<path d="M140.068 273.639L139.46 289.564C139.46 289.564 155.414 295.527 155.549 298.441L124.723 298.374L124.655 273.571L140.068 273.639Z" fill="#21357C"/>
<g opacity="0.6">
<path d="M129.928 288.209C129.32 288.344 128.914 289.022 129.049 289.632C129.185 290.242 129.861 290.648 130.469 290.513C131.078 290.377 131.618 289.564 131.416 288.954C131.213 288.344 130.402 287.938 129.861 288.209" fill="white"/>
</g>
<g opacity="0.6">
<path d="M124.723 298.374L124.79 295.866L154.332 296.883C154.332 296.883 155.684 297.493 155.549 298.441L124.723 298.374Z" fill="white"/>
</g>
<path d="M139.933 289.361C139.933 289.496 139.189 289.564 138.446 290.038C137.702 290.513 137.297 291.123 137.161 291.123C137.026 291.123 137.229 290.174 138.175 289.632C139.054 289.09 139.933 289.225 139.933 289.361Z" fill="#263238"/>
<path d="M143.178 290.716C143.245 290.852 142.569 291.123 142.029 291.733C141.488 292.342 141.353 293.02 141.217 293.02C141.082 293.02 140.947 292.139 141.623 291.394C142.299 290.648 143.178 290.581 143.178 290.716Z" fill="#263238"/>
<path d="M145.003 294.579C144.868 294.579 144.665 293.833 145.071 293.02C145.476 292.207 146.152 291.868 146.22 292.004C146.287 292.139 145.814 292.546 145.544 293.223C145.206 293.969 145.138 294.579 145.003 294.579Z" fill="#263238"/>
<path d="M139.663 285.769C139.595 285.905 138.919 285.701 138.04 285.769C137.161 285.837 136.553 286.108 136.418 285.972C136.35 285.837 136.959 285.295 137.973 285.227C139.054 285.159 139.73 285.634 139.663 285.769Z" fill="#263238"/>
<g opacity="0.3">
<path d="M139.933 276.756L139.798 279.602L124.655 279.467V276.892L139.933 276.756Z" fill="black"/>
</g>
<path d="M139.73 282.516C139.73 282.584 139.122 282.652 138.175 282.516C137.702 282.449 137.161 282.245 136.553 282.042C136.282 281.906 135.944 281.771 135.674 281.568C135.539 281.5 135.336 281.364 135.201 281.229C135.066 281.093 134.93 280.687 135.133 280.416C135.268 280.212 135.539 280.077 135.809 280.077C136.012 280.077 136.215 280.145 136.418 280.145C136.756 280.212 137.094 280.348 137.364 280.483C137.972 280.754 138.446 281.093 138.784 281.432C139.527 282.11 139.73 282.652 139.662 282.72C139.595 282.787 139.257 282.313 138.513 281.771C138.175 281.5 137.702 281.229 137.161 280.958C136.891 280.822 136.62 280.754 136.282 280.687C135.944 280.619 135.674 280.619 135.606 280.754C135.606 280.822 135.539 280.822 135.606 280.958C135.674 281.026 135.809 281.161 135.944 281.229C136.215 281.432 136.485 281.568 136.756 281.703C137.296 281.974 137.837 282.178 138.243 282.313C139.122 282.381 139.73 282.449 139.73 282.516Z" fill="#263238"/>
<path d="M139.527 282.72C139.46 282.72 139.189 282.178 139.122 281.229C139.122 280.754 139.122 280.145 139.324 279.535C139.392 279.196 139.527 278.925 139.73 278.586C139.933 278.247 140.136 277.841 140.744 277.773C141.082 277.773 141.285 277.976 141.42 278.179C141.555 278.383 141.555 278.586 141.555 278.721C141.623 279.06 141.623 279.467 141.555 279.738C141.488 280.416 141.217 280.958 140.879 281.364C140.271 282.178 139.662 282.313 139.662 282.313C139.595 282.245 140.136 281.974 140.609 281.161C140.812 280.754 141.014 280.28 141.082 279.738C141.082 279.467 141.082 279.128 141.082 278.857C141.014 278.518 140.879 278.247 140.812 278.315C140.676 278.315 140.406 278.586 140.271 278.789C140.136 279.06 140 279.331 139.865 279.602C139.662 280.145 139.595 280.687 139.595 281.161C139.46 282.178 139.595 282.72 139.527 282.72Z" fill="#263238"/>
<path d="M124.385 198.351L154.941 239.011L140.609 251.276L125.94 232.031L124.385 198.351Z" fill="#263238"/>
<path d="M59.8267 200.316C59.8267 200.316 108.905 185.34 113.366 185.543C117.828 185.747 126.413 202.01 126.413 202.01L112.623 201.536C109.108 210.21 102.55 219.155 95.1818 228.168L66.9923 226.88L59.8267 200.316Z" fill="#263238"/>
<path d="M88.6864 192.047C94.9495 190.181 100.001 188.581 99.9689 188.473C99.937 188.366 94.8339 189.791 88.5708 191.657C82.3077 193.523 77.2563 195.123 77.2883 195.231C77.3202 195.338 82.4233 193.913 88.6864 192.047Z" fill="#263238"/>
<path d="M111.338 201.197H125.129C132.024 201.197 138.108 205.534 140.406 212.04C141.488 215.089 141.961 218.342 141.826 221.595L140.744 277.773H122.222L121.884 259.815L119.518 225.661L103.429 226.338L94.3027 225.796L111.338 201.197Z" fill="#263238"/>
<path d="M111.744 200.926C111.744 200.926 111.676 201.333 111.474 202.146C111.271 202.891 110.933 203.976 110.527 205.331C110.054 206.618 109.378 208.177 108.499 209.803C107.62 211.43 106.471 213.124 105.119 214.818C102.415 218.139 99.6434 220.782 97.6154 222.747C96.669 223.696 95.8578 224.441 95.2494 225.051C94.7086 225.593 94.3706 225.864 94.3706 225.864C94.3706 225.864 94.641 225.525 95.1818 224.983C95.7226 224.441 96.5338 223.628 97.4802 222.611C99.4406 220.646 102.212 217.935 104.849 214.615C107.485 211.294 109.31 207.838 110.324 205.263C110.798 203.976 111.203 202.891 111.406 202.146C111.609 201.333 111.744 200.926 111.744 200.926Z" fill="#455A64"/>
<path d="M128.576 201.604C128.576 201.672 127.63 201.536 126.075 201.468C124.52 201.4 122.425 201.333 120.059 201.333C117.693 201.4 115.597 201.536 114.042 201.604C112.487 201.739 111.541 201.807 111.541 201.739C111.541 201.739 111.744 201.672 112.217 201.604C112.623 201.536 113.299 201.468 114.042 201.4C115.597 201.265 117.693 201.062 120.059 200.994C122.425 200.926 124.588 201.062 126.143 201.197C126.886 201.265 127.562 201.333 127.968 201.4C128.374 201.536 128.576 201.604 128.576 201.604Z" fill="#455A64"/>
<path d="M122.087 267.54C122.087 267.54 122.087 267.405 122.019 267.066C122.019 266.727 121.952 266.253 121.952 265.71C121.884 264.491 121.816 262.796 121.749 260.763C121.546 256.562 121.343 250.802 120.938 244.432C120.532 238.062 120.059 232.302 119.721 228.168C119.586 226.135 119.45 224.441 119.315 223.221C119.248 222.679 119.248 222.205 119.248 221.866C119.248 221.527 119.248 221.391 119.248 221.391C119.248 221.391 119.315 221.527 119.315 221.866C119.383 222.205 119.383 222.679 119.45 223.221C119.586 224.441 119.721 226.067 119.991 228.168C120.397 232.302 120.938 238.062 121.276 244.432C121.681 250.802 121.884 256.562 122.019 260.763C122.087 262.796 122.087 264.491 122.154 265.71C122.154 266.253 122.154 266.727 122.154 267.066C122.087 267.337 122.087 267.54 122.087 267.54Z" fill="#263238"/>
<path d="M141.826 219.426C141.894 219.426 141.826 232.302 141.691 248.159C141.488 264.016 141.286 276.892 141.218 276.892C141.15 276.892 141.218 264.016 141.353 248.159C141.488 232.302 141.759 219.426 141.826 219.426Z" fill="#455A64"/>
<path d="M126.684 217.326C126.684 217.461 124.791 217.935 122.695 219.223C120.6 220.51 119.315 222.001 119.248 221.934C119.248 221.934 119.518 221.459 120.059 220.917C120.6 220.307 121.478 219.63 122.492 218.952C123.574 218.274 124.588 217.868 125.332 217.664C126.21 217.393 126.684 217.326 126.684 217.326Z" fill="#263238"/>
<g opacity="0.3">
<path d="M94.3706 225.796C98.0886 226.474 102.212 225.322 105.457 223.357C108.634 221.324 111 218.139 111.947 214.547C112.352 212.921 112.488 211.227 112.893 209.6C113.299 207.974 114.042 206.347 115.394 205.331C116.949 204.179 120.802 203.433 121.952 201.875C121.952 201.672 117.355 202.146 115.868 202.281C114.178 202.349 111.406 202.824 111.474 202.62C111.474 202.62 110.324 206.551 109.851 207.432C106.404 213.124 99.1026 221.595 94.3706 225.796Z" fill="black"/>
</g>
<path d="M17.8467 265.575L23.0519 299.797H28.2572L25.6884 265.71L17.8467 265.575Z" fill="#263238"/>
<path d="M109.648 265.71V299.797H115.124L117.152 265.575L109.648 265.71Z" fill="#263238"/>
<path d="M16.9677 159.928C16.9677 159.928 9.66686 160.199 7.43604 163.316C3.5152 168.737 5.67842 173.413 5.47562 175.04C5.27282 176.666 17.9141 265.643 17.9141 265.643H23.1194L117.219 266.524L121.681 255.478L119.518 225.728L94.3704 225.864C94.3704 225.864 84.0951 196.25 75.0367 194.217C68.9526 192.862 54.6213 193.336 45.9684 193.811C41.6419 194.014 37.5859 191.913 35.2199 188.322L16.9677 159.928Z" fill="#455A64"/>
<path d="M100.319 262.119C100.319 262.119 99.7783 262.187 98.8319 262.254C97.8179 262.254 96.3307 262.322 94.4378 262.322C90.6522 262.39 85.109 262.39 78.2137 262.39C64.4232 262.39 45.157 262.254 23.4572 262.051H23.322V261.916C22.9164 260.018 22.5108 258.121 22.1052 256.155C21.6996 254.19 21.294 252.225 20.8884 250.192C16.1563 226.067 13.3847 203.908 11.8975 187.915C11.1539 179.919 10.6807 173.413 10.4103 168.873C10.2751 166.637 10.2075 164.875 10.1399 163.723C10.1399 163.113 10.0723 162.706 10.0723 162.367C10.0723 162.096 10.0723 161.893 10.0723 161.893C10.0723 161.893 10.0723 162.028 10.1399 162.367C10.1399 162.706 10.2075 163.113 10.2075 163.723C10.2751 164.942 10.4103 166.637 10.5455 168.873C10.8835 173.345 11.3567 179.851 12.1679 187.847C13.7227 203.908 16.4943 226 21.2264 250.124C21.632 252.089 22.0376 254.122 22.4432 256.088C22.8488 258.053 23.2544 259.95 23.66 261.848L23.5248 261.712C45.2922 261.848 64.4908 262.051 78.2813 262.119C85.1766 262.119 90.7198 262.119 94.5054 262.187C96.3983 262.187 97.8855 262.187 98.8995 262.187C99.3727 262.187 99.7783 262.119 100.049 262.119C100.184 262.119 100.319 262.119 100.319 262.119Z" fill="#263238"/>
<path d="M99.3053 266.32C99.3053 266.32 99.3053 266.185 99.3729 265.914C99.4405 265.575 99.5081 265.236 99.5757 264.694C99.6433 264.152 99.7785 263.542 99.8461 262.796C99.9137 262.051 100.049 261.238 100.117 260.289C100.184 259.34 100.319 258.324 100.319 257.24C100.387 256.155 100.387 254.936 100.387 253.716C100.387 251.208 100.252 248.498 99.9137 245.652C99.5757 242.806 99.1025 240.095 98.4941 237.655C97.9533 235.216 97.3449 233.047 96.7365 231.285C96.4661 230.404 96.1957 229.591 95.9253 228.846C95.6549 228.168 95.4521 227.558 95.2493 227.016C95.0465 226.542 94.9113 226.203 94.8437 225.864C94.7761 225.593 94.7085 225.457 94.7085 225.457C94.7085 225.457 94.7761 225.593 94.9113 225.864C95.0465 226.135 95.1817 226.542 95.3845 226.948C95.5873 227.423 95.8577 228.033 96.1281 228.71C96.3985 229.388 96.7365 230.201 97.0069 231.082C97.6153 232.844 98.2913 235.012 98.8321 237.452C99.3729 239.892 99.9137 242.602 100.252 245.448C100.59 248.295 100.725 251.073 100.725 253.58C100.725 254.8 100.657 256.02 100.59 257.104C100.522 258.188 100.455 259.273 100.319 260.154C100.252 261.102 100.117 261.916 99.9813 262.661C99.9137 263.406 99.7785 264.016 99.6433 264.558C99.5757 265.033 99.4405 265.439 99.3729 265.778C99.3729 266.185 99.3729 266.32 99.3053 266.32Z" fill="#263238"/>
<path d="M30.4204 202.553C30.4204 202.553 30.5556 202.417 30.826 202.214C31.0964 202.01 31.502 201.672 31.9752 201.333C32.2456 201.129 32.516 200.926 32.7864 200.723C33.1244 200.52 33.4624 200.316 33.868 200.113C34.6116 199.639 35.4905 199.096 36.5045 198.622C36.9777 198.351 37.5185 198.148 38.0593 197.877C38.6001 197.606 39.2085 197.402 39.8169 197.131C40.4253 196.928 41.0337 196.589 41.7097 196.386C42.3857 196.183 43.0617 195.979 43.7377 195.708C46.577 194.895 49.6866 194.15 53.0666 193.743C56.4466 193.336 59.6239 193.133 62.5983 193.133C64.0855 193.133 65.4375 193.201 66.7895 193.269C68.074 193.404 69.2908 193.472 70.3724 193.607C72.6032 193.878 74.3608 194.285 75.51 194.556C76.0508 194.692 76.524 194.827 76.862 194.963C77.2 195.03 77.3352 195.098 77.3352 195.098C77.3352 195.098 77.1324 195.098 76.862 195.03C76.524 194.963 76.0508 194.827 75.4424 194.692C74.2256 194.421 72.468 194.082 70.3048 193.878C69.2232 193.743 68.0064 193.675 66.7219 193.54C65.4375 193.472 64.0179 193.404 62.5983 193.404C59.6915 193.404 56.4466 193.607 53.1342 194.014C49.7542 194.421 46.6446 195.098 43.8729 195.911C43.1969 196.115 42.5209 196.318 41.8449 196.521C41.1689 196.725 40.5605 196.996 39.9521 197.199C39.3437 197.47 38.7353 197.606 38.1945 197.877C37.6537 198.148 37.1129 198.351 36.6397 198.622C35.6257 199.029 34.8144 199.571 34.0032 200.045C33.5976 200.248 33.2596 200.452 32.9216 200.655C32.5836 200.858 32.3132 201.062 32.1104 201.265C31.6372 201.604 31.2316 201.875 30.9612 202.078C30.5556 202.417 30.4204 202.553 30.4204 202.553Z" fill="#263238"/>
<path d="M86.326 207.364C86.326 207.364 86.326 207.432 86.2585 207.567C86.1908 207.703 86.1233 207.906 86.0556 208.177C85.7852 208.719 85.3796 209.532 84.636 210.413C83.8924 211.294 82.8108 212.175 81.3912 212.988C80.6476 213.327 79.904 213.734 79.0252 214.005C78.1464 214.276 77.2 214.479 76.186 214.615C74.1579 214.818 71.9271 214.683 69.5611 214.208C67.1951 213.802 64.7615 213.124 62.125 212.446C59.5562 211.836 56.7846 211.294 53.8778 211.362C52.4581 211.362 50.9709 211.565 49.5513 212.04C48.1317 212.446 46.7797 213.192 45.5629 214.073C43.0617 215.902 41.2364 218.342 39.6816 220.782C38.1268 223.221 36.91 225.796 35.6256 228.168C34.3412 230.54 32.9892 232.708 31.3667 234.538C29.8119 236.368 28.0543 237.791 26.1615 238.672C24.3363 239.553 22.4435 239.892 20.821 239.959C19.1986 239.959 17.779 239.688 16.765 239.214C16.2242 239.011 15.8186 238.74 15.413 238.468C15.075 238.197 14.737 237.994 14.5342 237.791C14.3314 237.588 14.1962 237.452 14.061 237.316C13.9258 237.181 13.9258 237.113 13.9258 237.113C13.9258 237.113 13.9934 237.181 14.1286 237.249C14.2638 237.384 14.399 237.52 14.6018 237.723C14.8046 237.926 15.1426 238.13 15.4806 238.401C15.8862 238.604 16.2918 238.875 16.8326 239.078C17.8466 239.485 19.2662 239.824 20.821 239.756C22.4435 239.688 24.2011 239.349 26.0263 238.468C27.8515 237.588 29.6091 236.164 31.0963 234.403C32.6512 232.573 34.0032 230.404 35.2876 228.1C36.572 225.728 37.7888 223.221 39.3436 220.714C40.8984 218.274 42.7913 215.767 45.2925 213.937C46.5769 212.988 47.9289 212.311 49.4161 211.836C50.9033 211.362 52.3905 211.159 53.8102 211.159C56.7846 211.091 59.5562 211.633 62.125 212.311C64.7615 212.921 67.1951 213.666 69.4935 214.073C71.7919 214.479 74.0227 214.683 76.0508 214.479C77.0648 214.412 78.0112 214.208 78.89 213.937C79.7688 213.666 80.5124 213.327 81.256 212.988C82.6756 212.243 83.7572 211.362 84.5008 210.481C85.9881 208.584 86.2585 207.296 86.326 207.364Z" fill="white"/>
<path d="M120.667 250.666C120.667 250.666 120.6 250.666 120.397 250.734C120.194 250.802 119.924 250.802 119.518 250.937C119.112 251.005 118.707 251.208 118.166 251.344C117.896 251.412 117.625 251.615 117.355 251.683C117.084 251.818 116.746 251.954 116.408 252.157C115.124 252.903 113.637 253.987 112.082 255.41C110.527 256.833 108.837 258.595 106.809 260.289C105.795 261.102 104.646 261.983 103.361 262.661C102.753 263 102.009 263.271 101.333 263.542C100.995 263.61 100.59 263.745 100.184 263.813C99.7785 263.948 99.4405 263.949 99.0349 264.016C97.4801 264.22 95.7901 264.152 94.1677 263.745C92.5453 263.406 90.9229 262.729 89.3005 261.916C86.1232 260.289 83.1488 257.985 80.3096 255.41C77.4703 252.835 74.5635 250.124 71.1835 247.888C69.4935 246.804 67.7358 245.855 65.843 245.245C63.9502 244.635 62.0574 244.364 60.1646 244.432C58.2718 244.567 56.4465 245.042 54.7565 245.719C53.0665 246.397 51.5117 247.278 50.0245 248.227C47.0501 250.056 44.346 252.089 41.5744 253.58C38.8028 255.071 36.0312 256.088 33.4623 256.698C28.2571 257.985 23.863 257.85 20.8886 257.443C17.9142 257.036 16.3594 256.494 16.3594 256.494C16.3594 256.494 16.4946 256.494 16.6298 256.562C16.8326 256.63 17.103 256.698 17.5086 256.765C18.2522 256.901 19.4014 257.104 20.8886 257.307C23.863 257.646 28.1895 257.782 33.3947 256.426C35.9636 255.817 38.7352 254.732 41.4392 253.241C44.1432 251.751 46.9149 249.718 49.8893 247.888C51.3765 246.939 52.9989 246.058 54.6889 245.381C56.3789 244.703 58.2718 244.161 60.2322 244.025C62.1926 243.89 64.153 244.229 66.0458 244.838C67.9386 245.448 69.7639 246.397 71.4539 247.549C74.9015 249.785 77.8083 252.564 80.58 255.139C83.4192 257.714 86.326 260.018 89.4356 261.577C90.9905 262.39 92.6129 263 94.2353 263.339C95.8577 263.677 97.4801 263.813 99.0349 263.61C99.4405 263.542 99.7785 263.542 100.184 263.406C100.522 263.339 100.928 263.203 101.266 263.135C101.942 262.864 102.685 262.661 103.294 262.254C104.578 261.577 105.727 260.764 106.741 259.95C108.769 258.256 110.459 256.562 112.082 255.139C113.637 253.716 115.124 252.632 116.476 251.886C116.814 251.683 117.152 251.547 117.422 251.412C117.76 251.276 118.031 251.141 118.301 251.073C118.842 250.937 119.315 250.734 119.721 250.666C120.126 250.599 120.397 250.531 120.6 250.531C120.6 250.666 120.667 250.666 120.667 250.666Z" fill="white"/>
<path d="M26.6348 176.666C26.6348 176.666 26.6348 177.005 26.432 177.547C26.2968 178.089 26.0264 178.834 25.5532 179.783C24.6068 181.545 22.7816 183.849 20.0099 185.34C17.2383 186.763 14.3315 186.966 12.3035 186.695C11.2895 186.56 10.4783 186.356 10.0051 186.153C9.46425 185.95 9.19385 185.814 9.19385 185.814C9.19385 185.747 10.3431 186.221 12.3711 186.424C14.3315 186.628 17.1707 186.356 19.8747 185.001C22.5788 183.578 24.404 181.41 25.3504 179.648C26.2968 177.886 26.5672 176.666 26.6348 176.666Z" fill="white"/>
<path d="M238.157 131.737H110.391C107.823 131.737 105.727 129.636 105.727 127.061V92.365C105.727 89.7899 107.823 87.6892 110.391 87.6892H238.224C240.793 87.6892 242.889 89.7899 242.889 92.365V127.061C242.821 129.636 240.725 131.737 238.157 131.737Z" fill="white"/>
<path d="M238.157 131.737C238.157 131.737 238.495 131.737 239.036 131.602C239.644 131.466 240.523 131.195 241.334 130.382C241.74 129.975 242.145 129.433 242.416 128.755C242.686 128.078 242.754 127.265 242.754 126.451C242.754 124.689 242.754 122.724 242.754 120.488C242.754 116.015 242.754 110.526 242.754 104.089C242.754 100.904 242.754 97.5152 242.754 93.8559C242.754 92.9749 242.821 92.0262 242.618 91.1452C242.416 90.2643 241.875 89.4511 241.199 88.8412C240.523 88.2313 239.576 87.8247 238.63 87.7569C237.684 87.6892 236.67 87.7569 235.656 87.7569C203.613 87.7569 159.334 87.7569 110.392 87.8247C109.648 87.8247 108.904 88.028 108.296 88.3668C107.62 88.7057 107.079 89.2478 106.674 89.7899C106.268 90.3998 105.998 91.0775 105.93 91.8229C105.862 92.5683 105.93 93.3138 105.93 94.0592C105.93 97.1086 105.93 100.09 105.93 103.072C105.93 109.035 105.93 114.931 105.93 120.691C105.93 122.114 105.93 123.605 105.93 125.028C105.93 125.774 105.93 126.451 105.93 127.197C105.93 127.874 106.133 128.552 106.471 129.162C107.147 130.382 108.296 131.263 109.648 131.466C110.324 131.602 111 131.534 111.676 131.534C112.352 131.534 113.096 131.534 113.772 131.534C119.315 131.534 124.723 131.534 130.063 131.534C151.222 131.534 170.353 131.534 186.375 131.602C202.396 131.602 215.375 131.669 224.366 131.669C228.828 131.669 232.343 131.669 234.709 131.669C235.858 131.669 236.805 131.669 237.413 131.669C237.819 131.669 238.157 131.737 238.157 131.737C238.157 131.737 237.819 131.737 237.21 131.737C236.602 131.737 235.723 131.737 234.506 131.737C232.14 131.737 228.693 131.737 224.163 131.737C215.173 131.737 202.193 131.737 186.172 131.805C170.151 131.805 151.087 131.805 129.861 131.873C124.588 131.873 119.112 131.873 113.569 131.873C112.893 131.873 112.149 131.873 111.473 131.873C110.797 131.873 110.054 131.94 109.378 131.805C107.958 131.534 106.674 130.585 105.93 129.297C105.592 128.62 105.389 127.942 105.389 127.197C105.389 126.451 105.389 125.774 105.389 125.028C105.389 123.605 105.389 122.182 105.389 120.691C105.389 114.931 105.389 109.035 105.389 103.072C105.389 100.09 105.389 97.1086 105.389 94.0592C105.389 93.3138 105.389 92.5683 105.389 91.7551C105.457 90.9419 105.727 90.1965 106.2 89.5866C106.674 88.909 107.282 88.3668 107.958 88.028C108.634 87.6892 109.445 87.4859 110.256 87.4859C159.132 87.4859 203.41 87.5536 235.52 87.5536C236.534 87.5536 237.481 87.5536 238.495 87.5536C239.509 87.6214 240.455 88.028 241.199 88.7057C241.942 89.3156 242.483 90.1965 242.686 91.1452C242.821 91.6196 242.821 92.094 242.821 92.5683C242.821 93.0427 242.821 93.4493 242.821 93.9236C242.821 97.5152 242.821 100.971 242.821 104.156C242.821 110.526 242.821 116.015 242.821 120.556C242.821 122.792 242.821 124.825 242.821 126.519C242.821 127.4 242.754 128.213 242.483 128.891C242.213 129.569 241.807 130.111 241.402 130.517C240.523 131.33 239.644 131.602 239.036 131.737C238.765 131.805 238.495 131.805 238.36 131.805C238.224 131.737 238.157 131.737 238.157 131.737Z" fill="#263238"/>
<path d="M232.952 96.7021C232.884 96.7021 232.884 96.7021 232.816 96.6343C232.749 96.5665 232.749 96.431 232.816 96.3632L236.196 93.1105C236.264 93.0427 236.399 93.0427 236.467 93.1105C236.534 93.1782 236.534 93.3138 236.467 93.3815L233.087 96.6343C233.087 96.6343 233.019 96.7021 232.952 96.7021Z" fill="#263238"/>
<path d="M236.332 96.7021C236.264 96.7021 236.264 96.7021 236.196 96.6343L232.816 93.3815C232.749 93.3138 232.749 93.1782 232.816 93.1105C232.884 93.0427 233.019 93.0427 233.087 93.1105L236.467 96.3632C236.534 96.431 236.534 96.5665 236.467 96.6343C236.399 96.7021 236.399 96.7021 236.332 96.7021Z" fill="#263238"/>
<path d="M135.201 118.252L133.849 116.286C133.038 115.134 132.565 113.711 132.565 112.22V107.816C132.565 104.224 129.928 101.242 126.481 100.7V98.5995C126.481 98.0574 126.075 97.6508 125.534 97.6508C124.993 97.6508 124.588 98.0574 124.588 98.5995V100.7C121.005 101.107 118.233 104.156 118.233 107.816V112.356C118.233 113.915 117.693 115.473 116.746 116.693L115.529 118.184L135.201 118.252Z" fill="#2ADEF5"/>
<path d="M124.385 121.437C125.466 121.911 126.751 121.64 127.63 120.894C127.968 120.556 128.306 120.149 128.441 119.675L122.695 119.607C122.965 120.42 123.574 121.098 124.385 121.437Z" fill="#2ADEF5"/>
<path d="M212.401 102.53C212.401 102.598 197.056 102.733 178.06 102.733C159.132 102.733 143.719 102.665 143.719 102.53C143.719 102.394 159.064 102.327 178.06 102.327C197.056 102.327 212.401 102.394 212.401 102.53Z" fill="#263238"/>
<path d="M228.557 110.865C228.557 110.933 209.562 111.068 186.172 111.068C162.714 111.068 143.786 111.001 143.786 110.865C143.786 110.797 162.782 110.662 186.172 110.662C209.629 110.662 228.557 110.73 228.557 110.865Z" fill="#E0E0E0"/>
<path d="M228.557 115.812C228.557 115.88 209.562 116.015 186.172 116.015C162.714 116.015 143.786 115.948 143.786 115.812C143.786 115.744 162.782 115.609 186.172 115.609C209.629 115.677 228.557 115.744 228.557 115.812Z" fill="#E0E0E0"/>
<path d="M216.186 168.873H131.348C128.779 168.873 126.683 166.772 126.683 164.197V143.325C126.683 140.75 128.779 138.649 131.348 138.649H216.186C218.755 138.649 220.851 140.75 220.851 143.325V164.197C220.918 166.772 218.823 168.873 216.186 168.873Z" fill="#FAFAFA"/>
<path d="M216.187 168.873C216.187 168.873 216.389 168.873 216.795 168.805C217.201 168.737 217.809 168.602 218.485 168.195C219.161 167.789 219.972 167.111 220.378 166.027C220.581 165.485 220.783 164.875 220.783 164.197C220.783 163.519 220.783 162.774 220.783 162.028C220.783 158.979 220.783 155.252 220.783 150.915C220.783 148.746 220.783 146.442 220.783 143.935C220.783 143.325 220.783 142.715 220.648 142.105C220.513 141.495 220.243 140.953 219.837 140.411C219.093 139.395 217.809 138.717 216.525 138.649C194.757 138.649 164.607 138.649 131.348 138.717C130.334 138.717 129.32 139.056 128.576 139.666C127.765 140.276 127.224 141.157 126.954 142.105C126.819 142.58 126.819 143.054 126.819 143.596V145.155C126.819 146.171 126.819 147.188 126.819 148.204C126.819 152.27 126.819 156.268 126.819 160.199C126.819 161.215 126.819 162.164 126.819 163.113C126.819 163.587 126.819 164.061 126.819 164.536C126.886 165.01 126.954 165.485 127.157 165.891C127.562 166.772 128.171 167.45 128.914 167.992C129.725 168.466 130.604 168.737 131.551 168.67C135.336 168.67 138.987 168.67 142.637 168.67C157.036 168.67 170.015 168.67 180.899 168.737C191.783 168.737 200.638 168.805 206.722 168.805C209.764 168.805 212.131 168.805 213.753 168.805C214.564 168.805 215.173 168.805 215.578 168.805C215.984 168.873 216.187 168.873 216.187 168.873C216.187 168.873 215.984 168.873 215.578 168.873C215.173 168.873 214.564 168.873 213.753 168.873C212.131 168.873 209.764 168.873 206.722 168.873C200.638 168.873 191.783 168.873 180.899 168.941C170.015 168.941 157.036 168.941 142.637 169.008C139.054 169.008 135.336 169.008 131.551 169.008C130.604 169.008 129.59 168.805 128.779 168.263C127.968 167.721 127.292 166.975 126.886 166.027C126.683 165.552 126.548 165.078 126.548 164.604C126.481 164.061 126.548 163.587 126.548 163.113C126.548 162.164 126.548 161.147 126.548 160.199C126.548 156.268 126.548 152.27 126.548 148.204C126.548 147.188 126.548 146.171 126.548 145.155V143.596C126.548 143.122 126.548 142.512 126.683 142.037C126.954 141.021 127.562 140.072 128.441 139.395C129.252 138.717 130.334 138.378 131.415 138.378C164.675 138.378 194.757 138.446 216.592 138.446C218.012 138.514 219.296 139.259 220.107 140.343C220.513 140.885 220.783 141.495 220.986 142.105C221.121 142.715 221.121 143.393 221.121 144.003C221.121 146.442 221.121 148.814 221.121 150.983C221.121 155.32 221.121 159.047 221.121 162.096C221.121 162.842 221.121 163.587 221.121 164.265C221.121 164.942 220.919 165.552 220.716 166.094C220.243 167.179 219.431 167.856 218.755 168.263C218.079 168.67 217.403 168.805 216.998 168.805C216.457 168.873 216.187 168.873 216.187 168.873Z" fill="#263238"/>
<path d="M214.091 144.884C214.023 144.884 214.023 144.884 213.955 144.816C213.888 144.748 213.888 144.613 213.955 144.545L216.254 142.309C216.322 142.241 216.457 142.241 216.524 142.309C216.592 142.376 216.592 142.512 216.524 142.58L214.226 144.816C214.226 144.884 214.158 144.884 214.091 144.884Z" fill="#263238"/>
<path d="M216.456 144.884C216.389 144.884 216.389 144.884 216.321 144.816L214.023 142.58C213.955 142.512 213.955 142.376 214.023 142.309C214.09 142.241 214.226 142.241 214.293 142.309L216.592 144.545C216.659 144.613 216.659 144.748 216.592 144.816C216.524 144.884 216.456 144.884 216.456 144.884Z" fill="#263238"/>
<path d="M146.963 159.657L146.017 158.301C145.476 157.488 145.138 156.539 145.138 155.523V152.473C145.138 150.034 143.313 147.933 140.947 147.594V146.171C140.947 145.832 140.677 145.494 140.271 145.494C139.933 145.494 139.595 145.765 139.595 146.171V147.594C137.161 147.865 135.269 149.966 135.269 152.473V155.591C135.269 156.675 134.931 157.691 134.255 158.572L133.443 159.589L146.963 159.657Z" fill="#455A64"/>
<path d="M139.528 161.825C140.271 162.164 141.15 161.961 141.758 161.419C142.029 161.215 142.232 160.876 142.299 160.538H138.378C138.514 161.147 138.919 161.622 139.528 161.825Z" fill="#455A64"/>
<path d="M199.963 148.814C199.963 148.882 189.417 149.017 176.37 149.017C163.323 149.017 152.777 148.95 152.777 148.814C152.777 148.746 163.323 148.611 176.37 148.611C189.417 148.679 199.963 148.746 199.963 148.814Z" fill="#263238"/>
<path d="M211.116 154.574C211.116 154.642 198.07 154.777 181.981 154.777C165.892 154.777 152.845 154.71 152.845 154.574C152.845 154.506 165.892 154.371 181.981 154.371C198.07 154.371 211.116 154.439 211.116 154.574Z" fill="#E0E0E0"/>
<path d="M211.116 157.963C211.116 158.03 198.07 158.166 181.981 158.166C165.892 158.166 152.845 158.098 152.845 157.963C152.845 157.827 165.892 157.759 181.981 157.759C198.07 157.827 211.116 157.895 211.116 157.963Z" fill="#E0E0E0"/>
<path d="M215.849 203.637H131.686C129.117 203.637 127.021 201.536 127.021 198.961V178.292C127.021 175.717 129.117 173.616 131.686 173.616H215.849C218.418 173.616 220.513 175.717 220.513 178.292V198.961C220.581 201.536 218.418 203.637 215.849 203.637Z" fill="#FAFAFA"/>
<path d="M215.849 203.637C215.849 203.637 216.052 203.637 216.457 203.569C216.863 203.501 217.471 203.366 218.147 202.959C218.823 202.553 219.567 201.875 220.04 200.791C220.243 200.248 220.446 199.639 220.446 198.961C220.446 198.283 220.446 197.606 220.446 196.792C220.446 193.743 220.446 190.084 220.446 185.747C220.446 183.578 220.446 181.274 220.446 178.834C220.446 178.225 220.446 177.615 220.311 177.005C220.175 176.395 219.905 175.853 219.499 175.378C218.756 174.362 217.539 173.684 216.187 173.616C194.555 173.616 164.675 173.616 131.686 173.684C129.658 173.684 127.765 175.107 127.292 177.072C127.157 177.547 127.157 178.021 127.157 178.563V180.054C127.157 181.071 127.157 182.087 127.157 183.104C127.157 187.102 127.157 191.1 127.157 195.03C127.157 195.979 127.157 196.996 127.157 197.944C127.157 198.419 127.157 198.893 127.157 199.368C127.224 199.842 127.292 200.248 127.495 200.723C127.833 201.536 128.509 202.281 129.253 202.756C129.996 203.23 130.943 203.501 131.821 203.433C135.539 203.433 139.257 203.433 142.773 203.433C157.036 203.433 169.948 203.433 180.764 203.501C191.58 203.501 200.301 203.569 206.385 203.569C209.427 203.569 211.725 203.569 213.348 203.569C214.159 203.569 214.767 203.569 215.173 203.569C215.646 203.637 215.849 203.637 215.849 203.637C215.849 203.637 215.646 203.637 215.241 203.637C214.835 203.637 214.227 203.637 213.415 203.637C211.793 203.637 209.494 203.637 206.452 203.637C200.368 203.637 191.648 203.637 180.832 203.705C170.016 203.705 157.172 203.705 142.84 203.772C139.257 203.772 135.607 203.772 131.889 203.772C130.943 203.772 129.929 203.569 129.117 203.027C128.306 202.485 127.63 201.739 127.224 200.791C127.022 200.316 126.886 199.842 126.886 199.368C126.819 198.893 126.886 198.419 126.886 197.877C126.886 196.928 126.886 195.911 126.886 194.963C126.886 191.032 126.886 187.102 126.886 183.036C126.886 182.019 126.886 181.003 126.886 179.986V178.496C126.886 178.021 126.886 177.411 127.089 176.937C127.63 174.836 129.658 173.278 131.821 173.345C164.81 173.345 194.69 173.413 216.322 173.413C217.742 173.481 219.026 174.226 219.77 175.311C220.175 175.853 220.446 176.463 220.581 177.072C220.716 177.682 220.716 178.36 220.716 178.97C220.716 181.41 220.716 183.714 220.716 185.882C220.716 190.219 220.716 193.878 220.716 196.928C220.716 197.673 220.716 198.419 220.716 199.096C220.716 199.774 220.513 200.384 220.311 200.926C219.837 202.01 219.026 202.688 218.35 203.095C217.674 203.501 217.066 203.637 216.66 203.637C216.052 203.705 215.849 203.637 215.849 203.637Z" fill="#263238"/>
<path d="M213.821 179.851C213.753 179.851 213.753 179.851 213.685 179.783C213.618 179.715 213.618 179.58 213.685 179.512L215.984 177.276C216.051 177.208 216.187 177.208 216.254 177.276C216.322 177.344 216.322 177.479 216.254 177.547L213.956 179.783C213.888 179.783 213.888 179.851 213.821 179.851Z" fill="#263238"/>
<path d="M216.119 179.851C216.051 179.851 216.051 179.851 215.984 179.783L213.685 177.547C213.618 177.479 213.618 177.344 213.685 177.276C213.753 177.208 213.888 177.208 213.956 177.276L216.254 179.512C216.322 179.58 216.322 179.715 216.254 179.783C216.187 179.851 216.119 179.851 216.119 179.851Z" fill="#263238"/>
<path d="M147.167 194.488L146.22 193.133C145.68 192.32 145.342 191.371 145.342 190.355V187.373C145.342 184.933 143.516 182.9 141.218 182.562V181.138C141.218 180.8 140.948 180.461 140.542 180.461C140.204 180.461 139.866 180.732 139.866 181.138V182.562C137.432 182.833 135.54 184.933 135.54 187.441V190.558C135.54 191.642 135.202 192.659 134.526 193.472L133.714 194.488H147.167Z" fill="#E0E0E0"/>
<path d="M139.731 196.657C140.475 196.928 141.353 196.792 141.894 196.25C142.165 196.047 142.367 195.708 142.435 195.369H138.514C138.785 195.979 139.19 196.454 139.731 196.657Z" fill="#E0E0E0"/>
<path d="M199.76 183.781C199.76 183.849 189.282 183.985 176.37 183.985C163.459 183.985 152.98 183.917 152.98 183.781C152.98 183.646 163.459 183.578 176.37 183.578C189.282 183.578 199.76 183.646 199.76 183.781Z" fill="#263238"/>
<path d="M210.847 189.406C210.847 189.474 197.867 189.609 181.914 189.609C165.96 189.609 152.98 189.541 152.98 189.406C152.98 189.338 165.96 189.203 181.914 189.203C197.867 189.27 210.847 189.338 210.847 189.406Z" fill="#E0E0E0"/>
<path d="M210.847 192.862C210.847 192.93 197.867 193.065 181.914 193.065C165.96 193.065 152.98 192.998 152.98 192.862C152.98 192.794 165.96 192.659 181.914 192.659C197.867 192.659 210.847 192.726 210.847 192.862Z" fill="#E0E0E0"/>
<path d="M285.072 165.146C278.041 168.805 272.701 175.04 268.848 181.952C264.995 188.864 262.493 196.386 260.06 203.908L257.896 242.602C266.009 228.71 272.566 212.379 274.323 196.386C272.498 196.25 270.741 196.047 268.915 195.911C272.566 195.369 275.608 192.726 277.568 189.609C279.529 186.492 280.475 182.9 281.489 179.309C279.258 179.648 277.095 179.986 274.864 180.325C280.002 176.801 283.788 171.245 285.072 165.146Z" fill="#455A64"/>
<path d="M285.072 165.146C278.041 168.805 272.701 175.04 268.848 181.952C264.995 188.864 262.493 196.386 260.06 203.908L257.896 242.602C266.009 228.71 272.566 212.379 274.323 196.386C272.498 196.25 270.741 196.047 268.915 195.911C272.566 195.369 275.608 192.726 277.568 189.609C279.529 186.492 280.475 182.9 281.489 179.309C279.258 179.648 277.095 179.986 274.864 180.325C280.002 176.801 283.788 171.245 285.072 165.146Z" fill="#2ADEF5"/>
<g opacity="0.3">
<path d="M285.072 165.146C278.041 168.805 272.701 175.04 268.848 181.952C264.995 188.864 262.493 196.386 260.06 203.908L257.896 242.602C266.009 228.71 272.566 212.379 274.323 196.386C272.498 196.25 270.741 196.047 268.915 195.911C272.566 195.369 275.608 192.726 277.568 189.609C279.529 186.492 280.475 182.9 281.489 179.309C279.258 179.648 277.095 179.986 274.864 180.325C280.002 176.801 283.788 171.245 285.072 165.146Z" fill="black"/>
</g>
<path d="M256.68 251.683C256.68 251.683 239.036 230.472 239.239 210.21H246.405C246.405 210.21 238.631 205.128 239.239 202.214C239.847 199.368 240.05 188.525 240.05 188.525L246.607 190.151C246.607 190.151 241.74 187.712 241.132 183.781C240.523 179.919 242.551 161.893 242.551 161.893C242.551 161.893 250.528 170.296 252.962 178.834C255.396 187.441 261.818 197.47 259.925 223.628C257.964 249.921 256.68 251.683 256.68 251.683Z" fill="#2ADEF5"/>
<path d="M265.671 253.648C265.671 253.648 284.802 240.84 289.06 224.509L283.314 222.95C283.314 222.95 290.683 220.51 290.818 218.071C290.953 215.631 293.184 206.89 293.184 206.89L287.573 206.754C287.573 206.754 292.035 205.873 293.387 202.891C294.739 199.91 297.037 185.001 297.037 185.001C297.037 185.001 288.79 190.016 284.937 196.386C281.084 202.756 273.715 209.397 269.524 230.879C265.333 252.361 265.671 253.648 265.671 253.648Z" fill="#2ADEF5"/>
<path d="M247.283 180.461C247.283 180.461 247.283 180.529 247.351 180.664C247.418 180.8 247.418 181.071 247.486 181.342C247.621 181.952 247.824 182.765 248.027 183.849C248.297 184.933 248.568 186.289 248.838 187.847C249.176 189.406 249.514 191.168 249.852 193.133C250.596 197.063 251.407 201.739 252.218 207.025C253.029 212.243 253.84 218.003 254.516 224.102C255.192 230.201 255.733 235.961 256.139 241.247C256.544 246.533 256.815 251.276 256.95 255.274C257.018 257.307 257.085 259.069 257.153 260.696C257.22 262.254 257.22 263.677 257.22 264.762C257.22 265.846 257.22 266.727 257.22 267.337C257.22 267.608 257.22 267.811 257.22 268.014C257.22 267.811 257.22 267.608 257.153 267.337C257.153 266.727 257.085 265.846 257.085 264.762C257.085 263.61 257.018 262.254 256.95 260.696C256.882 259.137 256.815 257.307 256.68 255.274C256.477 251.276 256.139 246.533 255.733 241.247C255.328 235.961 254.719 230.201 254.043 224.102C253.367 218.071 252.556 212.243 251.745 207.025C250.934 201.807 250.19 197.063 249.446 193.133C249.108 191.168 248.77 189.406 248.432 187.847C248.162 186.289 247.891 184.933 247.621 183.849C247.418 182.765 247.216 181.952 247.148 181.342C247.08 181.071 247.08 180.867 247.013 180.664C247.351 180.529 247.283 180.461 247.283 180.461Z" fill="#263238"/>
<path d="M254.246 264.626C254.246 264.626 238.09 246.262 233.02 235.08L236.805 233.454C234.034 233.928 231.262 232.708 229.099 230.946C226.935 229.117 225.381 226.813 223.893 224.441L228.896 223.628C224.367 222.34 220.378 219.223 218.012 215.157C223.893 216.106 229.234 219.358 233.628 223.424C237.211 226.677 240.185 230.54 243.092 234.403C244.512 236.3 245.728 238.333 246.742 240.434C249.446 246.126 254.246 257.917 254.246 264.626Z" fill="#2ADEF5"/>
<path d="M289.331 195.776C289.331 195.776 289.331 195.844 289.263 195.979C289.195 196.115 289.128 196.318 288.993 196.521C288.79 196.996 288.452 197.673 287.979 198.554C287.1 200.316 285.883 202.891 284.396 206.076C281.421 212.446 277.501 221.324 273.647 231.353C269.794 241.382 266.684 250.599 264.656 257.307C263.642 260.696 262.764 263.406 262.223 265.304C261.952 266.253 261.75 266.93 261.547 267.472C261.479 267.676 261.412 267.879 261.344 268.014C261.412 267.879 261.412 267.676 261.479 267.472C261.614 266.93 261.817 266.185 262.088 265.304C262.561 263.406 263.372 260.628 264.386 257.307C266.414 250.531 269.456 241.315 273.309 231.285C277.163 221.256 281.151 212.379 284.193 206.009C285.68 202.824 286.965 200.248 287.911 198.554C288.384 197.673 288.722 196.996 288.925 196.521C289.06 196.318 289.128 196.115 289.195 195.979C289.263 195.776 289.331 195.776 289.331 195.776Z" fill="#263238"/>
<path d="M255.598 272.555C255.598 272.555 255.531 272.419 255.531 272.216C255.463 271.945 255.463 271.606 255.396 271.267C255.26 270.386 255.058 269.166 254.787 267.676C254.517 266.185 254.044 264.423 253.57 262.458C253.03 260.492 252.354 258.392 251.542 256.223C250.731 254.055 249.785 252.022 248.974 250.192C248.095 248.362 247.216 246.736 246.472 245.448C245.729 244.093 245.053 243.077 244.579 242.331C244.377 241.992 244.174 241.721 244.039 241.518C243.903 241.315 243.836 241.247 243.903 241.179C243.903 241.179 243.971 241.247 244.106 241.45C244.241 241.653 244.444 241.925 244.715 242.263C245.188 242.941 245.931 244.025 246.675 245.313C247.486 246.6 248.365 248.227 249.312 250.056C250.19 251.886 251.137 253.919 251.948 256.155C252.759 258.324 253.435 260.492 253.976 262.458C254.517 264.423 254.855 266.253 255.125 267.743C255.396 269.234 255.531 270.522 255.666 271.335C255.734 271.742 255.734 272.08 255.734 272.351C255.598 272.419 255.598 272.555 255.598 272.555Z" fill="#263238"/>
<path d="M276.96 268.218H241.537V275.469H276.96V268.218Z" fill="#455A64"/>
<path d="M244.917 275.469L248.771 299.797H270.133L273.715 275.469H244.917Z" fill="#455A64"/>
<path d="M259.857 275.672C268.108 275.672 274.797 275.581 274.797 275.469C274.797 275.356 268.108 275.265 259.857 275.265C251.606 275.265 244.917 275.356 244.917 275.469C244.917 275.581 251.606 275.672 259.857 275.672Z" fill="#263238"/>
<path d="M66.857 95.6178L67.6006 86.876C64.5586 84.843 62.0574 81.9968 60.3674 78.4052C55.6353 68.1726 60.097 56.0425 70.3722 51.2988C80.5799 46.5552 92.6805 51.0278 97.4125 61.3282C102.145 71.5609 97.6829 83.691 87.4076 88.4346C83.1488 90.3998 78.5519 90.7386 74.2931 89.7899L66.857 95.6178Z" fill="white"/>
<path d="M66.8569 95.6178C67.1949 95.3467 69.5609 93.5171 74.3605 89.7899L74.4281 89.7222L74.3605 89.6544L74.2929 89.7899C75.7126 90.1288 77.335 90.3321 79.1602 90.3321C80.9854 90.3321 82.8782 90.061 84.9062 89.4511C85.9203 89.1123 86.9343 88.7734 87.8807 88.2313C88.3539 87.9602 88.8947 87.6892 89.3679 87.4181C89.8411 87.0793 90.3143 86.8082 90.8551 86.4694C92.7479 85.1141 94.5055 83.2844 95.9927 81.1159C97.4124 78.9474 98.494 76.44 99.0348 73.6616C99.5756 70.8832 99.5756 67.9693 98.832 65.0553C98.156 62.1414 96.804 59.363 94.8435 56.9234C92.8831 54.4839 90.3143 52.4509 87.3399 51.0956L86.1907 50.6212C85.7851 50.4857 85.3794 50.3501 85.0414 50.2146C84.6358 50.0791 84.2978 49.9435 83.8922 49.8758L82.6754 49.6047C82.2698 49.5369 81.8642 49.4692 81.4586 49.4014C81.053 49.3336 80.6474 49.3336 80.2418 49.2659C79.8362 49.2659 79.4306 49.2659 79.025 49.2659C78.6194 49.2659 78.2138 49.2659 77.8082 49.2659C74.6309 49.4692 71.5889 50.3501 68.8849 51.841C66.2485 53.3318 63.95 55.297 62.3276 57.6011C60.6376 59.9051 59.4884 62.4802 58.88 65.0553C58.2716 67.6305 58.204 70.2056 58.4744 72.5096C58.8124 74.8814 59.556 77.0499 60.4348 78.9474C61.3812 80.8448 62.5304 82.4034 63.7473 83.7588C64.9641 85.0463 66.2485 86.0628 67.4653 86.876V86.8082C67.0597 92.4328 66.8569 95.1434 66.8569 95.6178C66.9245 95.2112 67.1273 92.4328 67.6681 86.876V86.8082C66.4513 85.995 65.2345 84.9785 64.0176 83.691C62.8008 82.4034 61.6516 80.7771 60.7728 78.9474C59.894 77.0499 59.1504 74.9492 58.8124 72.5774C58.542 70.2056 58.6096 67.6982 59.218 65.1909C59.8264 62.6835 60.9756 60.1084 62.598 57.8722C64.2205 55.5681 66.5189 53.6029 69.0877 52.1798C71.7241 50.7567 74.6985 49.808 77.8758 49.6725C78.2814 49.6047 78.687 49.6725 79.025 49.6725C79.4306 49.6725 79.8362 49.6725 80.2418 49.6725C80.6474 49.7402 81.053 49.7402 81.4586 49.808C81.8642 49.8758 82.2698 49.8758 82.6754 50.0113L83.8246 50.1468C84.2302 50.2146 84.5682 50.3501 84.9738 50.4857C85.3794 50.6212 85.7851 50.689 86.1231 50.8923L87.2723 51.3666C90.1791 52.6542 92.7479 54.6872 94.6407 57.1267C96.6012 59.4985 97.9532 62.3447 98.6292 65.1909C99.3052 68.037 99.3052 71.0188 98.832 73.7294C98.2912 76.44 97.2772 78.9474 95.8575 81.1159C94.4379 83.2844 92.6803 85.0463 90.7875 86.4016C90.3143 86.7405 89.8411 87.0115 89.3679 87.3503C88.8947 87.6214 88.3539 87.8925 87.8807 88.1635C86.9343 88.7057 85.9203 89.0445 84.9062 89.3833C82.9458 89.9932 80.9854 90.2643 79.2278 90.2643C77.4702 90.2643 75.8478 90.061 74.3605 89.7222L74.2929 89.8577V89.7222C69.5609 93.4493 67.1949 95.3467 66.8569 95.6178Z" fill="#263238"/>
<path d="M75.9829 59.4308L76.5913 71.3576C76.6589 72.3063 77.4025 73.1195 78.3489 73.1873C79.3629 73.255 80.2417 72.5096 80.377 71.4931L81.7966 59.5663C81.9318 58.6853 81.1882 57.8721 80.3094 57.8721H77.4025C76.6589 57.8044 75.9829 58.5498 75.9829 59.4308Z" fill="#2ADEF5"/>
<path d="M78.7545 81.1159C80.3599 81.1159 81.6613 79.8113 81.6613 78.2019C81.6613 76.5926 80.3599 75.288 78.7545 75.288C77.1491 75.288 75.8477 76.5926 75.8477 78.2019C75.8477 79.8113 77.1491 81.1159 78.7545 81.1159Z" fill="#2ADEF5"/>
</g>
<defs>
<clipPath id="clip0_8_2684">
<rect width="304" height="300" fill="white"/>
</clipPath>
</defs>
</svg>
