<svg width="47" height="45" viewBox="0 0 47 45" fill="none" xmlns="http://www.w3.org/2000/svg">
<path d="M35.0103 16.1753H37.103C39.3232 16.1753 41.4524 17.0573 43.0223 18.6272C44.5921 20.197 45.4741 22.3263 45.4741 24.5464C45.4741 26.7665 44.5921 28.8958 43.0223 30.4656C41.4524 32.0355 39.3232 32.9175 37.103 32.9175H35.0103" stroke="#694816" stroke-width="3" stroke-linecap="round" stroke-linejoin="round"/>
<path d="M1.52598 16.1753H35.0102V35.0102C35.0102 37.2304 34.1283 39.3596 32.5584 40.9295C30.9885 42.4994 28.8593 43.3813 26.6392 43.3813H9.89704C7.6769 43.3813 5.54768 42.4994 3.9778 40.9295C2.40792 39.3596 1.52598 37.2304 1.52598 35.0102V16.1753Z" stroke="#694816" stroke-width="3" stroke-linecap="round" stroke-linejoin="round"/>
<path d="M9.89699 1.52598V7.80428" stroke="#694816" stroke-width="3" stroke-linecap="round" stroke-linejoin="round"/>
<path d="M18.2682 1.52598V7.80428" stroke="#694816" stroke-width="3" stroke-linecap="round" stroke-linejoin="round"/>
<path d="M26.639 1.52598V7.80428" stroke="#694816" stroke-width="3" stroke-linecap="round" stroke-linejoin="round"/>
</svg>
