<svg width="9" height="5" viewBox="0 0 9 5" fill="none" xmlns="http://www.w3.org/2000/svg">
<path d="M4.35243 3.49259L7.65636 0.185576C7.7138 0.126829 7.7824 0.0801517 7.85813 0.0482836C7.93387 0.0164156 8.0152 0 8.09736 0C8.17953 0 8.26086 0.0164156 8.33659 0.0482836C8.41232 0.0801517 8.48092 0.126829 8.53837 0.185576C8.65438 0.303452 8.71941 0.462215 8.71941 0.627608C8.71941 0.793001 8.65438 0.951764 8.53837 1.06964L4.79446 4.81766C4.68092 4.93114 4.52795 4.99641 4.36746 4.99986C4.20696 5.00331 4.05133 4.94466 3.93302 4.83616L0.164441 1.07375C0.0556191 0.955126 -0.00323574 0.799088 0.000137377 0.638146C0.0035105 0.477203 0.0688517 0.323768 0.182548 0.209806C0.296244 0.0958454 0.449527 0.0301469 0.610461 0.0263991C0.771395 0.0226513 0.92757 0.0811436 1.04645 0.189689L4.35243 3.49259Z" fill="#1F1F1F"/>
</svg>
