<svg width="60" height="60" viewBox="0 0 60 60" fill="none" xmlns="http://www.w3.org/2000/svg">
<path d="M12.4132 53.039C9.38767 50.7295 6.84667 47.8467 4.93526 44.5551C3.02385 41.2636 1.77948 37.6278 1.27319 33.8553C0.766901 30.0829 1.00861 26.2476 1.98452 22.5686C2.96043 18.8895 4.65142 15.4387 6.96095 12.4132C9.27048 9.38768 12.1533 6.84667 15.4449 4.93526C18.7364 3.02386 22.3722 1.77948 26.1447 1.2732C29.9171 0.766907 33.7524 1.00862 37.4314 1.98452C41.1105 2.96043 44.5613 4.65143 47.5868 6.96096C50.6123 9.27049 53.1533 12.1533 55.0647 15.4449C56.9761 18.7364 58.2205 22.3722 58.7268 26.1447C59.2331 29.9171 58.9914 33.7524 58.0155 37.4314C57.0396 41.1105 55.3486 44.5613 53.039 47.5868C50.7295 50.6123 47.8467 53.1533 44.5551 55.0647C41.2636 56.9761 37.6278 58.2205 33.8553 58.7268C30.0829 59.2331 26.2476 58.9914 22.5686 58.0155C18.8895 57.0396 15.4387 55.3486 12.4132 53.039L12.4132 53.039Z" stroke="#2ADEF5" stroke-width="2"/>
<path d="M39.7974 21.5158L26.9531 34.3601L20.2026 27.6097C20.0043 27.4114 19.6828 27.4114 19.4844 27.6097L17.4532 29.641C17.3579 29.7362 17.3044 29.8654 17.3044 30.0001C17.3044 30.1348 17.3579 30.2639 17.4532 30.3592L26.594 39.4999C26.7923 39.6982 27.1138 39.6982 27.3122 39.4999L42.5468 24.2652C42.7451 24.0669 42.7451 23.7454 42.5468 23.547L40.5156 21.5158C40.4203 21.4205 40.2912 21.367 40.1565 21.367C40.0218 21.367 39.8926 21.4205 39.7974 21.5158Z" fill="#2ADEF5" stroke="#2ADEF5" stroke-linejoin="round"/>
</svg>
