<svg width="55" height="55" viewBox="0 0 55 55" fill="none" xmlns="http://www.w3.org/2000/svg">
<path d="M31.5882 3.44097C44.8614 5.67086 53.7809 18.3069 51.551 31.5801C49.3211 44.8533 36.6851 53.7729 23.4119 51.543C10.1387 49.3131 1.21916 36.677 3.44905 23.4038C5.2542 13.1039 13.2181 5.35231 22.9872 3.54716" stroke="#4193E1" stroke-miterlimit="10" stroke-linecap="round" stroke-linejoin="round"/>
<path d="M22.9873 54.1976C8.22749 51.6492 -1.64774 37.7389 0.900714 22.9791" stroke="#4193E1" stroke-miterlimit="10" stroke-linecap="round" stroke-linejoin="round"/>
<path d="M52.9313 36.7832C49.5333 46.2337 41.1447 52.9234 31.3756 54.41" stroke="#4193E1" stroke-miterlimit="10" stroke-linecap="round" stroke-linejoin="round"/>
<path d="M2.91791 16.2894C7.90862 5.4585 19.6952 -1.23118 32.0127 0.892528C46.7725 3.44098 56.6477 17.3513 54.0993 32.111" stroke="#4193E1" stroke-miterlimit="10" stroke-linecap="round" stroke-linejoin="round"/>
<path d="M43.6938 17.7759L44.0123 17.4575" stroke="#4193E1" stroke-miterlimit="10" stroke-linecap="round" stroke-linejoin="round"/>
<path d="M39.3394 22.4472L41.5683 20.1121" stroke="#4193E1" stroke-miterlimit="10" stroke-linecap="round" stroke-linejoin="round"/>
<path d="M12.8997 25.8461L23.3059 39.7564L37.5347 24.4657" stroke="#4193E1" stroke-miterlimit="10" stroke-linecap="round" stroke-linejoin="round"/>
</svg>
