<svg width="152" height="152" viewBox="0 0 152 152" fill="none" xmlns="http://www.w3.org/2000/svg">
<path d="M87.2804 9.61493C123.904 15.7678 148.516 50.634 142.363 87.2581C136.21 123.882 101.344 148.494 64.7198 142.341C28.0957 136.188 3.48432 101.322 9.63717 64.6977C14.6181 36.2774 36.5925 14.8888 63.5479 9.90794" stroke="#0A4E8E" stroke-width="3" stroke-miterlimit="10" stroke-linecap="round" stroke-linejoin="round"/>
<path d="M63.5482 149.666C22.8222 142.634 -4.42614 104.252 2.6057 63.5257" stroke="#0A4E8E" stroke-width="3" stroke-miterlimit="10" stroke-linecap="round" stroke-linejoin="round"/>
<path d="M146.171 101.615C136.796 127.691 113.649 146.15 86.6937 150.252" stroke="#0A4E8E" stroke-width="3" stroke-miterlimit="10" stroke-linecap="round" stroke-linejoin="round"/>
<path d="M8.17159 45.0671C21.9423 15.1818 54.4645 -3.27676 88.4517 2.58311C129.178 9.61494 156.426 47.997 149.394 88.7231" stroke="#0A4E8E" stroke-width="3" stroke-miterlimit="10" stroke-linecap="round" stroke-linejoin="round"/>
<path d="M120.683 49.1686L121.561 48.2901" stroke="#0A4E8E" stroke-width="3" stroke-miterlimit="10" stroke-linecap="round" stroke-linejoin="round"/>
<path d="M108.668 62.058L114.818 55.6149" stroke="#0A4E8E" stroke-width="3" stroke-miterlimit="10" stroke-linecap="round" stroke-linejoin="round"/>
<path d="M35.7142 71.4365L64.4276 109.819L103.689 67.6276" stroke="#0A4E8E" stroke-width="3" stroke-miterlimit="10" stroke-linecap="round" stroke-linejoin="round"/>
</svg>
