<svg width="24" height="22" viewBox="0 0 24 22" fill="none" xmlns="http://www.w3.org/2000/svg">
<path d="M21.5429 1.83258H19.2507V3.20804C19.2503 3.32936 19.2019 3.44559 19.1161 3.53138C19.0303 3.61717 18.9141 3.66555 18.7928 3.66598H17.8761C17.7548 3.66555 17.6385 3.61717 17.5527 3.53138C17.4669 3.44559 17.4186 3.32936 17.4181 3.20804V1.83258H6.41691V3.20804C6.41648 3.32936 6.36809 3.44559 6.2823 3.53138C6.19652 3.61717 6.08028 3.66555 5.95896 3.66598H5.04226C4.9208 3.66577 4.80436 3.61748 4.7184 3.53167C4.63243 3.44585 4.58393 3.3295 4.5835 3.20804V1.83258H2.29216C1.68477 1.8343 1.10275 2.07635 0.673258 2.50584C0.243767 2.93533 0.00172005 3.51735 0 4.12474V19.7087C0.00193492 20.3159 0.244077 20.8977 0.673544 21.327C1.10301 21.7563 1.68491 21.9983 2.29216 22H21.5429C22.1501 21.9983 22.732 21.7563 23.1615 21.327C23.591 20.8977 23.8331 20.3159 23.835 19.7087V4.12474C23.8333 3.51735 23.5913 2.93533 23.1618 2.50584C22.7323 2.07635 22.1503 1.8343 21.5429 1.83258ZM22.0016 19.0209C22.0008 19.3245 21.8798 19.6154 21.6651 19.8301C21.4505 20.0448 21.1595 20.1657 20.856 20.1666H2.97907C2.67549 20.1657 2.38458 20.0448 2.16991 19.8301C1.95524 19.6154 1.83426 19.3245 1.8334 19.0209V8.70824C1.83383 8.58678 1.88233 8.47043 1.96829 8.38462C2.05426 8.29881 2.1707 8.25052 2.29216 8.2503H21.5429C21.6645 8.25052 21.781 8.29892 21.867 8.38491C21.953 8.47089 22.0014 8.58746 22.0016 8.70906V19.0209Z" fill="white"/>
<path d="M6.4169 0.457943C6.41647 0.336621 6.36808 0.220391 6.2823 0.134603C6.19651 0.0488149 6.08028 0.000429462 5.95895 0H5.04225C4.92079 0.000214598 4.80435 0.0485049 4.71839 0.134316C4.63242 0.220127 4.58393 0.336481 4.5835 0.457943V1.83259H6.4169V0.457943Z" fill="white"/>
<path d="M19.2506 0.457943C19.2501 0.336621 19.2017 0.220391 19.116 0.134603C19.0302 0.0488149 18.9139 0.000429462 18.7926 0H17.8759C17.7544 0.000430532 17.6381 0.0489281 17.5523 0.134892C17.4665 0.220856 17.4182 0.337295 17.418 0.458758V1.83259H19.2506V0.457943Z" fill="white"/>
</svg>
