<svg width="17" height="19" viewBox="0 0 17 19" fill="none" xmlns="http://www.w3.org/2000/svg">
<path d="M13.4999 5.99991C13.4999 4.67385 12.9732 3.4021 12.0355 2.46443C11.0978 1.52676 9.82606 0.999986 8.5 0.999986C7.17394 0.999986 5.90219 1.52676 4.96452 2.46443C4.02685 3.4021 3.50007 4.67385 3.50007 5.99991C3.50007 11.8332 1.00011 13.4998 1.00011 13.4998H15.9999C15.9999 13.4998 13.4999 11.8332 13.4999 5.99991Z" fill="#21357C" stroke="#21357C" stroke-width="2" stroke-linecap="round" stroke-linejoin="round"/>
<path d="M9.94105 16.8331C9.79454 17.0857 9.58426 17.2953 9.33125 17.441C9.07824 17.5868 8.79138 17.6635 8.49941 17.6635C8.20743 17.6635 7.92057 17.5868 7.66756 17.441C7.41455 17.2953 7.20427 17.0857 7.05776 16.8331" fill="#21357C"/>
<path d="M9.94105 16.8331C9.79454 17.0857 9.58426 17.2953 9.33125 17.441C9.07824 17.5868 8.79138 17.6635 8.49941 17.6635C8.20743 17.6635 7.92057 17.5868 7.66756 17.441C7.41455 17.2953 7.20427 17.0857 7.05776 16.8331" stroke="#21357C" stroke-width="2" stroke-linecap="round" stroke-linejoin="round"/>
</svg>
