<svg width="24" height="24" viewBox="0 0 24 24" fill="none" xmlns="http://www.w3.org/2000/svg">
<path d="M5.7473 0.765927H3.25614C2.5957 0.765927 1.9623 1.02829 1.49529 1.4953C1.02829 1.9623 0.765927 2.5957 0.765927 3.25614V5.74636" stroke="black" stroke-width="1.5" stroke-linecap="round" stroke-linejoin="round"/>
<path d="M18.2526 0.765927H20.7428C21.0698 0.765927 21.3937 0.830339 21.6958 0.955484C21.9979 1.08063 22.2724 1.26406 22.5037 1.4953C22.7349 1.72653 22.9183 2.00105 23.0435 2.30318C23.1686 2.60531 23.233 2.92912 23.233 3.25614V5.74636" stroke="black" stroke-width="1.5" stroke-linecap="round" stroke-linejoin="round"/>
<path d="M16.9925 7.00926V9.49948" stroke="black" stroke-width="1.5" stroke-linecap="round" stroke-linejoin="round"/>
<path d="M7.00729 7.00926V9.49948" stroke="black" stroke-width="1.5" stroke-linecap="round" stroke-linejoin="round"/>
<path d="M8.26463 16.9954C9.31127 17.8611 10.6433 18.3051 12 18.2405C13.357 18.3053 14.6893 17.8613 15.7362 16.9954" stroke="black" stroke-width="1.5" stroke-linecap="round" stroke-linejoin="round"/>
<path d="M11.998 7.013V13.2395H10.7529" stroke="black" stroke-width="1.5" stroke-linecap="round" stroke-linejoin="round"/>
<path d="M5.7473 23.2341H3.25615C2.92905 23.2341 2.60515 23.1696 2.30296 23.0444C2.00078 22.9192 1.72621 22.7357 1.49496 22.5044C1.26371 22.273 1.08031 21.9984 0.955215 21.6962C0.830125 21.3939 0.765804 21.07 0.765927 20.7429V18.2527" stroke="black" stroke-width="1.5" stroke-linecap="round" stroke-linejoin="round"/>
<path d="M18.2526 23.2341H20.7428C21.0698 23.2341 21.3937 23.1697 21.6958 23.0445C21.9979 22.9194 22.2724 22.7359 22.5037 22.5047C22.7349 22.2735 22.9183 21.9989 23.0435 21.6968C23.1686 21.3947 23.233 21.0709 23.233 20.7438V18.2527" stroke="black" stroke-width="1.5" stroke-linecap="round" stroke-linejoin="round"/>
</svg>
