<svg width="285" height="269" viewBox="0 0 285 269" fill="none" xmlns="http://www.w3.org/2000/svg">
<g clip-path="url(#clip0_8_4328)">
<path d="M285 45.6444H239.496V67.2038H258.019L264.934 74.1028L271.849 67.2038H285V45.6444Z" fill="#F5F5F5"/>
<path d="M250.424 55.3153C250.424 53.3442 248.634 51.7426 246.596 52.1738C245.3 52.4202 244.25 53.4674 244.065 54.7609C243.941 55.5617 244.065 56.3009 244.435 56.9785C244.559 57.1633 244.744 57.3481 244.868 57.5329L246.72 59.9968C246.967 60.3048 247.399 60.3048 247.646 59.9968L249.498 57.5329C249.498 57.5329 249.869 57.1017 249.992 56.9169C250.239 56.4857 250.424 55.9313 250.424 55.3153ZM247.214 56.7321C246.411 56.7321 245.794 56.1161 245.794 55.3153C245.794 54.5145 246.411 53.8986 247.214 53.8986C248.016 53.8986 248.634 54.5145 248.634 55.3153C248.634 56.1161 247.955 56.7321 247.214 56.7321Z" fill="#E0E0E0"/>
<path d="M266.91 57.8408C274.377 57.8408 280.431 57.7581 280.431 57.6561C280.431 57.554 274.377 57.4713 266.91 57.4713C259.442 57.4713 253.388 57.554 253.388 57.6561C253.388 57.7581 259.442 57.8408 266.91 57.8408Z" fill="#E0E0E0"/>
<path d="M262.588 60.736C267.668 60.736 271.787 60.6532 271.787 60.5512C271.787 60.4491 267.668 60.3664 262.588 60.3664C257.507 60.3664 253.388 60.4491 253.388 60.5512C253.388 60.6532 257.507 60.736 262.588 60.736Z" fill="#E0E0E0"/>
<path d="M255.055 50.9418L255.672 52.1738L257.031 52.3586L256.043 53.3442L256.29 54.6993L255.055 54.0834L253.82 54.6993L254.005 53.3442L253.018 52.3586L254.438 52.1738L255.055 50.9418Z" fill="#E0E0E0"/>
<path d="M260.859 50.9418L261.476 52.1738L262.896 52.3586L261.908 53.3442L262.093 54.6993L260.859 54.0834L259.624 54.6993L259.871 53.3442L258.883 52.3586L260.241 52.1738L260.859 50.9418Z" fill="#E0E0E0"/>
<path d="M266.724 50.9418L267.342 52.1738L268.762 52.3586L267.712 53.3442L267.959 54.6993L266.724 54.0834L265.489 54.6993L265.736 53.3442L264.749 52.3586L266.107 52.1738L266.724 50.9418Z" fill="#E0E0E0"/>
<path d="M272.59 50.9418L273.207 52.1738L274.565 52.3586L273.577 53.3442L273.824 54.6993L272.59 54.0834L271.355 54.6993L271.602 53.3442L270.614 52.3586L271.972 52.1738L272.59 50.9418Z" fill="#EBEBEB"/>
<path d="M278.455 50.9418L279.072 52.1738L280.431 52.3586L279.443 53.3442L279.69 54.6993L278.455 54.0834L277.22 54.6993L277.467 53.3442L276.417 52.3586L277.838 52.1738L278.455 50.9418Z" fill="#EBEBEB"/>
<path d="M86.3769 0.246399H15.6826V33.7559H44.3925L55.1973 44.474L65.9404 33.7559H86.3769V0.246399Z" fill="#F5F5F5"/>
<path d="M32.5997 15.2764C32.5997 12.1965 29.8214 9.79415 26.6108 10.3485C24.5733 10.7181 22.968 12.3813 22.6593 14.3524C22.4123 15.5844 22.7211 16.8164 23.2767 17.7403C23.462 18.0483 23.7089 18.2947 23.9559 18.6643L26.8578 22.4834C27.2282 22.9762 27.9691 22.9762 28.2778 22.4834L31.1179 18.7259C31.1179 18.7259 31.6736 18.1099 31.8588 17.7403C32.3528 17.0628 32.5997 16.2004 32.5997 15.2764ZM27.5987 17.4939C26.3638 17.4939 25.3759 16.5084 25.3759 15.2764C25.3759 14.0444 26.3638 13.0589 27.5987 13.0589C28.8335 13.0589 29.8214 14.0444 29.8214 15.2764C29.8214 16.5084 28.8335 17.4939 27.5987 17.4939Z" fill="#E0E0E0"/>
<path d="M79.3384 18.8491C79.3384 18.9107 69.8919 19.0339 58.2844 19.0339C46.677 19.0339 37.2305 18.9723 37.2305 18.8491C37.2305 18.7875 46.677 18.6643 58.2844 18.6643C69.8919 18.7259 79.3384 18.7875 79.3384 18.8491Z" fill="#E0E0E0"/>
<path d="M51.5546 23.5922C59.4655 23.5922 65.8786 23.5094 65.8786 23.4074C65.8786 23.3053 59.4655 23.2226 51.5546 23.2226C43.6436 23.2226 37.2305 23.3053 37.2305 23.4074C37.2305 23.5094 43.6436 23.5922 51.5546 23.5922Z" fill="#E0E0E0"/>
<path d="M39.8236 8.43898L40.7498 10.4101L42.9107 10.7181L41.3672 12.1965L41.7376 14.3524L39.8236 13.3668L37.9096 14.3524L38.2801 12.1965L36.6748 10.7181L38.8358 10.4101L39.8236 8.43898Z" fill="#E0E0E0"/>
<path d="M48.8996 8.43898L49.8875 10.4101L52.0484 10.7181L50.4431 12.1965L50.8136 14.3524L48.8996 13.3668L46.9856 14.3524L47.356 12.1965L45.8125 10.7181L47.9735 10.4101L48.8996 8.43898Z" fill="#E0E0E0"/>
<path d="M58.0375 8.43898L58.9636 10.4101L61.1246 10.7181L59.581 12.1965L59.9515 14.3524L58.0375 13.3668L56.0618 14.3524L56.4322 12.1965L54.8887 10.7181L57.0496 10.4101L58.0375 8.43898Z" fill="#E0E0E0"/>
<path d="M67.1135 8.43898L68.1013 10.4101L70.2005 10.7181L68.657 12.1965L69.0275 14.3524L67.1135 13.3668L65.1995 14.3524L65.5699 12.1965L64.0264 10.7181L66.1256 10.4101L67.1135 8.43898Z" fill="#EBEBEB"/>
<path d="M76.1896 8.43898L77.1775 10.4101L79.3385 10.7181L77.7949 12.1965L78.1654 14.3524L76.1896 13.3668L74.2756 14.3524L74.6461 12.1965L73.1025 10.7181L75.2635 10.4101L76.1896 8.43898Z" fill="#EBEBEB"/>
<path d="M249.252 82.2338C249.622 79.5235 245.794 77.3059 242.954 77.1211C241.596 76.9979 240.175 77.2443 238.879 76.7515C236.101 75.766 234.927 72.1933 232.211 71.0229C230.173 70.1605 227.827 70.8997 225.851 71.9469C223.876 72.9324 221.9 74.1644 219.677 74.3492C217.763 74.4724 215.664 73.7332 213.997 74.7188C212.762 75.3964 212.083 76.8747 210.91 77.7371C209.799 78.5995 208.317 78.7227 206.897 78.8459C205.477 78.9075 204.057 78.9075 202.76 79.5235C201.463 80.0779 200.414 81.433 200.661 82.8498L249.252 82.2338Z" fill="#F5F5F5"/>
<path d="M55.2589 108.844C55.6293 106.134 51.8013 103.916 48.9612 103.732C47.6029 103.608 46.1828 103.855 44.8862 103.362C42.1079 102.376 40.9348 98.8038 38.2181 97.6334C36.1806 96.771 33.8345 97.5102 31.8587 98.5574C29.883 99.5429 27.9072 100.775 25.6845 100.96C23.7705 101.083 21.6713 100.344 20.0043 101.329C18.7695 102.007 18.0903 103.485 16.9172 104.348C15.8059 105.21 14.3241 105.333 12.904 105.456C11.4839 105.518 10.0639 105.518 8.7673 106.134C7.47072 106.688 6.42111 108.044 6.66808 109.46L55.2589 108.844Z" fill="#F5F5F5"/>
<path d="M35.7484 80.509C35.9954 78.5379 33.217 76.8747 31.1178 76.7515C30.1299 76.69 29.0803 76.8131 28.0925 76.5052C26.055 75.766 25.1906 73.1172 23.2149 72.3165C21.7331 71.7005 20.0043 72.2549 18.5225 72.9941C17.0407 73.7332 15.6206 74.6572 14.0153 74.7188C12.5953 74.7804 11.0517 74.2876 9.81689 74.9652C8.89077 75.458 8.39683 76.5668 7.53245 77.1827C6.7298 77.7987 5.61845 77.9219 4.56884 77.9835C3.51923 78.0451 2.46962 78.0451 1.5435 78.4763C0.617369 78.9075 -0.185273 79.8931 -4.81308e-05 80.9402L35.7484 80.509Z" fill="#EBEBEB"/>
<path d="M266.416 8.50057C266.663 6.52942 263.884 4.86626 261.785 4.74307C260.797 4.68147 259.748 4.80467 258.76 4.49667C256.722 3.75749 255.858 1.10876 253.882 0.307985C252.401 -0.307998 250.672 0.246387 249.19 0.985567C247.708 1.72475 246.288 2.64872 244.683 2.71032C243.263 2.77192 241.719 2.27913 240.484 2.95671C239.558 3.4495 239.064 4.55827 238.2 5.17425C237.397 5.79024 236.286 5.91343 235.236 5.97503C234.187 6.03663 233.137 6.03663 232.211 6.46782C231.285 6.89901 230.482 7.88458 230.667 8.93175L266.416 8.50057Z" fill="#EBEBEB"/>
<path d="M261.353 105.888H209.984V268.384H261.353V105.888Z" fill="#F5F5F5"/>
<path d="M261.353 105.888H235.668V267.891H261.353V105.888Z" fill="#EBEBEB"/>
<path d="M234.001 89.9336H215.849V105.888H234.001V89.9336Z" fill="#F5F5F5"/>
<path d="M234.001 89.9336H229.679V105.888H234.001V89.9336Z" fill="#EBEBEB"/>
<path d="M205.724 105.888V104.964H262.896V105.888" fill="#E0E0E0"/>
<path d="M224.493 112.848H220.171V122.026H224.493V112.848Z" fill="#FAFAFA"/>
<path d="M222.826 125.722C229.919 125.722 235.668 125.639 235.668 125.537C235.668 125.435 229.919 125.353 222.826 125.353C215.734 125.353 209.984 125.435 209.984 125.537C209.984 125.639 215.734 125.722 222.826 125.722Z" fill="#E0E0E0"/>
<path d="M250.363 112.848H246.041V122.026H250.363V112.848Z" fill="#E0E0E0"/>
<path d="M248.758 125.722C255.85 125.722 261.6 125.639 261.6 125.537C261.6 125.435 255.85 125.353 248.758 125.353C241.665 125.353 235.916 125.435 235.916 125.537C235.916 125.639 241.665 125.722 248.758 125.722Z" fill="#E0E0E0"/>
<path d="M250.363 131.02H246.041V140.198H250.363V131.02Z" fill="#E0E0E0"/>
<path d="M248.758 143.894C255.85 143.894 261.6 143.811 261.6 143.709C261.6 143.607 255.85 143.524 248.758 143.524C241.665 143.524 235.916 143.607 235.916 143.709C235.916 143.811 241.665 143.894 248.758 143.894Z" fill="#E0E0E0"/>
<path d="M250.363 149.684H246.041V158.862H250.363V149.684Z" fill="#E0E0E0"/>
<path d="M248.758 162.62C255.85 162.62 261.6 162.537 261.6 162.435C261.6 162.333 255.85 162.25 248.758 162.25C241.665 162.25 235.916 162.333 235.916 162.435C235.916 162.537 241.665 162.62 248.758 162.62Z" fill="#E0E0E0"/>
<path d="M250.363 168.41H246.041V177.588H250.363V168.41Z" fill="#E0E0E0"/>
<path d="M248.758 181.346C255.85 181.346 261.6 181.263 261.6 181.161C261.6 181.059 255.85 180.976 248.758 180.976C241.665 180.976 235.916 181.059 235.916 181.161C235.916 181.263 241.665 181.346 248.758 181.346Z" fill="#E0E0E0"/>
<path d="M250.363 186.581H246.041V195.76H250.363V186.581Z" fill="#E0E0E0"/>
<path d="M248.758 199.517C255.85 199.517 261.6 199.434 261.6 199.332C261.6 199.23 255.85 199.147 248.758 199.147C241.665 199.147 235.916 199.23 235.916 199.332C235.916 199.434 241.665 199.517 248.758 199.517Z" fill="#E0E0E0"/>
<path d="M250.363 204.876H246.041V214.054H250.363V204.876Z" fill="#E0E0E0"/>
<path d="M250.363 223.356H246.041V232.534H250.363V223.356Z" fill="#E0E0E0"/>
<path d="M248.758 217.75C255.85 217.75 261.6 217.667 261.6 217.565C261.6 217.463 255.85 217.381 248.758 217.381C241.665 217.381 235.916 217.463 235.916 217.565C235.916 217.667 241.665 217.75 248.758 217.75Z" fill="#E0E0E0"/>
<path d="M224.493 131.266H220.171V140.444H224.493V131.266Z" fill="#FAFAFA"/>
<path d="M222.826 144.202C229.919 144.202 235.668 144.119 235.668 144.017C235.668 143.915 229.919 143.832 222.826 143.832C215.734 143.832 209.984 143.915 209.984 144.017C209.984 144.119 215.734 144.202 222.826 144.202Z" fill="#E0E0E0"/>
<path d="M224.493 149.684H220.171V158.862H224.493V149.684Z" fill="#FAFAFA"/>
<path d="M222.826 162.62C229.919 162.62 235.668 162.537 235.668 162.435C235.668 162.333 229.919 162.25 222.826 162.25C215.734 162.25 209.984 162.333 209.984 162.435C209.984 162.537 215.734 162.62 222.826 162.62Z" fill="#E0E0E0"/>
<path d="M224.493 168.163H220.171V177.342H224.493V168.163Z" fill="#FAFAFA"/>
<path d="M222.826 181.099C229.919 181.099 235.668 181.016 235.668 180.914C235.668 180.812 229.919 180.73 222.826 180.73C215.734 180.73 209.984 180.812 209.984 180.914C209.984 181.016 215.734 181.099 222.826 181.099Z" fill="#E0E0E0"/>
<path d="M224.493 186.581H220.171V195.76H224.493V186.581Z" fill="#FAFAFA"/>
<path d="M222.826 199.517C229.919 199.517 235.668 199.434 235.668 199.332C235.668 199.23 229.919 199.147 222.826 199.147C215.734 199.147 209.984 199.23 209.984 199.332C209.984 199.434 215.734 199.517 222.826 199.517Z" fill="#E0E0E0"/>
<path d="M224.493 205.061H220.171V214.239H224.493V205.061Z" fill="#FAFAFA"/>
<path d="M222.826 217.997C229.919 217.997 235.668 217.914 235.668 217.812C235.668 217.71 229.919 217.627 222.826 217.627C215.734 217.627 209.984 217.71 209.984 217.812C209.984 217.914 215.734 217.997 222.826 217.997Z" fill="#E0E0E0"/>
<path d="M224.493 223.479H220.171V232.657H224.493V223.479Z" fill="#FAFAFA"/>
<path d="M100.886 268.446H25.2526L24.9438 149.253H100.516L100.886 268.446Z" fill="#EBEBEB"/>
<path d="M100.515 149.253H62.7295V268.446H100.515V149.253Z" fill="#E0E0E0"/>
<path d="M60.2598 125.784H33.5874V149.253H60.2598V125.784Z" fill="#EBEBEB"/>
<path d="M60.2598 125.784H53.9004V149.253H60.2598V125.784Z" fill="#E0E0E0"/>
<path d="M102.8 147.898H18.646V149.253H102.8V147.898Z" fill="#E0E0E0"/>
<path d="M46.3064 159.478H39.8853V172.968H46.3064V159.478Z" fill="white"/>
<path d="M62.7298 178.204C62.7298 178.327 54.2712 178.45 43.8368 178.45C33.4025 178.45 24.9438 178.327 24.9438 178.204C24.9438 178.081 33.4025 177.958 43.8368 177.958C54.2712 177.958 62.7298 178.081 62.7298 178.204Z" fill="#E0E0E0"/>
<path d="M84.4011 159.478H77.98V172.968H84.4011V159.478Z" fill="#F5F5F5"/>
<path d="M100.886 178.204C100.886 178.327 92.4274 178.45 81.9931 178.45C71.5587 178.45 63.1001 178.327 63.1001 178.204C63.1001 178.081 71.5587 177.958 81.9931 177.958C92.4274 177.958 100.886 178.081 100.886 178.204Z" fill="#EBEBEB"/>
<path d="M84.4011 186.212H77.98V199.702H84.4011V186.212Z" fill="#F5F5F5"/>
<path d="M100.886 204.938C100.886 205.061 92.4274 205.184 81.9931 205.184C71.5587 205.184 63.1001 205.061 63.1001 204.938C63.1001 204.815 71.5587 204.691 81.9931 204.691C92.4274 204.691 100.886 204.815 100.886 204.938Z" fill="#EBEBEB"/>
<path d="M84.4011 213.746H77.98V227.236H84.4011V213.746Z" fill="#F5F5F5"/>
<path d="M100.886 232.534C100.886 232.657 92.4274 232.78 81.9931 232.78C71.5587 232.78 63.1001 232.657 63.1001 232.534C63.1001 232.411 71.5587 232.287 81.9931 232.287C92.4274 232.226 100.886 232.349 100.886 232.534Z" fill="#EBEBEB"/>
<path d="M84.4011 241.281H77.98V254.771H84.4011V241.281Z" fill="#F5F5F5"/>
<path d="M100.886 260.068C100.886 260.191 92.4274 260.315 81.9931 260.315C71.5587 260.315 63.1001 260.191 63.1001 260.068C63.1001 259.945 71.5587 259.822 81.9931 259.822C92.4274 259.76 100.886 259.883 100.886 260.068Z" fill="#EBEBEB"/>
<path d="M46.3064 186.643H39.8853V200.133H46.3064V186.643Z" fill="white"/>
<path d="M62.7298 205.369C62.7298 205.492 54.2712 205.615 43.8368 205.615C33.4025 205.615 24.9438 205.492 24.9438 205.369C24.9438 205.246 33.4025 205.123 43.8368 205.123C54.2712 205.123 62.7298 205.246 62.7298 205.369Z" fill="#E0E0E0"/>
<path d="M46.3064 213.746H39.8853V227.236H46.3064V213.746Z" fill="white"/>
<path d="M62.7298 232.534C62.7298 232.657 54.2712 232.78 43.8368 232.78C33.4025 232.78 24.9438 232.657 24.9438 232.534C24.9438 232.411 33.4025 232.287 43.8368 232.287C54.2712 232.287 62.7298 232.349 62.7298 232.534Z" fill="#E0E0E0"/>
<path d="M46.3064 240.911H39.8853V254.401H46.3064V240.911Z" fill="white"/>
<path d="M62.7298 259.637C62.7298 259.76 54.2712 259.883 43.8368 259.883C33.4025 259.883 24.9438 259.76 24.9438 259.637C24.9438 259.514 33.4025 259.391 43.8368 259.391C54.2712 259.391 62.7298 259.514 62.7298 259.637Z" fill="#E0E0E0"/>
<path d="M242.892 255.695C243.386 253.847 242.151 252.06 240.855 250.705C239.496 249.412 237.891 248.18 237.212 246.455C236.101 243.621 237.582 239.987 235.668 237.585C234.557 236.168 232.52 235.737 231.47 234.259C230.914 233.458 230.791 232.534 230.544 231.61C229.494 226.928 227.148 222.555 223.814 219.044C223.567 223.232 224.493 227.421 226.469 231.117C227.272 232.595 228.198 234.074 228.445 235.675C228.877 238.386 227.333 241.158 228.012 243.806C228.753 246.825 232.149 248.857 232.334 251.937C232.458 254.586 230.173 256.865 230.359 259.514C230.42 260.623 230.976 261.67 231.532 262.655C233.569 266.043 236.533 268.384 241.102 268.261L246.658 268.446L242.892 255.695Z" fill="#2ADEF5"/>
<g opacity="0.3">
<path d="M242.892 255.695C243.386 253.847 242.151 252.06 240.855 250.705C239.496 249.412 237.891 248.18 237.212 246.455C236.101 243.621 237.582 239.987 235.668 237.585C234.557 236.168 232.52 235.737 231.47 234.259C230.914 233.458 230.791 232.534 230.544 231.61C229.494 226.928 227.148 222.555 223.814 219.044C223.567 223.232 224.493 227.421 226.469 231.117C227.272 232.595 228.198 234.074 228.445 235.675C228.877 238.386 227.333 241.158 228.012 243.806C228.753 246.825 232.149 248.857 232.334 251.937C232.458 254.586 230.173 256.865 230.359 259.514C230.42 260.623 230.976 261.67 231.532 262.655C233.569 266.043 236.533 268.384 241.102 268.261L246.658 268.446L242.892 255.695Z" fill="black"/>
</g>
<path d="M247.708 268.569C247.708 268.569 248.264 268.692 249.252 268.507C249.746 268.446 250.363 268.322 251.042 268.076C251.721 267.83 252.524 267.46 253.265 266.844C253.635 266.536 254.006 266.166 254.191 265.612C254.376 265.119 254.438 264.565 254.438 263.949C254.438 263.395 254.438 262.779 254.562 262.163C254.685 261.547 254.87 260.931 255.241 260.376C255.92 259.206 256.97 258.159 257.34 256.557C257.71 255.017 257.463 253.354 257.216 251.691C256.97 250.028 256.723 248.241 257.34 246.455C257.957 244.73 259.13 243.129 259.748 241.219C260.365 239.248 260.057 237.092 260.18 234.998C260.242 233.951 260.427 232.903 260.921 231.918C261.353 230.932 261.971 230.008 262.465 228.961C263.452 226.867 263.638 224.526 263.885 222.185C264.008 221.015 264.132 219.845 264.255 218.613C264.379 217.442 264.502 216.21 264.872 215.04C265.243 213.869 265.737 212.761 266.231 211.59C266.478 211.036 266.725 210.42 266.848 209.804C266.972 209.126 266.972 208.51 267.033 207.894C267.095 206.601 267.033 205.307 266.91 204.075C266.786 202.782 266.539 201.55 266.416 200.256C266.416 200.195 266.416 200.133 266.416 200.01V199.763L266.169 199.887C264.996 200.503 263.946 201.365 263.205 202.412C262.403 203.459 261.847 204.63 261.353 205.8C260.427 208.202 260.118 210.666 259.624 213.069C259.192 215.471 258.575 217.812 257.34 219.783C256.723 220.768 255.982 221.692 255.364 222.616C254.747 223.602 254.129 224.649 254.006 225.758C253.697 228.099 254.994 230.193 254.685 232.226C254.562 233.273 254.191 234.197 253.697 235.121C253.203 235.983 252.586 236.846 252.03 237.646C251.474 238.447 250.919 239.31 250.548 240.234C250.178 241.096 249.931 242.082 249.869 243.005C249.746 244.853 249.993 246.64 249.869 248.303C249.746 249.966 249.19 251.506 248.511 252.861C247.832 254.216 247.091 255.448 246.473 256.68C246.165 257.296 245.856 257.851 245.609 258.467C245.362 259.021 245.239 259.637 245.115 260.191C244.93 261.362 244.93 262.409 245.053 263.333C245.3 265.242 245.979 266.598 246.659 267.398C246.782 267.583 246.967 267.768 247.091 267.891C247.214 268.014 247.338 268.138 247.461 268.199C247.585 268.507 247.708 268.569 247.708 268.569C247.708 268.569 247.276 268.261 246.659 267.522C246.041 266.721 245.362 265.366 245.177 263.518C245.053 262.594 245.053 261.547 245.239 260.376C245.362 259.822 245.486 259.206 245.733 258.651C245.979 258.097 246.288 257.481 246.597 256.927C247.214 255.756 247.955 254.524 248.696 253.169C249.375 251.814 249.993 250.274 250.116 248.549C250.24 246.825 249.993 245.038 250.116 243.252C250.178 242.328 250.425 241.404 250.795 240.542C251.166 239.679 251.721 238.878 252.277 238.016C252.833 237.215 253.45 236.353 253.944 235.49C254.438 234.567 254.87 233.581 254.994 232.472C255.241 230.255 254.006 228.16 254.315 226.004C254.5 224.896 254.994 223.91 255.673 222.986C256.29 222.062 257.031 221.138 257.649 220.152C258.883 218.12 259.501 215.717 259.995 213.315C260.489 210.913 260.797 208.449 261.724 206.108C262.156 204.938 262.773 203.829 263.514 202.843C264.255 201.858 265.243 200.995 266.354 200.441L266.107 200.318C266.107 200.379 266.107 200.441 266.107 200.564C266.231 201.858 266.478 203.151 266.601 204.383C266.786 205.677 266.786 206.909 266.725 208.141C266.663 208.757 266.663 209.434 266.539 209.989C266.416 210.543 266.169 211.159 265.922 211.714C265.428 212.884 264.934 213.993 264.564 215.163C264.193 216.333 264.07 217.565 263.946 218.797C263.823 219.968 263.699 221.2 263.576 222.37C263.329 224.711 263.144 227.052 262.156 229.023C261.662 230.008 261.044 230.932 260.612 231.979C260.118 232.965 259.933 234.074 259.871 235.182C259.748 237.338 260.057 239.433 259.439 241.281C258.884 243.19 257.649 244.73 257.031 246.517C256.352 248.303 256.661 250.212 256.908 251.876C257.155 253.539 257.463 255.14 257.093 256.619C256.784 258.097 255.735 259.206 255.056 260.376C254.685 260.992 254.438 261.608 254.376 262.224C254.253 262.84 254.315 263.456 254.253 264.011C254.253 264.565 254.191 265.119 254.006 265.612C253.821 266.105 253.512 266.474 253.142 266.782C252.401 267.398 251.66 267.768 250.981 268.014C250.301 268.261 249.684 268.384 249.19 268.507C248.696 268.569 248.326 268.63 248.079 268.63C247.832 268.569 247.708 268.569 247.708 268.569Z" fill="#263238"/>
<path d="M265.243 203.275C265.243 203.275 265.243 203.336 265.181 203.459C265.12 203.583 265.12 203.767 265.058 203.952C264.934 204.383 264.811 205.061 264.626 205.862C264.379 206.662 263.885 207.586 263.453 208.757C263.02 209.866 262.526 211.221 262.156 212.699C261.724 214.177 261.353 215.841 260.983 217.565C260.551 219.352 260.18 221.2 259.192 222.986C258.76 223.91 258.204 224.772 257.834 225.82C257.402 226.805 257.217 227.914 257.031 229.023C256.784 231.24 256.352 233.458 255.858 235.737C254.747 240.295 253.697 244.607 252.709 248.549C251.722 252.492 250.857 256.003 250.055 259.021C249.314 261.978 248.758 264.38 248.326 266.043C248.141 266.844 247.955 267.522 247.894 267.953C247.832 268.138 247.832 268.322 247.77 268.446C247.77 268.569 247.708 268.63 247.77 268.63C247.77 268.63 247.77 268.569 247.832 268.446C247.894 268.322 247.894 268.138 247.955 267.953C248.079 267.46 248.264 266.844 248.449 266.043C248.881 264.38 249.499 261.978 250.302 259.021C251.104 256.064 251.969 252.492 253.018 248.611C254.006 244.669 255.056 240.357 256.167 235.798C256.723 233.519 257.093 231.24 257.34 229.084C257.525 227.975 257.711 226.928 258.081 226.004C258.451 225.019 259.007 224.095 259.439 223.232C260.427 221.446 260.798 219.475 261.23 217.75C261.6 215.964 261.971 214.362 262.403 212.884C262.773 211.406 263.267 210.112 263.638 208.942C264.07 207.771 264.564 206.847 264.749 205.985C264.934 205.122 265.058 204.507 265.12 204.014C265.181 203.829 265.181 203.644 265.181 203.521C265.243 203.336 265.243 203.275 265.243 203.275Z" fill="#263238"/>
<path d="M245.671 268.199C249.56 266.598 251.536 260.438 250.61 256.311C249.684 252.184 247.585 248.241 247.77 244.053C247.955 240.788 249.437 237.708 249.19 234.443C248.819 230.07 245.177 226.251 245.856 221.939C246.226 219.537 247.955 217.442 248.202 214.978C248.511 211.96 246.535 209.311 245.547 206.478C243.942 202.166 244.497 197.361 244.436 192.803C244.374 188.183 243.324 183.132 239.682 180.36C238.509 184.117 237.15 186.581 236.718 191.756C236.533 193.604 238.2 197.484 237.891 201.611C237.706 204.075 237.459 206.539 237.274 209.003C237.088 211.406 236.842 213.808 237.397 216.149C237.829 217.935 238.632 219.66 238.817 221.446C239.249 224.896 237.521 228.283 237.768 231.733C237.953 234.628 239.558 237.4 239.558 240.295C239.558 244.422 236.286 248.241 237.088 252.245C237.459 254.278 238.817 256.003 239.002 258.035C239.126 259.637 238.509 261.177 238.57 262.779C238.694 265.366 243.139 268.014 245.671 268.199Z" fill="#2ADEF5"/>
<path d="M240.114 184.302C240.114 184.302 240.114 184.364 240.114 184.549C240.114 184.733 240.114 184.918 240.114 185.165C240.114 185.719 240.114 186.581 240.114 187.629C240.176 188.737 240.546 189.969 240.731 191.448C240.978 192.926 241.163 194.651 241.349 196.56C241.472 198.47 241.534 200.564 241.596 202.782C241.657 204.999 241.657 207.463 242.398 209.927C242.707 211.159 243.139 212.391 243.386 213.685C243.633 214.978 243.633 216.333 243.571 217.689C243.386 220.399 243.324 223.294 243.386 226.189C243.633 231.979 243.88 237.523 244.127 242.574C244.436 247.625 244.683 252.122 244.868 255.941C245.115 259.76 245.3 262.779 245.424 264.935C245.485 265.982 245.547 266.782 245.609 267.398C245.609 267.645 245.671 267.891 245.671 268.014C245.671 268.138 245.671 268.261 245.671 268.261C245.671 268.261 245.671 268.199 245.671 268.014C245.671 267.83 245.671 267.645 245.671 267.398C245.671 266.844 245.609 265.982 245.547 264.935C245.424 262.779 245.3 259.699 245.115 255.941C244.93 252.122 244.683 247.564 244.436 242.574C244.189 237.523 243.942 231.979 243.695 226.189C243.633 223.294 243.633 220.46 243.88 217.689C243.942 216.333 243.942 214.917 243.695 213.623C243.448 212.33 243.016 211.098 242.707 209.866C241.966 207.463 241.904 205.061 241.843 202.843C241.781 200.626 241.719 198.531 241.596 196.622C241.472 194.712 241.225 192.988 240.916 191.509C240.669 190.031 240.299 188.737 240.237 187.69C240.176 186.643 240.176 185.781 240.176 185.226C240.176 184.98 240.176 184.733 240.176 184.61C240.114 184.364 240.114 184.302 240.114 184.302Z" fill="#263238"/>
<path d="M206.958 268.199L117.309 268.138C106.504 268.138 97.7988 259.391 97.7988 248.673L97.8606 24.4545C97.8606 13.6748 106.628 4.98947 117.371 4.98947L207.02 5.05107C217.825 5.05107 226.53 13.798 226.53 24.5161L226.469 248.734C226.469 259.514 217.763 268.199 206.958 268.199Z" fill="#455A64"/>
<path d="M207.576 11.7037L190.103 11.6421C187.757 11.6421 185.843 13.6132 185.843 16.0156V19.1571C185.843 21.621 183.929 23.5922 181.582 23.5306L147.624 23.4074C145.278 23.4074 143.426 21.4362 143.426 18.9723V15.8308C143.426 13.3669 141.574 11.3957 139.228 11.3957H133.115L117.865 11.3341C110.271 11.2725 104.096 17.4323 104.096 24.9473L103.047 244.545C102.985 252.122 109.159 258.282 116.692 258.282L206.464 258.713C214.059 258.775 220.233 252.615 220.233 245.1L221.159 25.4401C221.282 17.8635 215.17 11.7037 207.576 11.7037Z" fill="#F5F5F5"/>
<path d="M169.481 217.196C169.357 219.845 169.295 222.308 169.172 224.403H182.076L180.471 216.518L169.481 217.196Z" fill="#F5F5F5"/>
<path d="M117.062 220.522L117.185 224.403H167.937C167.999 222.185 168.122 219.783 168.246 217.257L117.062 220.522Z" fill="#F5F5F5"/>
<path d="M181.15 216.457L182.755 224.403H206.526L206.217 214.855L181.15 216.457Z" fill="#F5F5F5"/>
<path d="M170.777 105.395L175.223 79.4003L163.492 78.5379V105.395H170.777Z" fill="#EBEBEB"/>
<path d="M116.012 206.046L103.232 211.036L103.17 220.091L116.383 219.29L116.012 206.046Z" fill="#F5F5F5"/>
<path d="M115.951 204.014L115.21 179.806V171.305L103.355 172.537L103.232 209.003L115.951 204.014Z" fill="#EBEBEB"/>
<path d="M115.21 152.21L103.479 150.67L103.355 170.566L115.21 169.334V152.21Z" fill="#F5F5F5"/>
<path d="M202.883 171.613L202.327 178.574L188.497 180.052L189.547 185.534L205.291 184.364L205.044 176.479L206.34 171.305L202.883 171.613Z" fill="#F5F5F5"/>
<path d="M177.816 186.458L188.93 185.596L186.46 173.276L176.828 174.262L177.816 186.458Z" fill="#F5F5F5"/>
<path d="M177.939 187.752L178.804 197.977L180.286 212.083L180.903 215.163L206.217 213.623L205.353 185.657L177.939 187.752Z" fill="#EBEBEB"/>
<path d="M134.411 139.212L135.399 140.875L115.889 152.21V179.128L136.449 177.65L176.149 173.646L174.667 155.967L136.758 151.039L137.005 149.13L174.482 153.996L172.012 124.121L134.905 127.693L134.782 126.4L171.889 122.827L170.592 107.243H134.905L103.54 112.91L103.417 148.575L115.271 150.115L134.411 139.212ZM117.865 176.541C117.865 176.541 117.988 154.365 117.865 153.503L133.794 145.064L135.831 175.432L117.865 176.541Z" fill="#F5F5F5"/>
<path d="M201.525 171.736L187.139 173.215L188.251 178.82L201.155 177.403L201.525 171.736Z" fill="#F5F5F5"/>
<path d="M169.666 212.453C169.604 213.623 169.604 214.793 169.542 215.902L180.286 215.225L179.73 212.453H169.666Z" fill="#F5F5F5"/>
<path d="M146.513 105.395L148.427 96.8326H162.813V78.4763L117.741 75.15V92.3975L103.726 95.6006L103.603 111.062L134.782 105.395H146.513Z" fill="#EBEBEB"/>
<path d="M176.581 54.2682L176.211 52.6666L193.437 45.8908L182.261 23.469C182.076 23.469 181.829 23.5306 181.644 23.5306L162.627 23.469L163.121 54.8225L176.581 54.2682Z" fill="#F5F5F5"/>
<path d="M202.698 42.2565V11.6421L190.164 11.5805C187.818 11.5805 185.904 13.5517 185.904 15.954V19.0955C185.904 20.5739 185.163 21.929 184.052 22.7298L195.227 45.1516L202.698 42.2565Z" fill="#EBEBEB"/>
<path d="M137.993 43.55L136.572 11.3341H133.115L119.532 11.2725L113.728 40.1005L137.993 43.55ZM134.905 14.5988L135.399 40.8397L117.247 38.191L121.199 14.5988H134.905Z" fill="#F5F5F5"/>
<path d="M138.672 43.6732V43.9196C138.733 46.4452 138.733 50.9418 138.795 55.8081L162.504 54.8225L162.01 23.4074H147.624C145.278 23.4074 143.426 21.4362 143.426 18.9723V15.8308C143.426 13.3669 141.573 11.3957 139.227 11.3957H137.251L138.672 43.6732Z" fill="#F5F5F5"/>
<path d="M111.752 39.7925L117.494 11.2725C110.085 11.3957 104.034 17.4323 104.034 24.8857L103.973 39.115L104.034 38.6838L111.752 39.7925Z" fill="#F5F5F5"/>
<path d="M115.827 75.0268L103.787 74.1028L103.726 93.6295L115.827 90.8576V75.0268Z" fill="#F5F5F5"/>
<path d="M111.629 40.4701L103.911 39.3614L103.788 70.8997L105.455 71.0229L111.629 40.4701Z" fill="#F5F5F5"/>
<path d="M135.955 203.644L136.14 178.327L115.889 179.744L116.568 204.568L135.955 203.644Z" fill="#F5F5F5"/>
<path d="M139.659 197.854L168.369 211.59C168.74 202.597 168.987 194.22 168.987 193.727L169.604 193.665L169.913 193.049C170.345 193.234 170.345 193.234 170.098 199.394C169.975 202.782 169.789 207.34 169.666 211.898H179.606L178.125 198.162L176.149 174.447L138.61 178.204L139.659 197.854Z" fill="#F5F5F5"/>
<path d="M210.045 155.782L209.736 152.456L175.346 156.029L176.766 173.646L206.464 170.627L210.045 155.782Z" fill="#F5F5F5"/>
<path d="M162.813 98.8038H149.971L148.489 105.395H162.813V98.8038Z" fill="#F5F5F5"/>
<path d="M204.735 101.021L172.506 98.8038L171.209 106.38L172.568 122.827L206.526 119.562L204.735 101.021ZM173.741 106.38L175.47 101.576L203.439 103.362L205.044 117.037L174.667 120.61L173.741 106.38Z" fill="#F5F5F5"/>
<path d="M208.069 135.455L206.649 120.856L172.691 124.121L173.988 139.643L208.069 135.455Z" fill="#F5F5F5"/>
<path d="M116.383 220.522L103.232 221.384L103.17 220.522V224.403H116.506L116.383 220.522Z" fill="#F5F5F5"/>
<path d="M220.974 35.0495L221.159 35.5423L221.221 25.4401C221.282 17.8635 215.17 11.7037 207.576 11.7037H203.315V42.0717L220.974 35.0495Z" fill="#EBEBEB"/>
<path d="M168.369 212.268L139.042 198.285L137.992 178.204L136.757 178.327L136.572 204.322L116.568 205.246V205.8L116.938 219.229L168.122 216.025C168.246 214.732 168.307 213.5 168.369 212.268ZM117.864 206.909L145.833 204.938L164.047 213.377L117.864 215.841V206.909Z" fill="#F5F5F5"/>
<path d="M212.638 68.7438L213.812 61.66C203.315 57.9025 202.575 46.9996 202.575 43.6732L195.721 46.3836L206.032 67.0806L212.638 68.7438Z" fill="#F5F5F5"/>
<path d="M175.161 154.119L189.485 152.641L186.645 140.013L174.111 141.553L175.161 154.119Z" fill="#F5F5F5"/>
<path d="M205.97 81.0634H179.298L177.075 80.9402L174.05 98.3726L205.785 100.529L205.044 92.9519L208.131 81.741L205.97 81.0634Z" fill="#F5F5F5"/>
<path d="M204.118 76.382L204.427 68.0662L193.93 47.0611L177.692 53.4674L183.311 76.382H204.118ZM193.375 49.6483L203.007 67.8814L201.648 73.5484L185.225 72.9325L181.088 55.6849L193.375 49.6483Z" fill="#F5F5F5"/>
<path d="M208.316 176.849L208.81 193.172L220.356 192.556L220.418 193.172L208.81 193.85L209.428 213.377L220.356 212.699L220.418 213.993L209.428 214.67L209.736 224.403H220.418L220.603 169.827L209.736 170.935L208.316 176.849Z" fill="#F5F5F5"/>
<path d="M137.993 44.2276L113.481 40.7165L107.369 71.1461L138.116 73.4252C138.24 68.7438 138.116 54.3914 137.993 44.2276Z" fill="#EBEBEB"/>
<path d="M178.31 76.382H182.015L176.766 54.9457L163.122 55.5001L163.43 75.3348L178.31 76.382Z" fill="#F5F5F5"/>
<path d="M138.733 73.4868L162.813 75.2732L162.504 55.5001L138.795 56.4857C138.795 63.1383 138.857 70.2837 138.733 73.4868Z" fill="#F5F5F5"/>
<path d="M208.254 137.364L187.262 139.951L190.102 152.518L209.551 150.546L208.254 137.364Z" fill="#F5F5F5"/>
<path d="M213.997 60.9824L215.355 53.0362L221.159 53.4674L221.22 36.343L203.315 43.4268C202.945 55.4385 210.539 59.6888 213.997 60.9824Z" fill="#EBEBEB"/>
<path d="M207.082 91.7815L207.822 99.2965L220.912 100.221L220.973 84.6977L210.045 81.2482L207.082 91.7815Z" fill="#F5F5F5"/>
<path d="M213.317 156.029L209.86 170.319L220.603 169.211L220.665 154.242C217.392 153.38 214.49 152.641 212.947 152.394L213.317 156.029Z" fill="#F5F5F5"/>
<path d="M206.094 76.6284L220.974 81.3714L221.035 72.8709L206.402 69.1134L206.094 76.6284Z" fill="#F5F5F5"/>
<path d="M212.762 150.423C213.935 150.608 216.219 151.101 220.665 152.271L220.788 119.562L209.86 120.61L212.762 150.423Z" fill="#F5F5F5"/>
<path d="M209.737 119.316L220.85 118.207L220.912 102.13L208.008 101.268L209.737 119.316Z" fill="#F5F5F5"/>
<path d="M215.231 61.4136C217.331 62.0295 219.306 62.5223 221.097 62.8919L221.159 54.7609L216.466 54.3913L215.231 61.4136Z" fill="#F5F5F5"/>
<path d="M213.935 69.0518L221.035 70.8997L221.097 63.5695C219.245 63.1999 217.269 62.7071 215.108 62.0295L213.935 69.0518Z" fill="#F5F5F5"/>
<path d="M220.418 213.993L220.356 212.699L209.428 213.377L208.81 193.788L220.418 193.111L220.356 192.495L208.81 193.172L208.316 176.849L209.736 170.935L220.665 169.827V169.211L209.922 170.319L213.379 156.029L213.009 152.394C214.552 152.702 217.454 153.38 220.727 154.242V152.271C216.281 151.101 213.997 150.608 212.824 150.423L209.922 120.61L220.85 119.562V118.269L209.798 119.316L208.069 101.268L220.973 102.13V100.221L207.884 99.2965L207.143 91.7815L210.045 81.2482L221.035 84.6977V81.3098L206.094 76.6284L206.402 69.1134L221.035 72.8709V70.8997L213.935 69.0518L215.108 62.0295C217.269 62.6455 219.245 63.1999 221.097 63.5695V62.8919C219.306 62.5223 217.331 62.0295 215.232 61.4136L216.405 54.3913L221.097 54.7609V53.4674L215.293 53.0362L213.997 60.9824C210.539 59.6888 202.945 55.4385 203.315 43.3652L221.22 36.2814V35.4807L221.035 34.9879L203.377 41.9485V11.5805H202.76V42.1949L195.289 45.1516L183.99 22.7914C183.434 23.161 182.879 23.4074 182.2 23.5306L193.375 45.9524L176.149 52.7282L176.519 54.3298L163.121 54.8225L162.628 23.469H162.01L162.504 54.8841L138.795 55.8697C138.733 51.0034 138.733 46.5068 138.672 43.9812V43.7348L137.19 11.3957H136.572L137.993 43.6116L113.666 40.1005L119.47 11.2725H117.803C117.68 11.2725 117.618 11.2725 117.494 11.2725L111.752 39.7925L104.035 38.6838L103.973 39.115V39.3614L111.629 40.4701L105.455 71.0229L103.788 70.8997V74.1028L115.827 74.9652V90.796L103.726 93.6295V95.6006L117.803 92.3975V75.15L162.874 78.4763V96.8326H148.489L146.575 105.395H134.844L103.664 111.062V113.033L135.029 107.366H170.716L172.012 122.95L134.905 126.523L135.029 127.817L172.136 124.244L174.605 154.119L137.128 149.253L136.881 151.162L174.791 156.09L176.272 173.769L136.572 177.773L116.012 179.251V152.333L135.523 140.999L134.535 139.335L115.457 150.423L103.602 148.883V150.854L115.333 152.394V169.519L103.479 170.751V172.66L115.333 171.428V179.99L116.012 204.199L103.294 209.188V211.282L116.074 206.293L116.445 219.475L103.232 220.337V220.768L103.294 221.631L116.506 220.768L116.63 224.649H117.247L117.124 220.768L168.246 217.565C168.123 220.091 168.061 222.493 167.937 224.711H169.234C169.296 222.616 169.419 220.153 169.543 217.504L180.594 216.826L182.2 224.711H182.879L181.274 216.765L206.341 215.163L206.649 224.711H209.86M169.543 215.902C169.604 214.732 169.604 213.623 169.666 212.453H179.73L180.286 215.225L169.543 215.902ZM180.903 215.163L180.286 212.083L178.804 197.977L177.939 187.69L205.353 185.657L206.217 213.561L180.903 215.163ZM187.139 173.215L201.587 171.736L201.154 177.403L188.25 178.82L187.139 173.215ZM186.46 173.276L188.868 185.596L177.816 186.458L176.828 174.262L186.46 173.276ZM205.291 184.364L189.547 185.534L188.497 180.052L202.389 178.574L202.883 171.613L206.341 171.243L205.106 176.479L205.291 184.364ZM186.645 140.013L189.485 152.579L175.223 154.057L174.173 141.491L186.645 140.013ZM190.103 152.518L187.262 139.89L208.255 137.303L209.551 150.485L190.103 152.518ZM204.55 99.0502L172.877 96.8326L175.902 79.4003L178.125 79.5851H204.797L206.958 80.2627L203.809 91.4736L204.55 99.0502ZM202.636 43.6732C202.574 46.9995 203.315 57.9025 213.873 61.66L212.7 68.7438L206.155 67.0806L195.845 46.3836L202.636 43.6732ZM193.992 47.0611L204.488 68.0662L204.18 76.382H183.373L177.754 53.4674L193.992 47.0611ZM176.766 54.9457L182.014 76.4436H178.31L163.492 75.3348L163.183 55.5001L176.766 54.9457ZM162.504 55.5001L162.813 75.2732L138.733 73.4868C138.857 70.2837 138.795 63.1383 138.733 56.4857L162.504 55.5001ZM113.543 40.7165L138.054 44.2276C138.178 54.3914 138.301 68.7438 138.178 73.4252L107.43 71.1461L113.543 40.7165ZM175.223 79.4003L170.716 105.395H163.43V78.5379L175.223 79.4003ZM149.97 98.8038H162.813V105.456H148.489L149.97 98.8038ZM171.21 106.38L172.506 98.8038L204.735 101.021L206.526 119.624L172.568 122.889L171.21 106.38ZM206.649 120.856L208.069 135.455L173.926 139.643L172.63 124.121L206.649 120.856ZM175.346 156.029L209.798 152.456L210.107 155.782L206.526 170.627L176.828 173.646L175.346 156.029ZM178.125 198.039L179.606 211.775H169.666C169.851 207.217 170.037 202.72 170.098 199.271C170.284 193.172 170.284 193.172 169.913 192.926L169.604 193.542L168.987 193.604C168.987 194.158 168.74 202.535 168.37 211.467L139.66 197.731L138.672 178.019L176.211 174.262L178.125 198.039ZM136.14 178.327L135.955 203.644L116.568 204.568L115.827 179.744L136.14 178.327ZM116.63 205.8V205.184L136.634 204.26L136.819 178.266L138.054 178.142L139.104 198.223L168.431 212.206C168.369 213.438 168.308 214.732 168.308 215.964L117.124 219.167L116.63 205.8Z" fill="white"/>
<path d="M145.834 204.938L117.865 206.909V215.841L164.048 213.315L145.834 204.938Z" fill="#E0E0E0"/>
<path d="M203.439 103.362L175.47 101.576L173.741 106.38L174.667 120.61L205.044 117.037L203.439 103.362Z" fill="#E0E0E0"/>
<path d="M103.17 194.096L103.108 240.049V244.977C103.294 252.368 109.283 258.282 116.753 258.343L206.526 258.775C214.12 258.836 220.294 252.676 220.294 245.161L220.356 194.158H103.17V194.096Z" fill="white"/>
<path d="M135.893 42.5645L135.461 16.3236H121.754L117.803 39.9157L135.893 42.5645Z" fill="#E0E0E0"/>
<path d="M201.586 73.5484L202.945 67.8814L193.375 49.6483L181.026 55.6849L185.163 72.9325L201.586 73.5484Z" fill="#EBEBEB"/>
<path d="M117.865 153.503C117.988 154.304 117.865 176.541 117.865 176.541L135.832 175.432L133.794 145.064L117.865 153.503Z" fill="#E0E0E0"/>
<path d="M177.816 171.551L176.89 157.815L207.699 153.873V156.213L203.995 168.841L177.816 171.551Z" fill="#E0E0E0"/>
<path d="M206.588 206.601L206.217 197.607L179.113 198.901C178.372 198.963 177.692 198.778 177.075 198.47L138.61 179.066C137.746 178.635 137.128 177.711 137.066 176.726L131.818 75.458C131.818 74.9652 132.004 74.4724 132.312 74.1644C132.683 73.7948 133.115 73.6716 133.609 73.6716L150.094 74.9036V57.0401H152.008V75.2732C152.008 75.766 151.823 76.1972 151.452 76.5052C151.082 76.8132 150.65 76.998 150.156 76.9364L133.671 75.7044L138.919 176.726C138.919 177.034 139.104 177.28 139.413 177.465L177.878 196.868C178.186 197.053 178.557 197.115 178.989 197.115L206.341 195.76C206.835 195.76 207.267 195.883 207.576 196.191C207.884 196.499 208.131 196.93 208.131 197.361L208.502 206.539L206.588 206.601Z" fill="white"/>
<path d="M204.242 91.72C204.242 82.6034 196.03 75.458 186.584 77.2443C180.656 78.3531 175.902 83.2194 174.914 89.1328C174.235 92.8287 175.038 96.3398 176.705 99.235L176.767 99.2966C177.322 100.221 178.063 100.96 178.742 101.945L187.324 113.279C188.374 114.696 190.535 114.696 191.585 113.279L200.043 102.13C200.043 102.13 201.649 100.282 202.204 99.2966V99.235C203.501 97.0174 204.242 94.4303 204.242 91.72ZM189.485 98.1878C185.904 98.1878 183.003 95.2927 183.003 91.72C183.003 88.1472 185.904 85.2521 189.485 85.2521C193.066 85.2521 195.968 88.1472 195.968 91.72C195.968 95.2311 193.066 98.1878 189.485 98.1878Z" fill="#2ADEF5"/>
<path d="M205.6 218.366C205.6 218.428 188.868 218.551 168.185 218.551C147.501 218.551 130.769 218.489 130.769 218.366C130.769 218.305 147.501 218.181 168.185 218.181C188.806 218.181 205.6 218.305 205.6 218.366Z" fill="#263238"/>
<path d="M169.172 224.403C169.172 224.464 160.59 224.588 149.971 224.588C139.351 224.588 130.769 224.526 130.769 224.403C130.769 224.28 139.351 224.218 149.971 224.218C160.59 224.218 169.172 224.341 169.172 224.403Z" fill="#263238"/>
<path d="M144.97 236.23C150.732 236.23 155.404 236.147 155.404 236.045C155.404 235.943 150.732 235.86 144.97 235.86C139.207 235.86 134.535 235.943 134.535 236.045C134.535 236.147 139.207 236.23 144.97 236.23Z" fill="#E0E0E0"/>
<path d="M209.119 241.342C209.119 241.404 192.387 241.527 171.827 241.527C151.205 241.527 134.535 241.466 134.535 241.342C134.535 241.281 151.267 241.158 171.827 241.158C192.449 241.158 209.119 241.219 209.119 241.342Z" fill="#E0E0E0"/>
<path d="M121.014 244.915C124.526 244.915 127.373 242.074 127.373 238.57C127.373 235.066 124.526 232.226 121.014 232.226C117.501 232.226 114.654 235.066 114.654 238.57C114.654 242.074 117.501 244.915 121.014 244.915Z" fill="#F5F5F5"/>
<path d="M121.755 238.447C122.434 238.139 122.928 237.462 122.989 236.599C122.989 235.491 122.187 234.628 121.137 234.567C120.088 234.567 119.285 235.429 119.223 236.538C119.223 237.4 119.717 238.078 120.396 238.386C117.494 238.755 117.618 241.897 117.618 241.897L124.41 242.02C124.41 242.02 124.595 238.878 121.755 238.447Z" fill="#E0E0E0"/>
<path d="M162.195 252.122C162.133 252.122 162.01 252.06 161.948 251.999L158.861 248.796C158.738 248.673 158.738 248.488 158.861 248.365C158.985 248.241 159.17 248.241 159.293 248.365L162.133 251.321L164.974 248.365C165.097 248.241 165.282 248.241 165.406 248.365C165.529 248.488 165.529 248.673 165.406 248.796L162.38 251.937C162.319 252.06 162.257 252.122 162.195 252.122Z" fill="#263238"/>
<path d="M43.0195 67.3592C43.5134 67.236 44.1926 67.236 44.4396 66.7432C44.7483 66.2505 44.3778 65.5729 43.8839 65.2033C43.39 64.8337 42.8343 64.5257 42.5873 64.0329C42.2786 63.4169 42.5256 62.6162 42.896 62.0618C43.5752 61.0146 44.7483 60.2754 46.0449 60.0906C47.2797 59.9674 48.638 60.3986 49.5641 61.261L51.0459 61.1378C51.1694 62.8625 51.2929 64.6489 50.9842 66.3737C50.6755 68.0984 49.8728 69.7616 48.4528 70.8087C47.8354 71.2399 47.1562 71.5479 46.4153 71.5479C45.6744 71.5479 44.9335 71.1167 44.6248 70.4391C44.3161 69.7616 44.6248 68.8376 45.304 68.5912C44.5013 68.776 43.6987 68.9608 42.896 68.8376C42.6491 68.8376 42.3403 68.7144 42.2169 68.468C41.9699 68.0368 42.5256 67.4824 43.0195 67.3592Z" fill="#263238"/>
<path d="M51.6014 68.9608C50.6752 66.6816 49.8109 64.3409 49.3169 61.9386C48.823 59.5362 48.7613 56.9491 49.5022 54.6084C49.6256 54.2388 50.6135 51.8364 50.984 51.8364C51.2309 51.8364 50.6752 54.054 50.8605 54.3004C52.2805 56.4563 52.7745 59.0434 52.7127 61.6306C52.5892 64.1561 52.157 66.4968 51.6014 68.9608Z" fill="#263238"/>
<path d="M60.4304 93.3537C56.6024 93.4769 52.3422 86.3931 52.157 82.574L50.7986 59.5978C50.243 53.438 53.3918 47.9557 59.566 47.5862H60.1216C65.9254 47.5862 70.7412 51.9596 71.2352 57.6883C71.6674 63.0473 72.0996 68.9608 72.0996 71.7943C72.0378 77.7077 66.1106 78.6933 66.1106 78.6933C66.1106 78.6933 66.1723 80.0485 66.2341 81.8348C66.4193 85.7155 66.1723 94.7705 62.2209 94.8937L60.4304 93.3537Z" fill="#FFBE9D"/>
<path d="M66.049 78.6933C66.049 78.6933 62.2827 78.9397 58.2695 76.4142C58.2695 76.4142 60.1835 80.7261 66.1107 80.1717L66.049 78.6933Z" fill="#EB996E"/>
<path d="M69.3213 62.6162C69.3213 63.0473 68.9509 63.4169 68.5187 63.4785C68.0247 63.4785 67.6543 63.1705 67.6543 62.7394C67.6543 62.3082 68.0247 61.877 68.4569 61.877C68.8891 61.8154 69.3213 62.185 69.3213 62.6162Z" fill="#263238"/>
<path d="M69.9388 60.1522C69.8154 60.2754 69.1979 59.7826 68.2718 59.7826C67.3457 59.7826 66.6665 60.2754 66.6048 60.1522C66.543 60.0906 66.6665 59.9058 66.9752 59.6594C67.2839 59.4746 67.7779 59.2282 68.3336 59.2282C68.8892 59.2282 69.3832 59.413 69.6301 59.6594C69.9388 59.9058 70.0006 60.1522 69.9388 60.1522Z" fill="#263238"/>
<path d="M61.0479 62.9241C61.0479 63.3553 60.6774 63.7249 60.2452 63.7865C59.7513 63.7865 59.3809 63.4785 59.3809 63.0473C59.3809 62.6162 59.7513 62.185 60.1835 62.185C60.6157 62.1234 60.9861 62.493 61.0479 62.9241Z" fill="#263238"/>
<path d="M60.9862 60.5834C60.8627 60.7066 60.2453 60.2138 59.3192 60.2138C58.3931 60.2138 57.7139 60.7066 57.6522 60.5834C57.5904 60.5218 57.7139 60.337 58.0226 60.0906C58.3313 59.9058 58.8252 59.6594 59.3809 59.6594C59.9366 59.6594 60.4305 59.8442 60.6775 60.0906C60.9862 60.337 61.048 60.5218 60.9862 60.5834Z" fill="#263238"/>
<path d="M64.3202 67.6056C64.3202 67.544 64.8759 67.4824 65.802 67.3592C66.049 67.3592 66.2342 67.2976 66.2959 67.1128C66.3577 66.928 66.2342 66.6816 66.1107 66.4353C65.8638 65.8809 65.6785 65.2649 65.4316 64.6489C64.4437 62.1234 63.7645 60.029 63.888 60.029C64.0115 59.9674 64.8759 62.0002 65.802 64.5257C66.049 65.1417 66.2342 65.7577 66.4812 66.3121C66.5429 66.5584 66.7281 66.8664 66.6047 67.236C66.5429 67.4208 66.3577 67.544 66.2342 67.6056C66.1107 67.6672 65.9255 67.6672 65.8638 67.6672C64.8759 67.6056 64.3202 67.6056 64.3202 67.6056Z" fill="#263238"/>
<path d="M61.6037 68.2216C61.7272 68.2216 61.7272 69.2072 62.5916 69.8848C63.4559 70.5623 64.5055 70.5007 64.5055 70.6239C64.5055 70.6855 64.2586 70.8087 63.8264 70.8087C63.3942 70.8087 62.7768 70.6855 62.2211 70.2543C61.7272 69.8232 61.4802 69.2688 61.4185 68.8376C61.4185 68.468 61.5419 68.2216 61.6037 68.2216Z" fill="#263238"/>
<path d="M60.9245 56.8875C60.8628 57.1339 59.9367 57.0107 58.8253 57.1339C57.7757 57.2571 56.9113 57.5651 56.7261 57.3187C56.6644 57.1955 56.7878 56.9491 57.1583 56.7643C57.5287 56.5179 58.0844 56.2715 58.7018 56.2099C59.3193 56.1483 59.9367 56.2099 60.3071 56.3947C60.8011 56.5795 60.9863 56.7643 60.9245 56.8875Z" fill="#263238"/>
<path d="M69.5681 57.1339C69.3829 57.3187 68.7655 57.1339 68.0246 57.1339C67.2837 57.0723 66.6045 57.2571 66.4811 57.0723C66.4193 56.9491 66.5428 56.7643 66.7898 56.5795C67.0367 56.3947 67.5307 56.2099 68.0246 56.2099C68.5185 56.2099 69.0125 56.3947 69.2594 56.6411C69.5681 56.8259 69.6299 57.0723 69.5681 57.1339Z" fill="#263238"/>
<path d="M51.2927 63.9713C51.1692 63.9097 47.2177 62.8009 47.3412 66.8664C47.4647 70.9319 51.5397 69.9464 51.5397 69.8232C51.5397 69.7 51.2927 63.9713 51.2927 63.9713Z" fill="#FFBE9D"/>
<path d="M50.2432 68.2832C50.2432 68.2832 50.1814 68.3448 50.058 68.4064C49.9345 68.468 49.7493 68.5296 49.5023 68.4064C49.0701 68.2832 48.6996 67.6672 48.6379 66.928C48.6379 66.5585 48.6996 66.1889 48.8231 65.8809C48.9466 65.5729 49.1318 65.3881 49.3171 65.3265C49.5023 65.2649 49.6875 65.3881 49.7493 65.5113C49.811 65.6345 49.811 65.6961 49.811 65.6961C49.811 65.6961 49.8727 65.6345 49.8727 65.4497C49.8727 65.3881 49.811 65.2649 49.6875 65.2033C49.564 65.1417 49.4405 65.0801 49.3171 65.1417C49.0084 65.2033 48.7614 65.4497 48.5762 65.8193C48.4527 66.1273 48.3292 66.5584 48.3909 66.9896C48.4527 67.7904 48.8849 68.5296 49.5023 68.7144C49.811 68.776 49.9962 68.7144 50.1197 68.5912C50.2432 68.4064 50.2432 68.3448 50.2432 68.2832Z" fill="#EB996E"/>
<path d="M68.2718 51.0973C68.8892 50.7277 66.8517 48.6949 65.1847 48.0173C62.715 47.0318 58.9488 46.4774 56.7261 47.2166C54.0712 48.0789 51.8485 49.5573 50.6136 52.0828C49.3788 54.6084 48.9466 57.5035 49.1936 60.337C49.2553 61.1994 49.3788 62.0618 49.8727 62.8009C50.4902 63.6633 51.6015 64.2177 51.6015 65.4497C51.6015 65.8809 51.725 66.3737 52.0954 66.6816C52.8981 67.4208 53.7625 66.6816 54.1329 65.8809C54.9356 64.2793 54.9973 62.3698 54.9973 60.5218C54.9973 59.2282 54.9973 57.8731 54.5651 56.7027C54.3181 56.0251 54.0094 55.4091 53.8242 54.7316C53.639 54.054 53.639 53.2532 54.0094 52.6988C54.0712 52.5756 54.1947 52.514 54.3181 52.3292C55.4295 51.2821 57.0348 50.9125 58.5166 51.3437C60.8628 52.0212 64.8143 53.0684 65.8021 52.2676C67.2222 51.0973 67.5309 50.3581 67.5309 50.3581L68.2718 51.0973Z" fill="#263238"/>
<path d="M56.911 46.6622C59.1337 45.7998 61.6651 45.7382 63.8261 46.7238C64.9375 47.2782 65.9871 48.1405 66.4193 49.3109C66.7897 50.4813 66.3575 52.0212 65.2462 52.514L65.1844 52.5756C63.4557 53.2532 62.3443 53.0684 60.5538 52.514C59.072 52.0828 57.7137 51.2205 56.2319 50.7893C54.6883 50.3581 52.9596 50.3581 51.416 50.8509C52.8361 49.0645 54.7501 47.5246 56.911 46.6622Z" fill="#263238"/>
<path d="M51.7866 50.2965C51.7866 50.3581 52.4658 49.8037 53.7624 49.8037C54.3798 49.8037 55.1207 49.8653 55.9233 50.1733C56.726 50.4197 57.5286 50.9125 58.393 51.3437C59.2574 51.8364 60.06 52.2676 60.8627 52.5756C61.6653 52.8836 62.4679 53.0068 63.0854 53.0068C63.7645 53.0068 64.2585 52.8836 64.5672 52.6988C64.8759 52.5756 65.0611 52.4524 65.0611 52.3908C65.0611 52.3292 64.3202 52.7604 63.0854 52.7604C62.4679 52.7604 61.727 52.5756 60.9244 52.2676C60.1218 51.9596 59.3191 51.5284 58.5165 51.0357C57.6521 50.5429 56.8494 50.1117 55.9851 49.8653C55.1824 49.5573 54.3798 49.4957 53.7006 49.5573C53.0215 49.6189 52.5275 49.8037 52.2188 49.9269C51.9718 50.1733 51.7866 50.2965 51.7866 50.2965Z" fill="#455A64"/>
<path d="M53.4536 48.8797C53.4536 48.9413 54.1328 48.5101 55.2441 48.5101C55.7998 48.5101 56.479 48.6333 57.2199 48.8797C57.9608 49.1261 58.6399 49.5573 59.4426 49.9885C60.1835 50.4813 60.9244 50.9125 61.5418 51.3437C62.2209 51.7132 62.8384 52.0212 63.4558 52.206C64.0115 52.3908 64.5054 52.4524 64.8141 52.4524C65.1228 52.4524 65.308 52.4524 65.308 52.3908C65.308 52.3292 64.5671 52.3908 63.5175 51.9596C62.9618 51.7748 62.3444 51.4669 61.727 51.0973C61.0478 50.7277 60.3687 50.2349 59.6278 49.7421C58.8869 49.2493 58.0842 48.8797 57.3433 48.6333C56.6024 48.3869 55.8615 48.2637 55.3059 48.3253C54.6884 48.3253 54.2563 48.5101 53.9475 48.6333C53.5771 48.7565 53.4536 48.8797 53.4536 48.8797Z" fill="#455A64"/>
<path d="M62.8999 47.2166C62.8999 47.2782 63.0851 47.5246 63.4556 47.8942C63.826 48.3253 64.32 48.8797 64.6904 49.6189C65.0609 50.3581 65.1843 51.0973 65.1226 51.6516C65.1226 52.206 64.9374 52.514 64.9991 52.514C64.9991 52.514 65.2461 52.206 65.3696 51.6516C65.4931 51.0973 65.3696 50.2349 64.9374 49.4341C64.5052 48.6333 63.9495 48.0789 63.5791 47.7094C63.2704 47.3398 62.9616 47.155 62.8999 47.2166Z" fill="#455A64"/>
<path d="M65.8636 49.0029C65.8018 49.0645 66.1106 49.8653 65.9253 50.8509C65.7401 51.898 65.1227 52.514 65.2462 52.5756C65.2462 52.5756 65.4931 52.4524 65.6784 52.206C65.9253 51.898 66.1723 51.4669 66.234 50.9125C66.3575 50.3581 66.2958 49.8653 66.1723 49.4957C65.9871 49.1877 65.8636 49.0029 65.8636 49.0029Z" fill="#455A64"/>
<path d="M49.07 60.4602C49.0083 60.4602 48.9466 61.261 49.1318 62.185C49.317 63.1705 49.8109 63.7865 49.8727 63.7865C49.9344 63.7249 49.6257 63.0473 49.4405 62.1234C49.1935 61.261 49.1318 60.4602 49.07 60.4602Z" fill="#FF725E"/>
<path d="M44.872 248.027L45.4277 261.332C45.4277 261.332 32.0297 266.383 31.9062 268.847L57.8378 268.663L57.7761 247.842L44.872 248.027Z" fill="#455A64"/>
<path d="M53.4539 260.224C53.9478 260.347 54.3183 260.901 54.1948 261.394C54.0713 261.887 53.5156 262.256 53.0217 262.133C52.5278 262.01 52.0956 261.332 52.2191 260.84C52.4043 260.347 53.0835 259.977 53.5156 260.224" fill="#E0E0E0"/>
<path d="M57.8994 268.724L57.8377 266.63L33.0175 267.615C33.0175 267.615 31.8444 268.108 32.0296 268.909L57.8994 268.724Z" fill="white"/>
<path d="M45.0571 261.271C45.0571 261.394 45.6745 261.456 46.3536 261.825C46.9711 262.195 47.3415 262.749 47.4033 262.688C47.5267 262.688 47.3415 261.887 46.5389 261.456C45.798 260.963 44.9953 261.148 45.0571 261.271Z" fill="#263238"/>
<path d="M42.3408 262.38C42.3408 262.503 42.8348 262.688 43.2669 263.242C43.6991 263.735 43.8226 264.351 43.9461 264.351C44.0696 264.351 44.1313 263.612 43.5757 262.996C43.0817 262.318 42.3408 262.256 42.3408 262.38Z" fill="#263238"/>
<path d="M40.7972 265.644C40.9207 265.644 41.1059 265.028 40.7354 264.351C40.4267 263.673 39.8093 263.365 39.7476 263.488C39.6858 263.612 40.0563 263.981 40.3032 264.536C40.6119 265.09 40.6737 265.644 40.7972 265.644Z" fill="#263238"/>
<path d="M45.2425 258.191C45.3043 258.314 45.8599 258.129 46.6008 258.191C47.3418 258.191 47.8974 258.437 47.9592 258.376C48.0209 258.314 47.4652 257.821 46.6626 257.76C45.7982 257.698 45.1808 258.129 45.2425 258.191Z" fill="#263238"/>
<path d="M84.0776 248.027L83.5219 261.332C83.5219 261.332 96.9199 266.383 97.0434 268.847L71.1118 268.663L71.1736 247.842L84.0776 248.027Z" fill="#455A64"/>
<path d="M75.4958 260.224C75.0019 260.347 74.6314 260.901 74.7549 261.394C74.8784 261.887 75.434 262.256 75.928 262.133C76.4219 262.01 76.8541 261.332 76.7306 260.84C76.5454 260.347 75.8662 259.977 75.434 260.224" fill="#E0E0E0"/>
<path d="M71.0503 268.724L71.112 266.63L95.9322 267.615C95.9322 267.615 97.1053 268.108 96.9201 268.909L71.0503 268.724Z" fill="white"/>
<path d="M83.8928 261.271C83.8928 261.394 83.2754 261.456 82.5962 261.825C81.9788 262.195 81.6083 262.749 81.5466 262.688C81.4231 262.688 81.6083 261.887 82.411 261.456C83.1519 260.963 83.9545 261.148 83.8928 261.271Z" fill="#263238"/>
<path d="M86.609 262.38C86.609 262.503 86.1151 262.688 85.6211 263.242C85.1889 263.735 85.0655 264.351 84.942 264.351C84.8185 264.351 84.7567 263.612 85.3124 262.996C85.8681 262.318 86.609 262.256 86.609 262.38Z" fill="#263238"/>
<path d="M88.1527 265.644C88.0292 265.644 87.844 265.028 88.2145 264.351C88.5232 263.673 89.1406 263.365 89.2023 263.488C89.2641 263.612 88.8936 263.981 88.6467 264.536C88.2762 265.09 88.2762 265.644 88.1527 265.644Z" fill="#263238"/>
<path d="M83.7072 258.191C83.6454 258.314 83.0897 258.129 82.3488 258.191C81.6079 258.191 81.0523 258.437 80.9905 258.376C80.9288 258.314 81.4845 257.821 82.2871 257.76C83.1515 257.698 83.7689 258.129 83.7072 258.191Z" fill="#263238"/>
<path d="M39.3154 147.56C39.3154 148.361 44.5635 258.068 44.5635 258.068L58.2084 258.191L62.6538 164.869C62.6538 164.869 68.3341 213.902 68.3341 214.949C68.3341 216.058 69.9393 258.684 69.9393 258.684H84.3252V157.046L75.1257 142.14L39.3154 147.56Z" fill="#263238"/>
<path d="M77.0396 258.745C77.0396 258.745 77.0396 258.684 77.0396 258.499C77.0396 258.314 77.0396 258.068 77.0396 257.76C77.0396 257.082 77.0396 256.158 77.0396 254.988C76.9779 252.585 76.9162 249.013 76.7927 244.701C76.5457 236.016 76.0518 224.004 75.4343 210.76C74.8169 197.517 74.1995 185.505 73.7673 176.819C73.5821 172.508 73.3969 168.997 73.2734 166.533C73.2116 165.362 73.2116 164.377 73.1499 163.761C73.1499 163.453 73.1499 163.206 73.1499 163.021C73.1499 163.206 73.2116 163.453 73.2116 163.761C73.2734 164.438 73.3351 165.362 73.3969 166.533C73.5204 168.997 73.7673 172.508 74.0143 176.819C74.5082 185.505 75.1256 197.517 75.7431 210.76C76.3605 224.004 76.7927 236.016 77.0396 244.701C77.1631 249.074 77.1631 252.585 77.1631 254.988C77.1631 256.22 77.1631 257.144 77.1014 257.76C77.1014 258.068 77.1014 258.314 77.1014 258.499C77.0396 258.684 77.0396 258.745 77.0396 258.745Z" fill="#455A64"/>
<path d="M51.9107 162.775C51.9724 162.775 51.9724 184.15 51.9107 210.452C51.7872 236.816 51.6637 258.129 51.602 258.129C51.5402 258.129 51.5402 236.755 51.602 210.452C51.6637 184.088 51.7872 162.775 51.9107 162.775Z" fill="#455A64"/>
<path d="M63.7653 159.695C63.7653 159.695 63.5183 159.818 63.0862 160.003C62.654 160.188 62.0365 160.373 61.2956 160.681L61.1722 160.742V160.558C61.1104 159.202 60.9869 157.416 60.8634 155.445C60.74 153.289 60.6782 151.379 60.6782 149.963C60.6782 149.285 60.6782 148.669 60.6782 148.299C60.6782 147.93 60.6782 147.683 60.74 147.683C60.74 147.683 60.8017 147.868 60.8017 148.299C60.8634 148.669 60.8634 149.285 60.9252 149.963C61.0487 151.379 61.1104 153.289 61.2339 155.445C61.3574 157.416 61.4191 159.202 61.4191 160.558L61.2339 160.434C62.0365 160.188 62.654 160.003 63.0862 159.88C63.5183 159.695 63.7653 159.634 63.7653 159.695Z" fill="#455A64"/>
<path d="M62.5305 147.991C62.5305 147.991 62.5923 147.93 62.7157 147.868C62.901 147.807 63.1479 147.807 63.3949 147.93C63.6419 148.053 63.9506 148.423 63.9506 148.854C63.8888 149.285 63.5801 149.716 63.0862 149.839C62.5923 149.963 62.0983 149.655 61.9131 149.285C61.6661 148.915 61.7896 148.484 61.9131 148.238C62.0983 147.991 62.2835 147.807 62.4688 147.745C62.654 147.683 62.7157 147.683 62.7157 147.683C62.7157 147.745 62.3453 147.807 62.0983 148.299C61.9748 148.546 61.9748 148.854 62.1601 149.1C62.3453 149.347 62.7157 149.593 63.0244 149.531C63.3949 149.47 63.6419 149.1 63.6419 148.792C63.7036 148.484 63.5184 148.238 63.2714 148.115C62.901 147.868 62.5305 148.053 62.5305 147.991Z" fill="#455A64"/>
<path d="M69.606 148.104C69.6688 148.713 69.8022 149.198 69.904 149.188C70.0057 149.177 70.0373 148.675 69.9745 148.066C69.9117 147.457 69.7783 146.971 69.6766 146.982C69.5748 146.992 69.5432 147.495 69.606 148.104Z" fill="#455A64"/>
<path d="M70.8422 147.865C70.8453 148.512 70.9308 149.035 71.0331 149.035C71.1354 149.034 71.2158 148.51 71.2127 147.864C71.2096 147.217 71.1241 146.694 71.0218 146.694C70.9195 146.695 70.8391 147.219 70.8422 147.865Z" fill="#455A64"/>
<path d="M51.3679 148.512C51.4497 149.256 51.5985 149.85 51.7002 149.839C51.8018 149.828 51.8179 149.216 51.7361 148.472C51.6542 147.728 51.5055 147.134 51.4038 147.145C51.3021 147.156 51.286 147.768 51.3679 148.512Z" fill="#455A64"/>
<path d="M53.0223 149.901C52.9605 149.901 52.6518 149.347 52.6518 148.546C52.5901 147.745 52.8371 147.129 52.9605 147.129C53.0223 147.129 52.9605 147.745 53.0223 148.484C52.9605 149.285 53.1458 149.901 53.0223 149.901Z" fill="#455A64"/>
<path d="M36.1047 172.631C36.1047 172.631 35.6725 165.917 30.1775 166.594C24.6825 167.272 24.4973 172.261 24.4973 172.261L22.0894 171.83C22.0894 171.83 22.9537 164.808 30.7332 164.993C38.5127 165.177 38.3274 173.062 38.3274 173.062L36.1047 172.631Z" fill="#455A64"/>
<g opacity="0.3">
<path d="M36.1047 172.631C36.1047 172.631 35.6725 165.917 30.1775 166.594C24.6825 167.272 24.4973 172.261 24.4973 172.261L22.0894 171.83C22.0894 171.83 22.9537 164.808 30.7332 164.993C38.5127 165.177 38.3274 173.062 38.3274 173.062L36.1047 172.631Z" fill="black"/>
</g>
<path d="M10.1731 170.66L9 202.321L50.9844 203.122L51.6636 171.83L10.1731 170.66Z" fill="#455A64"/>
<path d="M51.6636 171.83C51.6636 171.83 51.6636 171.892 51.6018 171.953C51.5401 172.076 51.4784 172.138 51.3549 172.323C51.1079 172.631 50.7992 173.124 50.367 173.678C49.5026 174.848 48.2678 176.512 46.6008 178.544C44.9337 180.577 42.958 182.979 40.2414 185.135C38.883 186.182 37.3395 187.23 35.6725 187.969C33.9437 188.77 32.0297 189.262 30.054 189.386C28.0165 189.447 26.1025 189.016 24.312 188.338C22.5832 187.599 21.0397 186.614 19.6814 185.505C17.0265 183.287 15.2359 180.639 13.9394 178.421C12.6428 176.142 11.7784 174.232 11.161 172.939C10.8523 172.323 10.6671 171.768 10.4818 171.399C10.4201 171.214 10.3583 171.091 10.2966 170.968C10.2349 170.906 10.2349 170.844 10.2349 170.844C10.2349 170.844 10.2966 170.906 10.2966 170.968C10.3583 171.091 10.4201 171.214 10.4818 171.337C10.6671 171.707 10.914 172.2 11.2227 172.816C11.8402 174.109 12.7663 176.019 14.0629 178.236C15.4212 180.454 17.1499 183.041 19.8048 185.197C21.1014 186.306 22.645 187.23 24.3737 187.969C26.1025 188.646 28.0165 189.078 29.9305 189.016C31.9062 188.954 33.7585 188.4 35.4255 187.661C37.0925 186.922 38.6361 185.936 39.9944 184.889C42.6493 182.795 44.6868 180.392 46.3538 178.421C48.0208 176.45 49.2557 174.787 50.1818 173.616C50.614 173.062 50.9844 172.631 51.2314 172.323C51.3549 172.2 51.4166 172.076 51.5401 172.015C51.6636 171.83 51.6636 171.83 51.6636 171.83Z" fill="#263238"/>
<path d="M48.0593 187.735C46.3949 196.146 45.1269 202.98 45.2273 203C45.3276 203.02 46.7583 196.217 48.4228 187.807C50.0872 179.396 51.3552 172.561 51.2548 172.541C51.1544 172.522 49.7238 179.324 48.0593 187.735Z" fill="#263238"/>
<path d="M51.4783 172.015C51.4783 172.015 51.4783 172.138 51.4783 172.323C51.4783 172.569 51.4783 172.877 51.4166 173.247C51.3548 174.048 51.2931 175.156 51.2313 176.573C51.0461 179.407 50.6757 183.287 50.2435 187.538C49.8113 191.788 49.4408 195.669 49.1321 198.502C49.0086 199.857 48.8852 200.966 48.8234 201.828C48.7617 202.198 48.7617 202.506 48.6999 202.752C48.6999 202.937 48.6382 203.06 48.6382 203.06C48.6382 203.06 48.6382 202.937 48.6382 202.752C48.6382 202.506 48.6382 202.198 48.6999 201.828C48.7617 201.028 48.8234 199.919 48.8852 198.502C49.0704 195.669 49.4408 191.788 49.873 187.538C50.3052 183.287 50.6757 179.407 50.9844 176.573C51.1079 175.218 51.2313 174.109 51.2931 173.247C51.3548 172.877 51.3548 172.569 51.4166 172.323C51.4783 172.138 51.4783 172.015 51.4783 172.015Z" fill="#263238"/>
<path d="M29.4798 188.152L28.2451 188.173L28.2853 190.513L29.52 190.492L29.4798 188.152Z" fill="#263238"/>
<path d="M51.6633 171.83C51.6633 171.83 51.5398 171.83 51.2311 171.83C50.9224 171.83 50.4902 171.83 49.9963 171.83C48.8849 171.83 47.4031 171.768 45.5509 171.768C41.7846 171.707 36.5983 171.584 30.9181 171.399C25.2378 171.214 20.0515 171.091 16.2853 170.968C14.433 170.906 12.9512 170.844 11.8399 170.783C11.3459 170.783 10.9755 170.721 10.605 170.721C10.3581 170.721 10.1729 170.66 10.1729 170.66C10.1729 170.66 10.2963 170.66 10.605 170.66C10.9138 170.66 11.2842 170.66 11.8399 170.66C12.9512 170.66 14.433 170.721 16.2853 170.721C20.0515 170.783 25.2378 170.906 30.9181 171.091C36.5983 171.276 41.7846 171.399 45.5509 171.522C47.4031 171.584 48.8849 171.645 49.9963 171.707C50.4902 171.707 50.8607 171.768 51.2311 171.768C51.5398 171.768 51.6633 171.768 51.6633 171.83Z" fill="#263238"/>
<path d="M28.6958 154.213C28.6958 154.213 25.9174 161.79 25.8557 163.021C25.7322 164.253 24.5591 166.163 25.9174 166.594C25.9174 166.594 25.6705 167.518 27.1523 167.888C27.1523 167.888 27.1523 169.489 29.0663 169.304C29.0663 169.304 30.3628 170.598 31.4742 169.92C31.4742 169.92 33.1412 170.783 33.8821 169.551C34.5613 168.319 35.3022 166.348 35.3022 166.348L36.4135 167.21C36.4135 167.21 37.0927 165.855 36.7222 164.377C36.4135 162.898 34.4995 161.05 34.9317 159.202C35.3022 157.539 35.4874 157.293 35.4874 157.293L28.6958 154.213Z" fill="#FFBE9D"/>
<g opacity="0.3">
<path d="M43.2051 182.24C41.7233 185.936 39.1301 189.078 36.0431 191.542C33.8204 193.328 31.042 194.745 28.2019 194.437C25.7322 194.19 23.5712 192.65 21.7807 190.926C18.1379 187.476 15.4213 183.041 14.063 178.236C14.063 178.236 20.8546 189.447 28.9428 189.262C36.1665 189.139 43.2051 182.24 43.2051 182.24Z" fill="black"/>
</g>
<path d="M71.7295 82.7588C71.7295 82.7588 82.7813 85.038 84.1396 86.7011C85.2509 88.0563 91.0547 101.546 91.0547 101.546L95.747 109.8C95.747 109.8 97.3523 111.032 97.8463 112.88C98.2785 114.667 98.7724 118.671 98.7107 121.135C98.7107 121.135 97.8463 126.555 94.4505 126.802C91.0547 127.048 87.9058 125.57 85.6831 123.537C83.7074 121.751 78.8298 109.677 78.9533 109.061L71.7295 82.7588Z" fill="#21357C"/>
<path d="M51.4782 80.3565L51.9721 79.8021L57.035 85.4691L61.0482 89.9042L66.111 79.1861L67.5928 80.2333C67.5928 80.2333 73.0261 121.443 72.9643 121.935C72.8408 122.428 75.0636 144.912 75.0636 144.912C75.0636 144.912 63.4561 147.191 60.0603 146.144C56.7262 145.096 49.1938 146.76 49.2555 146.39C49.3172 146.02 46.0449 132.284 46.0449 132.284L47.0328 94.5241L51.4782 80.3565Z" fill="#FAFAFA"/>
<path d="M73.0878 139.922C73.0878 139.922 72.779 139.86 72.2234 139.737C71.6677 139.614 70.9268 139.368 70.0007 139.06C68.1484 138.444 65.5553 137.397 62.9004 136.041C60.2455 134.686 57.8993 133.146 56.294 132.037C55.4914 131.483 54.8739 130.99 54.4417 130.621C54.0096 130.251 53.7626 130.066 53.8243 130.066C53.8243 130.066 54.0713 130.19 54.5652 130.559C54.9974 130.867 55.6766 131.36 56.4792 131.914C58.0845 133.023 60.4307 134.44 63.0856 135.857C65.7405 137.212 68.2719 138.259 70.1242 138.937C71.0503 139.306 71.7912 139.552 72.3469 139.737C72.779 139.737 73.0878 139.86 73.0878 139.922Z" fill="#263238"/>
<path d="M61.048 89.9042C61.048 89.9042 61.048 90.089 61.048 90.397C61.048 90.705 61.048 91.1978 61.048 91.7522C61.048 92.9225 61.048 94.6473 60.9863 96.68C60.9863 100.869 60.9245 106.597 61.048 112.942C61.1097 119.287 61.295 125.077 61.4184 129.204C61.4802 131.237 61.5419 132.961 61.5419 134.132C61.5419 134.686 61.5419 135.117 61.5419 135.487C61.5419 135.795 61.5419 135.98 61.5419 135.98C61.5419 135.98 61.5419 135.795 61.4802 135.487C61.4802 135.179 61.4184 134.686 61.4184 134.132C61.3567 132.961 61.2332 131.298 61.1715 129.204C60.9863 125.015 60.801 119.287 60.7393 112.942C60.6775 106.597 60.6775 100.807 60.801 96.68C60.8628 94.5857 60.8628 92.9225 60.9245 91.7522C60.9245 91.1978 60.9863 90.7666 60.9863 90.397C60.9863 90.0274 61.048 89.9042 61.048 89.9042Z" fill="#263238"/>
<path d="M63.3083 140.359C63.3806 142.74 63.522 144.667 63.6242 144.664C63.7265 144.661 63.7508 142.728 63.6786 140.348C63.6064 137.968 63.465 136.041 63.3627 136.044C63.2605 136.047 63.2361 137.979 63.3083 140.359Z" fill="#263238"/>
<path d="M51.1694 80.8493L47.4031 84.9148C47.4031 84.9148 42.7107 86.0851 37.3392 87.8099C36.2279 88.1795 33.8199 89.6578 32.8938 92.7993C32.4616 94.1545 39.2532 126.802 39.2532 126.802L38.1419 136.226L34.4991 163.391C34.4991 163.391 40.7968 165.609 44.81 165.793C47.0944 165.855 47.4649 157.046 48.391 150.887C49.3171 144.973 51.6633 126.001 51.6633 120.703C51.6633 115.406 50.552 89.9658 50.552 89.4114C50.6754 88.8571 51.1694 80.8493 51.1694 80.8493Z" fill="#21357C"/>
<path d="M51.0461 128.588C51.0461 128.588 50.9843 128.403 50.9226 128.095C50.8608 127.726 50.7373 127.294 50.5521 126.678C50.2434 125.446 49.8112 123.66 49.2555 121.504C48.2059 117.131 46.7241 111.094 45.1806 104.441C44.7484 102.532 44.3162 100.746 43.884 98.9592V98.8976V98.836C44.9954 96.0641 46.045 93.4769 46.9094 91.1978L47.0328 91.3826C45.9215 91.3826 44.9336 91.3826 44.0075 91.3826H43.8223L43.9458 91.1978C45.1806 89.1034 46.2302 87.3787 46.9094 86.1467C47.2798 85.5923 47.5268 85.0996 47.712 84.7916C47.8972 84.4836 48.0207 84.2988 48.0207 84.3604C48.0207 84.3604 47.959 84.5452 47.7737 84.8532C47.5885 85.2228 47.3415 85.6539 47.0328 86.2699C46.3537 87.5019 45.3658 89.2266 44.131 91.321L44.0075 91.1362C44.9336 91.1362 45.9832 91.1362 47.0328 91.1362H47.2181L47.1563 91.321C46.2302 93.6001 45.2423 96.1873 44.131 98.9592V98.8976C44.5632 100.684 44.9954 102.47 45.4276 104.38C46.9711 111.032 48.3912 117.069 49.4408 121.504C49.9347 123.66 50.3052 125.446 50.6139 126.678C50.7373 127.294 50.8608 127.726 50.9226 128.095C51.0461 128.465 51.0461 128.588 51.0461 128.588Z" fill="#263238"/>
<path d="M67.5312 80.1101L69.9392 82.266L83.7076 86.1467L83.8311 108.014L81.7936 129.943L85.992 162.713C81.2379 165.301 74.1376 164.746 74.1376 164.746L70.8653 145.589C70.3714 142.016 68.5809 117.931 68.5809 117.931L67.5312 80.1101Z" fill="#21357C"/>
<path d="M72.4704 124.584C72.4704 124.584 72.4704 124.399 72.5321 124.091C72.5939 123.722 72.6556 123.291 72.7173 122.736C72.9026 121.504 73.1495 119.779 73.52 117.685C74.1374 113.435 75.0018 107.521 75.7427 100.992C76.1131 97.7272 76.4218 94.5857 76.6688 91.7522C76.7923 90.3354 76.9158 88.9802 77.0393 87.7483C77.101 87.1323 77.1627 86.4547 76.854 86.0851C76.4836 85.6539 75.8662 85.7155 75.3722 85.7771C74.8783 85.8387 74.3226 86.0235 73.8287 85.9619C73.3348 85.9003 72.8408 85.7155 72.4704 85.5307C71.7295 85.038 71.2973 84.422 70.9268 83.9292C70.5564 83.4364 70.3712 83.0052 70.1859 82.7588C70.0007 82.5124 69.939 82.3276 69.939 82.3276C69.939 82.3276 70.0624 82.4508 70.2477 82.6972C70.4329 82.9436 70.6799 83.3748 71.0503 83.806C71.4208 84.2988 71.853 84.8532 72.5939 85.2843C72.9643 85.4691 73.3965 85.6539 73.8287 85.7155C74.3226 85.7771 74.8166 85.5923 75.3105 85.5307C75.5575 85.4691 75.8662 85.4691 76.1749 85.4691C76.4836 85.4691 76.7923 85.5923 77.0393 85.9003C77.2862 86.1467 77.348 86.5163 77.348 86.8243C77.348 87.1323 77.348 87.4403 77.2862 87.7483C77.1627 89.0418 77.101 90.3354 76.9775 91.8138C76.7306 94.6473 76.4218 97.7888 76.0514 101.054C75.3105 107.583 74.4461 113.496 73.767 117.747C73.3965 119.903 73.0878 121.566 72.9026 122.798C72.7791 123.352 72.7173 123.845 72.6556 124.153C72.5321 124.399 72.5321 124.584 72.4704 124.584Z" fill="#263238"/>
<path d="M79.5159 101.734C80.7774 101.714 81.7987 101.614 81.797 101.512C81.7954 101.41 80.7713 101.344 79.5098 101.365C78.2483 101.385 77.2269 101.485 77.2286 101.587C77.2303 101.689 78.2543 101.755 79.5159 101.734Z" fill="#263238"/>
<g opacity="0.3">
<path d="M84.2629 113.004C85.189 111.772 86.5474 110.909 88.0292 110.601C88.3996 110.54 88.8935 110.54 89.017 110.848C89.1405 111.094 88.9553 111.402 88.7701 111.648L88.2761 112.203C86.8561 113.558 85.9299 115.406 85.683 117.377C85.0655 115.591 85.8064 113.435 87.35 112.326C85.8682 112.634 84.7568 113.743 83.769 114.852C83.522 114.236 83.8307 113.496 84.2629 113.004Z" fill="black"/>
</g>
<path d="M83.2134 115.406C83.2134 115.406 83.3986 115.16 83.7073 114.728C84.016 114.297 84.51 113.804 85.1274 113.312C85.7448 112.88 86.4239 112.572 86.8561 112.388C87.3501 112.203 87.6588 112.141 87.6588 112.141C87.6588 112.141 87.597 112.141 87.4118 112.141C87.2883 112.141 87.0414 112.203 86.7944 112.264C86.3005 112.388 85.6213 112.696 85.0039 113.188C84.3865 113.681 83.8925 114.174 83.5838 114.605C83.4603 114.79 83.3369 114.975 83.2751 115.098C83.2134 115.283 83.2134 115.406 83.2134 115.406Z" fill="#263238"/>
<path d="M85.8684 118.671C85.8684 118.671 85.8684 118.239 85.8684 117.562C85.8684 117.192 85.9301 116.823 86.0536 116.392C86.1771 115.96 86.3006 115.468 86.4858 114.975C86.671 114.482 86.918 114.051 87.165 113.62C87.4119 113.25 87.6589 112.88 87.8441 112.634C88.2763 112.08 88.585 111.833 88.585 111.772C88.585 111.772 88.5233 111.833 88.3381 111.956C88.2763 112.018 88.1528 112.08 88.0911 112.203C87.9676 112.326 87.9059 112.388 87.7824 112.572C87.5354 112.819 87.2884 113.188 87.0415 113.558C86.7945 113.928 86.5475 114.42 86.3623 114.913C86.1771 115.406 86.0536 115.899 85.9301 116.33C85.8684 116.761 85.8066 117.192 85.8066 117.562C85.8066 117.747 85.8066 117.87 85.8066 118.055C85.8066 118.178 85.8066 118.301 85.8066 118.424C85.8684 118.547 85.8684 118.671 85.8684 118.671Z" fill="#263238"/>
<path d="M83.7077 95.0169C83.7077 95.0169 83.7077 95.1401 83.7077 95.3865C83.7077 95.6329 83.7077 95.9409 83.7077 96.372C83.646 97.296 83.646 98.4664 83.5842 99.9447C83.399 103.025 83.2138 107.213 82.9668 111.833C82.7199 116.453 82.4111 120.642 82.2259 123.722C82.1024 125.2 82.0407 126.432 81.979 127.294C81.9172 127.664 81.9172 128.034 81.9172 128.28C81.9172 128.526 81.8555 128.65 81.8555 128.65C81.8555 128.65 81.8555 128.526 81.8555 128.28C81.8555 128.034 81.8555 127.726 81.8555 127.294C81.9172 126.37 81.9172 125.2 81.979 123.722C82.1642 120.642 82.3494 116.453 82.5964 111.833C82.8433 107.213 83.152 103.025 83.3373 99.9447C83.4608 98.4664 83.5225 97.2344 83.5842 96.372C83.646 96.0025 83.646 95.6329 83.646 95.3865C83.646 95.1401 83.646 95.0169 83.7077 95.0169Z" fill="#263238"/>
<path d="M36.5368 88.6723C36.5368 88.6723 33.388 89.8426 32.5853 94.5857C31.7209 99.3288 26.4111 157.478 26.4111 157.478L35.4254 157.97L39.8708 126.37L36.5368 88.6723Z" fill="#21357C"/>
<path d="M39.8706 126.986C39.9324 126.986 38.9445 134.378 37.6479 143.495C36.3513 152.611 35.24 159.942 35.1165 159.942C35.0548 159.942 36.0426 152.55 37.3392 143.433C38.6358 134.317 39.7471 126.986 39.8706 126.986Z" fill="#263238"/>
<path d="M38.8073 113.1C38.1309 105.441 37.5 99.2402 37.3981 99.2492C37.2962 99.2582 37.7619 105.474 38.4383 113.132C39.1147 120.791 39.7457 126.992 39.8476 126.983C39.9495 126.974 39.4838 120.758 38.8073 113.1Z" fill="#263238"/>
<path d="M60.9867 90.1506C60.9867 90.1506 60.7397 89.9658 60.3075 89.5962C59.8753 89.165 59.2579 88.6723 58.5788 88.0563L58.764 87.9947C58.2083 89.5962 57.4674 91.6906 56.603 94.0313L56.4795 94.2777L56.2943 94.0313C56.2326 93.9697 56.2326 93.9081 56.1708 93.8465C54.4421 91.7522 53.2072 89.5962 52.4663 87.9947C52.0959 87.1939 51.7872 86.5163 51.6019 86.0851C51.4167 85.5923 51.355 85.3459 51.355 85.3459C51.355 85.3459 51.4785 85.5923 51.7254 86.0235C51.9107 86.4547 52.2194 87.1323 52.6516 87.8715C53.4542 89.4114 54.7508 91.5674 56.4178 93.6617C56.4795 93.7233 56.4795 93.7849 56.5413 93.8465L56.2943 93.9081C57.1587 91.5674 57.9613 89.473 58.5788 87.9331L58.6405 87.7483L58.764 87.8715C59.4432 88.5491 59.9988 89.1034 60.431 89.5346C60.8015 89.9042 61.0484 90.1506 60.9867 90.1506Z" fill="#263238"/>
<path d="M67.6547 83.9292C67.6547 83.9292 67.6547 84.1756 67.6547 84.6684C67.593 85.2227 67.5312 85.8387 67.4695 86.6395C67.2843 88.3027 67.0373 90.5818 66.7286 93.1073C66.7286 93.1689 66.7286 93.2305 66.7286 93.2921L66.6668 93.7233L66.4199 93.3537C64.9998 91.2594 63.7032 89.4114 62.7771 88.0563H62.9623C62.4067 88.6107 61.9745 89.0418 61.604 89.4114C61.2953 89.7194 61.1101 89.9042 61.0483 89.9042C61.0483 89.9042 61.1718 89.7194 61.4805 89.3498C61.851 88.9802 62.2832 88.4875 62.7771 87.9331L62.8389 87.8099L62.9006 87.9331C63.8267 89.2266 65.185 91.1362 66.6051 93.1689L66.2964 93.2305C66.2964 93.1689 66.2964 93.1073 66.2964 93.0457C66.6051 90.5202 66.9138 88.2411 67.1608 86.5779C67.2843 85.7771 67.346 85.1612 67.4695 84.6068C67.593 84.1756 67.6547 83.9292 67.6547 83.9292Z" fill="#263238"/>
<path d="M33.6968 152.981C33.6968 152.981 33.8203 152.919 34.0055 152.981C34.1907 153.043 34.4994 153.166 34.6846 153.535C34.8081 153.72 34.8699 153.905 34.8699 154.09C34.9316 154.336 34.8699 154.582 34.7464 154.829C34.4994 155.26 34.0672 155.691 33.3881 155.691C32.7089 155.63 32.3385 155.075 32.215 154.582C32.0915 154.09 32.3385 153.597 32.5854 153.351C32.8324 153.104 33.1411 152.981 33.3881 152.981C33.6968 152.919 33.7585 152.981 33.6968 152.981C33.7585 153.043 33.2646 152.981 32.8324 153.474C32.6472 153.72 32.4619 154.09 32.5854 154.521C32.7089 154.89 33.0176 155.322 33.4498 155.383C33.882 155.383 34.3142 155.075 34.4994 154.706C34.6846 154.336 34.6229 153.905 34.4377 153.659C34.1907 153.104 33.6968 153.043 33.6968 152.981Z" fill="#263238"/>
<path d="M83.0283 141.585C83.0283 141.585 74.7549 142.201 75.1254 142.078L77.4715 146.513L85.1275 145.959L83.0283 141.585Z" fill="#21357C"/>
<path d="M83.0284 141.585C83.0284 141.585 83.0901 141.647 83.2136 141.893C83.3371 142.14 83.4606 142.386 83.6458 142.756C84.078 143.556 84.6337 144.665 85.3128 145.959L85.3746 146.144H85.1893C83.0901 146.328 80.4352 146.513 77.5334 146.698H77.4099L77.3481 146.575C77.3481 146.513 77.2864 146.452 77.2864 146.39C76.4838 144.85 75.7429 143.433 75.002 142.078L75.1872 142.14C75.1872 142.14 75.2489 142.14 75.2489 141.955C75.1872 141.832 75.1254 141.893 75.1872 141.893H75.2489H75.3724H75.5576C75.6811 141.893 75.8663 141.893 75.9898 141.893C76.2985 141.893 76.5455 141.893 76.7925 141.832C77.3481 141.832 77.8421 141.77 78.336 141.77C79.2621 141.708 80.1265 141.647 80.8674 141.647C81.5466 141.647 82.0405 141.585 82.4727 141.585C82.8432 141.524 83.0284 141.524 83.0284 141.585C83.0284 141.585 82.8432 141.647 82.4727 141.647C82.0405 141.708 81.4848 141.77 80.8674 141.832C80.1265 141.893 79.3239 141.955 78.3978 142.016C77.9038 142.078 77.4099 142.078 76.8542 142.14C76.6072 142.14 76.2985 142.201 76.0516 142.201C75.9281 142.201 75.7429 142.201 75.6194 142.201H75.3724H75.2489H75.1872H75.1254C75.1254 142.201 75.1254 142.201 75.0637 142.078C75.0637 141.893 75.1254 141.893 75.1254 141.893C75.1254 141.893 75.1254 141.893 75.1872 141.893L75.3107 141.832L75.3724 141.955C76.0516 143.31 76.8542 144.727 77.6569 146.267C77.6569 146.328 77.7186 146.39 77.7186 146.452L77.5951 146.39C80.497 146.205 83.1519 146.02 85.2511 145.897L85.1276 146.082C84.5102 144.788 84.0163 143.68 83.5841 142.879C83.3988 142.509 83.2753 142.201 83.1519 141.955C83.0901 141.708 83.0284 141.585 83.0284 141.585Z" fill="#263238"/>
<path d="M45.2425 142.632L37.7718 141.585L36.1665 146.513L43.8225 147.622L45.2425 142.632Z" fill="#21357C"/>
<path d="M45.2425 142.632C45.2425 142.632 45.2425 142.756 45.1808 142.94C45.119 143.187 45.0573 143.556 44.9338 143.926C44.6868 144.788 44.3781 146.082 43.9459 147.622V147.745H43.8224C41.7232 147.437 39.0683 147.067 36.2899 146.698H36.2282H36.043L36.1047 146.513C36.6604 144.727 37.2161 143.064 37.71 141.585L37.7717 141.462H37.8952C40.1179 141.77 42.0319 142.078 43.3285 142.324C43.9459 142.448 44.4399 142.509 44.8103 142.571C45.0573 142.571 45.2425 142.632 45.2425 142.632C45.2425 142.632 44.9955 142.632 44.6868 142.571C44.2546 142.509 43.7607 142.448 43.1433 142.386C41.8467 142.201 39.9944 142.016 37.7717 141.708L37.957 141.585C37.463 143.064 36.9691 144.788 36.4134 146.513L36.2899 146.328H36.3517C39.1918 146.759 41.785 147.129 43.8842 147.437L43.7607 147.499C44.1929 146.02 44.5633 144.788 44.872 143.926C44.9955 143.495 45.119 143.187 45.1808 142.94C45.1808 142.756 45.1808 142.632 45.2425 142.632Z" fill="#263238"/>
<path d="M97.2292 92.6146C97.4762 92.7377 97.7232 92.9841 97.7849 93.3537C97.8467 93.6001 97.7849 93.8465 97.7232 94.0313L94.3274 101.608L92.1047 106.043L85.5601 104.441L89.8202 93.9081C89.8202 93.9081 90.1907 92.4298 91.4873 92.4298H96.6736C96.8588 92.4914 97.044 92.553 97.2292 92.6146Z" fill="#455A64"/>
<path d="M95.7474 94.5241H96.6118C96.7353 94.5241 96.8588 94.4625 96.9205 94.3393C97.044 94.0929 96.8588 93.8465 96.6118 93.8465H95.7474C95.6239 93.8465 95.5005 93.9081 95.4387 94.0313C95.3152 94.2777 95.5005 94.5241 95.7474 94.5241Z" fill="white"/>
<path d="M96.7969 113.743C97.0439 113.25 96.1795 112.449 96.1795 112.449C96.1795 112.449 95.1299 107.46 95.5621 106.597C95.9943 105.735 95.7473 104.688 95.8708 102.963C95.9325 101.177 96.6117 100.561 96.6117 100.561C96.6117 100.561 96.6734 99.452 96.7969 98.528C96.9204 97.604 96.3647 96.9264 96.3647 96.9264L94.2655 101.67L93.9568 101.238C93.3394 100.068 91.2401 98.0968 90.561 97.7272C89.8818 97.3576 89.3879 98.0352 89.2027 98.528C89.0174 99.0208 89.7583 99.9448 90.2523 100.253C90.7462 100.561 91.4871 102.655 91.7341 103.456C91.9811 104.195 91.7341 104.38 91.2402 104.688C90.7462 104.996 88.894 103.456 88.0296 103.086C87.1652 102.717 85.9304 101.423 85.9304 101.423C85.9304 101.423 85.4364 100.992 84.7573 101.3C84.0781 101.608 84.3868 102.963 84.3868 102.963C83.2755 103.825 83.8311 105.427 83.8311 105.427C83.8311 105.427 82.7198 105.489 82.6581 105.858C82.5963 106.228 82.9668 108.199 83.5842 108.692C84.2016 109.185 86.8565 111.032 86.8565 111.032C87.5974 112.326 89.2644 113.127 89.2644 113.127L89.7584 115.714C89.7584 115.714 91.1167 116.268 93.2159 115.714C95.3768 115.16 96.7969 113.743 96.7969 113.743Z" fill="#FFBE9D"/>
<path d="M84.3867 102.84C84.3867 102.84 84.3867 102.84 84.3867 102.901C84.3867 102.963 84.3867 103.025 84.3867 103.086C84.3867 103.271 84.5102 103.517 84.6337 103.764C84.8189 104.01 85.0659 104.257 85.3746 104.503C85.6833 104.749 86.0537 104.996 86.4242 105.181C87.2268 105.612 87.9677 105.981 88.4617 106.228C88.7086 106.351 88.9556 106.413 89.1408 106.474C89.3261 106.536 89.3878 106.536 89.3878 106.536C89.3878 106.536 89.0791 106.413 88.5234 106.166C87.9677 105.92 87.2886 105.55 86.4859 105.119C85.745 104.688 85.0041 104.195 84.6954 103.764C84.3867 103.209 84.4485 102.84 84.3867 102.84Z" fill="#EB996E"/>
<path d="M83.8931 105.427C83.8931 105.427 84.0165 105.673 84.3253 105.981C84.634 106.289 85.1279 106.721 85.6836 107.09C86.2392 107.46 86.8567 107.706 87.2271 107.891C87.6593 108.014 87.9063 108.076 87.9063 108.076C87.9063 108.076 87.6593 107.953 87.2271 107.829C86.7949 107.645 86.2392 107.398 85.6836 107.029C85.1279 106.659 84.634 106.289 84.3253 105.981C84.14 105.612 83.9548 105.427 83.8931 105.427Z" fill="#EB996E"/>
<path d="M94.5741 105.489C94.5741 105.489 94.7593 105.365 94.8828 104.996C95.0063 104.626 94.9446 104.133 94.8211 103.579C94.7593 103.025 94.6359 102.532 94.5124 102.162C94.3889 101.793 94.3271 101.608 94.3271 101.608C94.3271 101.608 94.3889 101.854 94.4506 102.162C94.5124 102.532 94.6359 103.025 94.6976 103.579C94.7593 104.133 94.8211 104.626 94.7593 104.996C94.7593 105.304 94.5741 105.427 94.5741 105.489Z" fill="#EB996E"/>
<path d="M91.981 107.645C91.981 107.645 92.0427 107.645 92.1662 107.645C92.2897 107.583 92.4749 107.521 92.5366 107.337C92.6601 107.152 92.6601 106.967 92.5984 106.844C92.5984 106.721 92.5366 106.659 92.4749 106.659C92.4132 106.659 92.5366 106.967 92.3514 107.275C92.2897 107.583 91.981 107.645 91.981 107.645Z" fill="#EB996E"/>
<path d="M89.8203 109.677C89.8203 109.677 89.9438 109.739 90.0673 109.677C90.2525 109.677 90.4377 109.554 90.623 109.369C90.8082 109.185 90.8699 108.938 90.8699 108.753C90.8699 108.569 90.8699 108.507 90.8082 108.507C90.8082 108.507 90.8082 108.63 90.7464 108.753C90.7464 108.877 90.623 109.123 90.4995 109.246C90.376 109.431 90.129 109.492 90.0055 109.554C89.8821 109.616 89.8203 109.616 89.8203 109.677Z" fill="#EB996E"/>
<path d="M87.9062 110.848C87.9062 110.848 87.968 110.909 88.0915 110.848C88.215 110.786 88.4002 110.724 88.5237 110.54C88.6472 110.355 88.7089 110.17 88.7089 110.047C88.7089 109.924 88.6471 109.862 88.6471 109.862C88.5854 109.862 88.6471 110.17 88.4619 110.478C88.215 110.724 87.9062 110.786 87.9062 110.848Z" fill="#EB996E"/>
<path d="M89.2646 113.25C89.2646 113.25 89.4499 113.373 89.6968 113.435C90.0055 113.558 90.376 113.62 90.8699 113.743C91.3021 113.804 91.7343 113.866 92.043 113.866C92.3517 113.866 92.537 113.866 92.537 113.866C92.537 113.804 91.7961 113.804 90.8699 113.62C90.0055 113.435 89.2646 113.188 89.2646 113.25Z" fill="#EB996E"/>
<path d="M87.2271 102.655C87.2271 102.655 87.2271 102.593 87.2888 102.47C87.3505 102.347 87.4123 102.224 87.474 102.039C87.5975 101.608 87.8445 101.054 88.0914 100.376C88.5854 98.9592 89.3263 96.988 90.1289 94.7705C90.3141 94.2161 90.5611 93.7233 91.055 93.4153C91.4872 93.1073 92.0429 93.1689 92.5368 93.1689C93.5247 93.1689 94.4508 93.1689 95.1917 93.1689C95.9326 93.1689 96.5501 93.1689 96.9823 93.1689C96.5501 93.1689 95.9326 93.1689 95.1917 93.1073C94.4508 93.1073 93.5247 93.0457 92.5368 93.0457C92.2899 93.0457 92.0429 93.0457 91.7342 93.0457C91.4872 93.1073 91.1785 93.1689 90.9316 93.2921C90.4376 93.6001 90.1907 94.1545 89.9437 94.7089C89.141 96.8648 88.4619 98.8976 87.968 100.314C87.721 100.992 87.5358 101.608 87.4123 102.039C87.3505 102.224 87.2888 102.409 87.2888 102.532C87.2271 102.593 87.2271 102.655 87.2271 102.655Z" fill="#263238"/>
<path d="M267.033 268.569C267.033 268.63 210.231 268.754 140.154 268.754C70.0768 268.754 13.2744 268.692 13.2744 268.569C13.2744 268.507 70.0768 268.384 140.154 268.384C210.231 268.384 267.033 268.446 267.033 268.569Z" fill="#263238"/>
</g>
<defs>
<clipPath id="clip0_8_4328">
<rect width="285" height="269" fill="white"/>
</clipPath>
</defs>
</svg>
