<svg width="20" height="20" viewBox="0 0 20 20" fill="none" xmlns="http://www.w3.org/2000/svg">
<path d="M10 9.35399e-08C8.02219 9.35399e-08 6.08879 0.58649 4.4443 1.6853C2.79981 2.78412 1.51809 4.3459 0.761209 6.17316C0.00433278 8.00042 -0.1937 10.0111 0.192152 11.9509C0.578004 13.8907 1.53041 15.6725 2.92894 17.0711C4.32746 18.4696 6.10929 19.422 8.0491 19.8078C9.98891 20.1937 11.9996 19.9957 13.8268 19.2388C15.6541 18.4819 17.2159 17.2002 18.3147 15.5557C19.4135 13.9112 20 11.9778 20 10C20.0002 8.68673 19.7416 7.38629 19.2392 6.17295C18.7367 4.95961 18.0001 3.85715 17.0715 2.92853C16.1428 1.99991 15.0404 1.26332 13.827 0.760839C12.6137 0.258355 11.3133 -0.000179536 10 9.35399e-08ZM10.9135 14.6154H9.07693V7.68752H10.9135V14.6154ZM9.99522 6.93265C9.80784 6.92528 9.62675 6.86304 9.47444 6.75365C9.32213 6.64427 9.2053 6.49256 9.13845 6.31735C9.07161 6.14215 9.0577 5.95118 9.09844 5.76813C9.13918 5.58509 9.23279 5.41805 9.36764 5.28774C9.50249 5.15743 9.67264 5.0696 9.85697 5.03515C10.0413 5.0007 10.2317 5.02115 10.4045 5.09395C10.5773 5.16676 10.7249 5.28871 10.829 5.44468C10.9331 5.60065 10.9891 5.78376 10.9901 5.97128C10.9899 6.10032 10.9638 6.228 10.9133 6.34674C10.8628 6.46549 10.7889 6.57288 10.6961 6.66255C10.6034 6.75221 10.4935 6.82233 10.3731 6.86873C10.2527 6.91512 10.1242 6.93686 9.99522 6.93265Z" fill="#21357C"/>
</svg>
