<svg width="16" height="16" viewBox="0 0 16 16" fill="none" xmlns="http://www.w3.org/2000/svg">
<path d="M15.5379 0H12.9236C12.8007 0 12.6834 0.0489776 12.5965 0.13492L6.64711 6.08432C4.85988 5.50583 2.825 5.98637 1.48874 7.32263C0.52859 8.28278 0 9.55897 0 10.9165C0 12.2749 0.52859 13.5511 1.48874 14.5113C2.44889 15.4714 3.72415 15.9991 5.08259 16C6.44011 16 7.7163 15.4714 8.67645 14.5113C10.0303 13.1574 10.4997 11.1623 9.91383 9.35289L10.6365 8.63024C10.6873 8.57942 10.7252 8.5175 10.7483 8.45004L11.3286 6.70902L13.0697 6.12868C13.2073 6.08248 13.3164 5.97436 13.3617 5.83666L13.942 4.09565L15.684 3.51438C15.8725 3.45154 16 3.27411 16 3.07543V0.462054C16 0.207 15.793 0 15.5379 0ZM6.06215 11.8979C5.53818 12.4209 4.62516 12.4209 4.10211 11.8979C3.56151 11.3573 3.56151 10.4775 4.10211 9.93693C4.36364 9.67541 4.71203 9.53217 5.08259 9.53217C5.45224 9.53217 5.80062 9.67541 6.06215 9.93693C6.32367 10.1985 6.46783 10.5468 6.46783 10.9183C6.46875 11.288 6.32367 11.6364 6.06215 11.8979Z" fill="#21357C"/>
</svg>
