<svg width="94" height="40" viewBox="0 0 94 40" fill="none" xmlns="http://www.w3.org/2000/svg">
<path d="M17.8579 12.2923L18.5786 10.7708C19.5796 11.6917 21.3414 12.3724 23.1032 12.3724C25.4655 12.3724 26.5066 11.4514 26.5066 10.2502C26.5066 6.88689 18.1782 9.00901 18.1782 3.92392C18.1782 1.8018 19.8199 0 23.4235 0C25.0251 0 26.7068 0.44044 27.8279 1.2012L27.2273 2.76276C26.0261 2.002 24.6647 1.64164 23.4635 1.64164C21.1412 1.64164 20.1402 2.64264 20.1402 3.8038C20.1002 7.16716 28.4285 5.04504 28.4285 10.0901C28.4285 12.1722 26.7468 14.014 23.1032 14.014C21.0211 14.014 18.939 13.2933 17.8579 12.2923Z" fill="white"/>
<path d="M43.1231 0.120117V13.8538H41.1611V7.72772H33.2332V13.8538H31.2712V0.120117H33.2332V6.006H41.1611V0.120117H43.1231Z" fill="white"/>
<path d="M49.169 0.120117H47.207V13.8538H49.169V0.120117Z" fill="white"/>
<path d="M55.2554 1.84184V6.6066H62.1423V8.28828H55.2554V13.8538H53.2935V0.120117H63.0232V1.84184H55.2554Z" fill="white"/>
<path d="M68.5885 1.84184H63.9038V0.120117H75.2351V1.84184H70.5504V13.8538H68.5885V1.84184Z" fill="white"/>
<path d="M0 26.5466C0 21.1011 4.12412 17.1772 9.68969 17.1772C12.5325 17.1772 14.975 18.1381 16.6567 20.02L14.975 21.6617C13.5736 20.1802 11.8518 19.4995 9.80981 19.4995C5.68568 19.4995 2.6026 22.5025 2.6026 26.5466C2.6026 30.5906 5.64564 33.5936 9.80981 33.5936C11.8118 33.5936 13.5335 32.8729 14.975 31.3914L16.6567 33.033C14.975 34.9149 12.5325 35.9159 9.64965 35.9159C4.12412 35.8759 0 31.952 0 26.5466Z" fill="white"/>
<path d="M20.4204 17.3774H23.023V33.3934H32.9529V35.6757H20.4204V17.3774Z" fill="white"/>
<path d="M57.1372 26.5466C57.1372 21.1411 61.2613 17.1772 66.8269 17.1772C69.6697 17.1772 72.1122 18.1381 73.7939 20.02L72.1122 21.6617C70.7108 20.1802 68.9891 19.4995 66.947 19.4995C62.8229 19.4995 59.7398 22.5025 59.7398 26.5466C59.7398 30.5906 62.7829 33.5936 66.947 33.5936C68.949 33.5936 70.6707 32.8729 72.1122 31.3914L73.7939 33.033C72.1122 34.9149 69.6697 35.9159 66.8269 35.9159C61.3014 35.8759 57.1372 31.952 57.1372 26.5466Z" fill="white"/>
<path d="M83.5236 27.5475L80.1602 30.9509V35.6757H77.5576V17.3774H80.1602V27.5876L90.1302 17.3774H93.0931L85.2853 25.6256L93.6137 35.6757H90.5306L83.5236 27.5475Z" fill="white"/>
<path d="M52.9731 27.9479C52.9731 32.6326 49.1693 36.4765 44.4445 36.4765C39.7599 36.4765 35.916 32.6727 35.916 27.9479C35.916 23.2632 39.7198 19.4194 44.4445 19.4194C49.1693 19.4194 52.9731 23.2232 52.9731 27.9479Z" fill="#2ADEF5"/>
<path d="M44.4444 40C37.7977 40 32.3923 34.5946 32.3923 27.948C32.3923 21.3013 37.7977 15.8959 44.4444 15.8959V18.0981C38.9989 18.0981 34.5945 22.5426 34.5945 27.948C34.5945 33.3934 39.039 37.7978 44.4444 37.7978C49.8898 37.7978 54.2942 33.3534 54.2942 27.948H56.4964C56.5365 34.5946 51.091 40 44.4444 40Z" fill="white"/>
<path d="M54.1342 25.6657C54.0141 25.1451 53.8539 24.6647 53.6537 24.1842L55.5356 23.4234C55.7758 24.024 55.9761 24.6246 56.0962 25.2252L54.1342 25.6657ZM52.9731 22.7427C52.6928 22.3023 52.3724 21.8619 52.0521 21.4615L53.5737 20.1401C53.9741 20.6206 54.3745 21.1411 54.6948 21.6617L52.9731 22.7427ZM50.931 20.3804C50.5306 20.0601 50.0902 19.7397 49.6497 19.4595L50.6908 17.7377C51.2113 18.0581 51.7318 18.4585 52.2123 18.8589L50.931 20.3804ZM48.2483 18.7387C47.7678 18.5385 47.2473 18.3784 46.7668 18.2583L47.2473 16.2963C47.8479 16.4565 48.4485 16.6166 49.0491 16.8569L48.2483 18.7387Z" fill="#2ADEF5"/>
<path d="M54.8947 17.8178L44.5243 28.9489L38.7986 21.8618L44.5243 25.9859L54.8947 17.8178Z" fill="white"/>
</svg>
